<?xml version="1.0" encoding="UTF-8"?>
<svg width="78px" height="78px" viewBox="0 0 78 78" version="1.1" xmlns="http://www.w3.org/2000/svg" xmlns:xlink="http://www.w3.org/1999/xlink">
    <!-- Generator: Sketch 52.6 (67491) - http://www.bohemiancoding.com/sketch -->
    <title>Logo / Mini / Green</title>
    <desc>Created with Sketch.</desc>
    <g id="Logo-/-Mini-/-Green" stroke="none" stroke-width="1" fill="none" fill-rule="evenodd">
        <g>
            <rect id="Rectangle" x="0" y="0" width="78" height="78"></rect>
            <g id="Group" transform="translate(14.000000, 19.000000)" fill="#5F9B1E">
                <polygon id="Path" points="26.5657895 27.4435484 26.5657895 20.8703226 21.5921053 27.4435484"></polygon>
                <path d="M43.5131579,10.2235484 L6.60526316,10.2235484 C3.27631579,10.2235484 0.578947368,12.9348387 0.578947368,16.2809677 L0.578947368,34.9293548 C0.578947368,38.2754839 3.27631579,40.9867742 6.60526316,40.9867742 L43.5131579,40.9867742 C46.8421053,40.9867742 49.5394737,38.2754839 49.5394737,34.9293548 L49.5394737,16.2809677 C49.5263158,12.9348387 46.8289474,10.2235484 43.5131579,10.2235484 Z M31.6973684,29.8903226 C31.3947368,30.1548387 31.0394737,30.3003226 30.6315789,30.3003226 L29.5394737,30.3003226 L29.5394737,32.9719355 C29.5394737,33.3951613 29.3947368,33.7522581 29.1052632,34.0564516 C28.8157895,34.3606452 28.4473684,34.5193548 28.0263158,34.5193548 C27.6184211,34.5193548 27.2631579,34.3606452 26.9868421,34.0564516 C26.7105263,33.7654839 26.5657895,33.3951613 26.5657895,32.9719355 L26.5657895,30.2870968 L19.0131579,30.2870968 C18.5526316,30.2870968 18.1842105,30.1283871 17.8947368,29.8241935 C17.6184211,29.52 17.4736842,29.1629032 17.4736842,28.766129 C17.4736842,28.4222581 17.5789474,28.1180645 17.7763158,27.8535484 L26.8421053,15.8974194 C27.1710526,15.4609677 27.6052632,15.236129 28.1052632,15.236129 C28.5394737,15.236129 28.8815789,15.3948387 29.1578947,15.7122581 C29.4210526,16.0164516 29.5526316,16.3735484 29.5526316,16.81 L29.5526316,27.4303226 L30.6447368,27.4303226 C31.0789474,27.4303226 31.4473684,27.536129 31.7236842,27.7609677 C32.0263158,27.9990323 32.1842105,28.3693548 32.1842105,28.8587097 C32.1710526,29.2687097 32.0131579,29.6125806 31.6973684,29.8903226 Z" id="Shape" fill-rule="nonzero"></path>
                <path d="M16.3815789,8.06774194 L17.4078947,8.06774194 C18.25,8.06774194 18.9342105,7.75032258 18.9342105,6.90387097 C18.9342105,5.48870968 20.0789474,4.33806452 21.4868421,4.33806452 L28.6184211,4.33806452 C30.0263158,4.33806452 31.1710526,5.48870968 31.1710526,6.90387097 C31.1710526,7.75032258 31.8552632,8.06774194 32.6973684,8.06774194 L33.7105263,8.06774194 C34.5526316,8.06774194 35.2368421,7.75032258 35.2368421,6.90387097 L35.2368421,5.87225806 C35.2368421,2.76419355 32.7236842,0.238064516 29.6315789,0.238064516 L20.4473684,0.238064516 C17.3552632,0.238064516 14.8421053,2.76419355 14.8421053,5.87225806 L14.8421053,6.90387097 C14.8552632,7.75032258 15.5394737,8.06774194 16.3815789,8.06774194 Z" id="Path"></path>
            </g>
        </g>
    </g>
</svg>