<?xml version="1.0" encoding="utf-8"?>
<!-- Generator: Adobe Illustrator 23.0.0, SVG Export Plug-In . SVG Version: 6.00 Build 0)  -->
<svg version="1.1" id="_x2014_ŽÓť_x5F_1" xmlns="http://www.w3.org/2000/svg" xmlns:xlink="http://www.w3.org/1999/xlink"
	 x="0px" y="0px" viewBox="0 0 1100 740" style="enable-background:new 0 0 1100 740;" xml:space="preserve">
<style type="text/css">
	.st0{fill:#F8F7FF;}
	.st1{fill:#DDD6FF;}
	.st2{fill:#FF809F;}
	.st3{fill:#40327A;}
	.st4{fill:#FF95A9;}
	.st5{fill:#FFFFFF;}
	.st6{fill:#7760DB;}
	.st7{fill:#FFC359;}
	.st8{fill:#C4B8FF;}
	.st9{fill:none;}
	.st10{fill:#A796F2;}
	.st11{fill:#333854;}
</style>
<path class="st0" d="M889.07,608.99h-695c-89.25-99.25-120.41-211.7-87.89-235.19c44.46-32.12,167.99,92.58,211.49,70.5
	c124.27-63.1-111.93-258.18-30-281.99c75.38-21.9,132.6,156.85,197.44,106.62c44.96-34.83,3.94-91.48,12.17-135.48
	c13.05-69.82,125.64-34,224.46,140.7c41.66,73.64,98.76-63.9,145.33-80.06c43.24-15,114.16,79.06,112.86,205.43
	C979.27,464.39,952.07,538.88,889.07,608.99z"/>
<g>
	<polygon class="st1" points="561.62,456.58 605.56,607.99 610.61,607.99 574.68,456.58 	"/>
	<polygon class="st1" points="515.67,456.58 471.73,607.99 466.68,607.99 502.61,456.58 	"/>
</g>
<circle class="st2" cx="538.64" cy="427.08" r="74"/>
<path class="st3" d="M610.3,449.29l-1.91-0.59c2.16-6.97,3.25-14.25,3.25-21.62c0-10.96-2.37-21.49-7.04-31.31l1.81-0.86
	c4.8,10.09,7.23,20.91,7.23,32.17C613.64,434.65,612.52,442.12,610.3,449.29z"/>
<path class="st3" d="M516.34,498.71c-27.32-8.5-47.69-32.26-51.88-60.52l1.98-0.29c4.08,27.51,23.9,50.64,50.5,58.91L516.34,498.71z
	"/>
<path class="st3" d="M604.67,462.69l-1.76-0.95c1.26-2.33,2.4-4.76,3.4-7.21l1.85,0.75C607.14,457.8,605.96,460.3,604.67,462.69z"/>
<g>
	<path class="st3" d="M378.58,556.59c-8.05,0-14.6-6.55-14.6-14.6c0-8.05,6.55-14.6,14.6-14.6c8.05,0,14.6,6.55,14.6,14.6
		C393.18,550.04,386.63,556.59,378.58,556.59z M378.58,529.39c-6.95,0-12.6,5.65-12.6,12.6c0,6.95,5.65,12.6,12.6,12.6
		c6.95,0,12.6-5.65,12.6-12.6C391.18,535.04,385.53,529.39,378.58,529.39z"/>
	<rect x="330.58" y="541.99" class="st4" width="96" height="66"/>
	<rect x="416.58" y="541.99" class="st3" width="10" height="66"/>
	<rect x="330.58" y="573.99" class="st3" width="86" height="2"/>
	<rect x="366.58" y="573.99" class="st5" width="14" height="9"/>
</g>
<path class="st3" d="M575.11,454.72c0,4.83-0.94,9.43-2.64,13.65h-67.64c-1.7-4.22-2.64-8.82-2.64-13.65
	c0-20.14,16.32-36.46,36.46-36.46C558.78,418.26,575.11,434.58,575.11,454.72z"/>
<circle class="st3" cx="538.64" cy="454.72" r="10"/>
<ellipse transform="matrix(0.8788 -0.4771 0.4771 0.8788 -114.1166 344.1917)" class="st6" cx="620.6" cy="396.77" rx="13.64" ry="13.64"/>
<polygon class="st7" points="556.32,378.03 614.19,408.82 629.21,386.19 578.34,344.86 "/>
<ellipse transform="matrix(0.9545 -0.2981 0.2981 0.9545 -81.7088 185.0279)" class="st7" cx="565.71" cy="360.37" rx="20" ry="20"/>
<polygon class="st7" points="522.96,376.82 469.07,414.14 451.51,393.42 497.22,346.44 "/>
<ellipse transform="matrix(0.0623 -0.9981 0.9981 0.0623 120.0406 848.5111)" class="st7" cx="511.58" cy="360.37" rx="20" ry="20"/>
<circle class="st3" cx="516.49" cy="468.37" r="13.65"/>
<circle class="st3" cx="560.78" cy="468.37" r="13.65"/>
<path class="st7" d="M579.99,355.06l-4.89,99.66h-72.92l-4.89-99.66c-0.39-7.99,5.98-14.69,13.98-14.69h54.73
	C574.01,340.37,580.39,347.07,579.99,355.06z"/>
<path class="st3" d="M575.1,454.72l-0.67,13.65l-0.03,0.67c-0.36,7.27-6.36,12.98-13.63,12.98h-44.25
	c-7.28,0-13.28-5.71-13.63-12.98l-0.03-0.67l-0.67-13.65H575.1z"/>
<ellipse transform="matrix(0.6903 -0.7235 0.7235 0.6903 -257.3466 594.7133)" class="st3" cx="566.07" cy="597.99" rx="8.44" ry="8.44"/>
<circle class="st3" cx="562.96" cy="470.66" r="11.57"/>
<polygon class="st3" points="557.64,597.99 551.39,470.66 574.52,470.66 574.52,597.99 "/>
<path class="st4" d="M583.01,607.99h-25.38v-10h16.89l9.69,5.29c0.81,0.44,1.31,1.29,1.31,2.2l0,0
	C585.52,606.86,584.4,607.99,583.01,607.99z"/>
<ellipse transform="matrix(0.224 -0.9746 0.9746 0.224 4.0098 982.5604)" class="st3" cx="619.01" cy="488.76" rx="8.44" ry="8.44"/>
<path class="st3" d="M501.89,438.09c6.02,2.14,9.16,8.76,7.02,14.77c-2.14,6.02-8.76,9.16-14.77,7.02
	c-6.02-2.14-9.16-8.76-7.02-14.77C489.26,439.09,495.87,435.95,501.89,438.09z"/>
<polygon class="st3" points="616.18,496.7 494.13,459.89 501.89,438.09 621.85,480.8 "/>
<path class="st4" d="M622.75,508.08l8.51-23.91l-9.42-3.35l-5.66,15.91l1.73,10.9c0.14,0.91,0.77,1.66,1.64,1.97l0,0
	C620.85,510.06,622.28,509.38,622.75,508.08z"/>
<rect x="528.43" y="313.31" transform="matrix(0.9983 0.0578 -0.0578 0.9983 19.8121 -30.7421)" class="st4" width="25" height="27.09"/>
<path class="st4" d="M552.62,341.1c-0.4,6.89-6.31,12.16-13.2,11.76c-6.89-0.4-12.16-6.31-11.76-13.2
	c0.4-6.89,6.31-12.16,13.2-11.76C547.76,328.29,553.02,334.2,552.62,341.1z"/>
<polygon class="st3" points="505.91,476.99 489.05,456.3 505.73,440.38 525.61,458.21 "/>
<g>
	<polygon class="st1" points="368.72,416.58 367.67,426.58 347.78,607.99 342.73,607.99 357.66,416.58 	"/>
	<polygon class="st1" points="835.31,416.58 836.36,426.58 856.25,607.99 861.3,607.99 846.37,416.58 	"/>
</g>
<rect x="346.88" y="416.58" class="st6" width="508.49" height="10"/>
<circle class="st7" cx="461.3" cy="402.92" r="13.64"/>
<g>
	<defs>
		<polygon id="SVGID_1_" points="666.69,416.58 570.69,416.58 573.88,348.08 669.88,348.08 		"/>
	</defs>
	<clipPath id="SVGID_2_">
		<use xlink:href="#SVGID_1_"  style="overflow:visible;"/>
	</clipPath>
</g>
<rect x="548.94" y="410.58" class="st3" width="48" height="6"/>
<polygon class="st8" points="692.25,348.08 689.76,401.51 689.06,416.58 593.06,416.58 596.25,348.08 "/>
<ellipse transform="matrix(0.7153 -0.6988 0.6988 0.7153 -84.206 557.977)" class="st5" cx="642.66" cy="382.33" rx="7.17" ry="6.84"/>
<polygon class="st1" points="689.76,401.51 689.06,416.58 593.06,416.58 "/>
<path class="st3" d="M567.51,294.15l-3.62,0.29l-1.97-24.46l3.62-0.29c6.75-0.54,12.67,4.49,13.21,11.24l0,0
	C579.29,287.69,574.26,293.6,567.51,294.15z"/>
<path class="st3" d="M539.58,319.65l-9.06,0.73c-5,0.4-9.39-3.33-9.79-8.33l-0.8-9.92l18.12-1.46L539.58,319.65z"/>
<path class="st3" d="M565.01,293.71l-9.84,0.79l-2.53-31.48l8.79-0.71c6-0.48,11.26,3.99,11.75,10l0.87,10.78
	C574.48,288.52,570.43,293.28,565.01,293.71z"/>
<path class="st4" d="M564.33,326.93l-32.16,2.59l-2.92-36.22c-0.89-11.02,7.32-20.67,18.34-21.55l0,0
	c10.64-0.86,20.08,6.79,21.45,17.38l3.57,27.58C573.28,321.85,569.51,326.51,564.33,326.93z"/>
<path class="st9" d="M571.26,306.26l-2.22-17.15L571.26,306.26z"/>
<path class="st3" d="M535.52,269.29l2.71-0.22l2.75,34.1l-20.83,1.68l-1.29-15.99C518.06,278.86,525.51,270.09,535.52,269.29z"/>
<path class="st4" d="M530.38,307.44l5.44-0.44l-0.44-5.44c-0.24-3-2.87-5.24-5.87-5l0,0c-3,0.24-5.24,2.87-5,5.87l0,0
	C524.75,305.45,527.38,307.69,530.38,307.44z"/>
<path class="st3" d="M571.45,283.4l-20.64,1.66c-8.41,0.68-15.8-5.61-16.48-14.02c-0.32-4,2.66-7.51,6.66-7.83
	c4-0.32,7.51,2.66,7.83,6.66c0.03,0.42,0.4,0.73,0.82,0.7l20.64-1.66L571.45,283.4z"/>
<path class="st3" d="M563.16,276.77l-10.27,0.83c-4,0.32-7.51-2.66-7.83-6.66c-0.32-4,2.66-7.51,6.66-7.83l10.27-0.83
	c4-0.32,7.51,2.66,7.83,6.66C570.15,272.94,567.16,276.45,563.16,276.77z"/>
<path class="st3" d="M573.56,324c0.53,4.12-2.49,7.85-6.63,8.19l-14.4,1.16c-8,0.64-15.02-5.32-15.66-13.33l-1.37-16.97l5.43-0.44
	l0,0c0.27,3.34,3.19,5.82,6.53,5.55l23.8-1.92L573.56,324z"/>
<g>
	<path class="st4" d="M561.68,406.31c-1.24-4.24-5.68-6.67-9.92-5.43c-4.24,1.24-6.67,5.68-5.43,9.92c1.24,4.24,5.68,6.67,9.92,5.43
		C560.49,414.99,562.92,410.55,561.68,406.31z"/>
	<path class="st4" d="M545.77,408.88c0.93,3.18-0.89,6.51-4.07,7.44c-3.18,0.93-6.51-0.89-7.44-4.07c-0.93-3.18,0.89-6.51,4.07-7.44
		C541.51,403.87,544.84,405.7,545.77,408.88z"/>
	<polygon class="st4" points="554,416.56 540.02,416.56 538.33,404.8 551.76,400.88 	"/>
</g>
<polygon class="st7" points="463.92,389.54 541.16,404.68 540.01,416.57 535.96,416.57 529.97,416.57 461.31,416.58 "/>
<polygon class="st4" points="540.02,416.57 541.17,404.67 535.96,403.65 535.96,416.57 "/>
<rect x="492.5" y="390.54" class="st7" width="11.33" height="11.33"/>
<rect x="509.54" y="372.76" transform="matrix(0.1922 -0.9814 0.9814 0.1922 21.1678 823.0653)" class="st5" width="2" height="51.82"/>
<rect x="532.25" y="453.32" transform="matrix(0.2888 -0.9574 0.9574 0.2888 -72.3358 845.9963)" class="st6" width="2" height="36.73"/>
<g>
	<path class="st8" d="M206.56,280.71c-2.94,13.63-7.87,26.75-11.8,40.12c-4.05,13.77-8.14,27.77-8.09,42.12
		c0.06,18.66,7.47,37.2,20.28,50.78c5.02,5.32,10.88,9.97,14.75,16.17c3.87,6.21,5.29,14.73,0.97,20.63
		c-6.23,8.51-19.56,6.67-28.67,11.99c-11.47,6.7-13.07,23.77-6.53,35.33s36.33,44.64,78.83,36.45
		c19.02-3.67,44.81-21.77,44.07-41.13c-0.77-20.16-20.01-36.48-19.36-56.65c0.43-13.21,9.31-24.37,17-35.12
		c7.69-10.75,14.85-23.85,11.31-36.58c-5.21-18.74-29.35-24.53-41.04-40.08c-7.53-10.01-9.18-23.18-9.65-35.7
		c-0.47-12.52-0.15-25.35-4.32-37.16C254.19,223.24,218.23,226.66,206.56,280.71z"/>
</g>
<rect x="250.23" y="352.74" class="st3" width="2" height="217.25"/>
<path class="st3" d="M252.22,415.52l-1.97-0.33c3.23-19.65,25.59-31.88,26.54-32.39l0.95,1.76
	C277.5,384.69,255.29,396.84,252.22,415.52z"/>
<path class="st3" d="M250.24,501.07c-2.18-13.27-18.02-21.94-18.18-22.03l0.95-1.76c0.69,0.37,16.86,9.21,19.21,23.47L250.24,501.07
	z"/>
<path class="st7" d="M262.31,607.99h-22.51c-13.67,0-24.75-11.08-24.75-24.75v-20.75h72v20.75
	C287.06,596.91,275.98,607.99,262.31,607.99z"/>
<path class="st3" d="M227.84,606.05c-8.5-4.47-13.78-13.21-13.78-22.8v-7.63h2v7.63c0,8.85,4.87,16.91,12.71,21.03L227.84,606.05z"
	/>
<rect x="215.06" y="568.99" class="st5" width="72" height="2"/>
<rect x="96.68" y="607.99" class="st8" width="912.39" height="2"/>
<g>
	<path class="st1" d="M547.02,623.99h213.14H547.02z"/>
	<rect x="547.02" y="622.99" class="st8" width="213.14" height="2"/>
</g>
<g>
	<path class="st1" d="M707.71,639.23h133.64H707.71z"/>
	<rect x="707.71" y="638.23" class="st8" width="133.64" height="2"/>
</g>
<g>
	<path class="st1" d="M475.26,639.23H651.6H475.26z"/>
	<rect x="475.26" y="638.23" class="st8" width="176.34" height="2"/>
</g>
<g>
	<path class="st1" d="M820.24,624.23h63.84H820.24z"/>
	<rect x="820.24" y="623.23" class="st8" width="63.84" height="2"/>
</g>
<g>
	<path class="st1" d="M384.24,623.99h129.25H384.24z"/>
	<rect x="384.24" y="622.99" class="st8" width="129.25" height="2"/>
</g>
<rect x="241.2" y="561.49" class="st3" width="45.86" height="2"/>
<path class="st0" d="M712.05,143.62c0.7-6.3,2.53-10.59,6.89-12.95c12.93-7.01,45.36,4.36,58.85,21.91
	c18.81,24.47,1.65,62.09-16.62,64.5C739.91,219.87,708.45,176.12,712.05,143.62z"/>
<path class="st5" d="M568.83,311.4c0.27,3.03-1.97,5.7-4.99,5.96c-3.03,0.27-5.7-1.97-5.96-4.99L568.83,311.4z"/>
<g>
	
		<ellipse transform="matrix(0.1612 -0.9869 0.9869 0.1612 146.8366 1211.9347)" class="st5" cx="786.36" cy="519.59" rx="19.29" ry="19.29"/>
	<path class="st3" d="M786.36,539.88c-11.19,0-20.29-9.1-20.29-20.29c0-11.19,9.1-20.29,20.29-20.29c11.19,0,20.29,9.1,20.29,20.29
		C806.65,530.78,797.54,539.88,786.36,539.88z M786.36,501.3c-10.09,0-18.29,8.21-18.29,18.29c0,10.09,8.21,18.29,18.29,18.29
		c10.09,0,18.29-8.21,18.29-18.29C804.65,509.5,796.44,501.3,786.36,501.3z"/>
</g>
<g>
	
		<ellipse transform="matrix(0.9225 -0.3859 0.3859 0.9225 -144.0707 334.742)" class="st5" cx="761.7" cy="526.2" rx="13.88" ry="13.88"/>
	<path class="st3" d="M761.7,541.09c-8.21,0-14.88-6.68-14.88-14.88c0-8.21,6.68-14.88,14.88-14.88c8.21,0,14.88,6.68,14.88,14.88
		C776.58,534.41,769.91,541.09,761.7,541.09z M761.7,513.32c-7.1,0-12.88,5.78-12.88,12.88s5.78,12.88,12.88,12.88
		c7.1,0,12.88-5.78,12.88-12.88S768.8,513.32,761.7,513.32z"/>
</g>
<polygon class="st10" points="811.81,521.59 810.5,531.66 810.25,533.66 806.69,561.14 802.35,594.57 801.92,597.91 800.61,607.99 
	744.34,607.99 743.03,597.91 742.77,595.91 739.62,571.59 734.7,533.66 734.45,531.66 733.14,521.59 "/>
<g>
	<rect x="776.86" y="348.08" class="st2" width="21" height="68.5"/>
	<rect x="783.86" y="355.08" class="st5" width="7" height="27.75"/>
	<path class="st3" d="M791.36,399.7c0,2.21-1.79,4-4,4c-2.21,0-4-1.79-4-4c0-2.21,1.79-4,4-4
		C789.57,395.7,791.36,397.49,791.36,399.7z"/>
	<rect x="755.86" y="348.08" class="st10" width="21" height="68.5"/>
	<rect x="762.86" y="355.08" class="st5" width="7" height="27.75"/>
	<path class="st3" d="M770.36,399.7c0,2.21-1.79,4-4,4c-2.21,0-4-1.79-4-4c0-2.21,1.79-4,4-4
		C768.57,395.7,770.36,397.49,770.36,399.7z"/>
	<rect x="734.86" y="348.08" class="st7" width="21" height="68.5"/>
	<rect x="741.86" y="355.08" class="st5" width="7" height="27.75"/>
	<path class="st3" d="M749.36,399.7c0,2.21-1.79,4-4,4c-2.21,0-4-1.79-4-4c0-2.21,1.79-4,4-4
		C747.57,395.7,749.36,397.49,749.36,399.7z"/>
</g>
<path class="st3" d="M405.94,289.36c-26.35,0-47.79-21.44-47.79-47.79c0-26.35,21.44-47.79,47.79-47.79
	c26.35,0,47.79,21.44,47.79,47.79C453.73,267.92,432.29,289.36,405.94,289.36z M405.94,195.78c-25.25,0-45.79,20.54-45.79,45.79
	c0,25.25,20.54,45.79,45.79,45.79c25.25,0,45.79-20.54,45.79-45.79C451.73,216.32,431.19,195.78,405.94,195.78z"/>
<g>
	<circle class="st6" cx="405.94" cy="241.57" r="40"/>
	<path class="st5" d="M405.94,282.57c-22.61,0-41-18.39-41-41c0-22.61,18.39-41,41-41c22.61,0,41,18.39,41,41
		C446.94,264.18,428.54,282.57,405.94,282.57z M405.94,202.57c-21.5,0-39,17.5-39,39c0,21.5,17.5,39,39,39c21.5,0,39-17.5,39-39
		C444.94,220.07,427.44,202.57,405.94,202.57z"/>
</g>
<g>
	<g>
		<g>
			<path class="st11" d="M405.94,201.57v8.41V201.57z"/>
			<rect x="404.94" y="201.57" class="st5" width="2" height="8.41"/>
		</g>
		<g>
			<path class="st11" d="M405.94,273.16v8.41V273.16z"/>
			<rect x="404.94" y="273.16" class="st5" width="2" height="8.41"/>
		</g>
	</g>
	<g>
		<g>
			<path class="st11" d="M385.94,206.93l4.21,7.29L385.94,206.93z"/>
			<rect x="387.04" y="206.37" transform="matrix(0.866 -0.5 0.5 0.866 -53.2995 222.2278)" class="st5" width="2" height="8.41"/>
		</g>
		<g>
			<path class="st11" d="M421.73,268.93l4.21,7.29L421.73,268.93z"/>
			<rect x="422.83" y="268.36" transform="matrix(0.866 -0.5 0.5 0.866 -79.5015 248.4247)" class="st5" width="2" height="8.41"/>
		</g>
	</g>
	<g>
		<g>
			<path class="st11" d="M371.3,221.57l7.29,4.21L371.3,221.57z"/>
			<rect x="373.94" y="219.47" transform="matrix(0.5 -0.866 0.866 0.5 -6.2346 436.552)" class="st5" width="2" height="8.41"/>
		</g>
		<g>
			<path class="st11" d="M433.29,257.37l7.29,4.21L433.29,257.37z"/>
			<rect x="435.94" y="255.26" transform="matrix(0.5 -0.866 0.866 0.5 -6.238 508.1329)" class="st5" width="2" height="8.41"/>
		</g>
	</g>
	<g>
		<g>
			<path class="st11" d="M365.94,241.57h8.41H365.94z"/>
			<rect x="365.94" y="240.57" class="st5" width="8.41" height="2"/>
		</g>
		<g>
			<path class="st11" d="M437.52,241.57h8.41H437.52z"/>
			<rect x="437.52" y="240.57" class="st5" width="8.41" height="2"/>
		</g>
	</g>
	<g>
		<g>
			<path class="st11" d="M371.3,261.57l7.29-4.21L371.3,261.57z"/>
			
				<rect x="370.73" y="258.47" transform="matrix(0.8661 -0.4999 0.4999 0.8661 -79.4978 222.1808)" class="st5" width="8.41" height="2"/>
		</g>
		<g>
			<path class="st11" d="M433.29,225.78l7.29-4.21L433.29,225.78z"/>
			
				<rect x="432.73" y="222.68" transform="matrix(0.8661 -0.4999 0.4999 0.8661 -53.3015 248.3917)" class="st5" width="8.41" height="2"/>
		</g>
	</g>
	<g>
		<g>
			<path class="st11" d="M385.94,276.21l4.21-7.29L385.94,276.21z"/>
			
				<rect x="383.83" y="271.57" transform="matrix(0.4999 -0.8661 0.8661 0.4999 -42.0148 472.3755)" class="st5" width="8.41" height="2"/>
		</g>
		<g>
			<path class="st11" d="M421.73,214.22l4.21-7.29L421.73,214.22z"/>
			
				<rect x="419.63" y="209.57" transform="matrix(0.4999 -0.8661 0.8661 0.4999 29.5775 472.3724)" class="st5" width="8.41" height="2"/>
		</g>
	</g>
	<polygon class="st5" points="424.94,242.57 404.94,242.57 404.94,217.2 406.94,217.2 406.94,240.57 424.94,240.57 	"/>
</g>
<polygon class="st2" points="422.44,416.77 407.94,416.77 405.94,385.97 424.44,385.97 "/>
<g>
	<path class="st5" d="M423.4,365.99c0,5.05-4.1,9.15-9.15,9.15v-7.56c-6.57,0-11.89-5.32-11.89-11.89c0-6.56,5.32-11.88,11.89-11.88
		v13.02C419.3,356.83,423.4,360.93,423.4,365.99z"/>
	<path class="st3" d="M414.25,376.14h-1v-7.59c-6.64-0.51-11.89-6.08-11.89-12.85c0-7.1,5.78-12.88,12.89-12.88h1v13.07
		c5.13,0.5,9.15,4.85,9.15,10.11C424.4,371.58,419.85,376.14,414.25,376.14z M413.25,344.86c-5.54,0.51-9.89,5.17-9.89,10.84
		c0,6,4.88,10.89,10.89,10.89h1v7.49c4.02-0.49,7.15-3.93,7.15-8.09c0-4.5-3.66-8.16-8.15-8.16h-1V344.86z"/>
</g>
<polygon class="st8" points="806.69,561.14 802.35,594.57 801.92,597.91 800.61,607.99 744.34,607.99 743.03,597.91 742.77,595.91 
	739.62,571.59 "/>
<g>
	<polygon class="st5" points="751.64,596.82 749.65,597 749.55,595.91 743.81,533.66 743.73,532.75 745.73,532.57 745.83,533.66 
		751.56,595.91 	"/>
	
		<rect x="756.61" y="532.61" transform="matrix(0.9985 -0.055 0.055 0.9985 -29.9076 42.5097)" class="st5" width="2" height="64.35"/>
	
		<rect x="766.53" y="532.66" transform="matrix(0.9998 -0.0181 0.0181 0.9998 -10.1131 14.0076)" class="st5" width="2" height="64.26"/>
	
		<rect x="745.32" y="563.79" transform="matrix(0.0185 -0.9998 0.9998 0.0185 198.3442 1331.6326)" class="st5" width="64.26" height="2"/>
	
		<rect x="755.2" y="563.79" transform="matrix(0.0557 -0.9984 0.9984 0.0557 179.5928 1319.4701)" class="st5" width="64.35" height="2"/>
	<polygon class="st5" points="801.28,532.75 801.2,533.66 795.42,595.91 795.32,597 793.33,596.82 793.41,595.91 799.19,533.66 
		799.29,532.57 	"/>
	<path class="st5" d="M734.46,531.66l0.25,2h75.55l0.25-2H734.46z M802.18,595.91h-59.4l0.26,2h58.89l0.43-3.34v-0.05L802.18,595.91
		z"/>
</g>
<rect x="560.37" y="381.33" transform="matrix(0.0464 -0.9989 0.9989 0.0464 185.1528 958.6088)" class="st5" width="68.57" height="2"/>
<g>
	<path class="st0" d="M346.88,426.58h133.94H346.88z"/>
	<rect x="346.88" y="425.58" class="st3" width="133.94" height="2"/>
</g>
<g>
	<path class="st0" d="M545.68,426.58h221.86H545.68z"/>
	<rect x="545.67" y="425.58" class="st3" width="221.86" height="2"/>
</g>
<g>
	<path class="st0" d="M797.86,426.58h57.51H797.86z"/>
	<rect x="797.86" y="425.58" class="st3" width="57.51" height="2"/>
</g>
<g>
	<path class="st0" d="M778.51,426.58h9.23H778.51z"/>
	<rect x="778.51" y="425.58" class="st3" width="9.23" height="2"/>
</g>
<g>
	<path class="st0" d="M733.14,521.59h29.22H733.14z"/>
	<rect x="733.14" y="520.59" class="st3" width="29.22" height="2"/>
</g>
<g>
	<path class="st0" d="M767.06,608.99h56.51H767.06z"/>
	<rect x="767.06" y="607.99" class="st3" width="56.51" height="2"/>
</g>
<g>
	<path class="st0" d="M367.84,608.99h123.21H367.84z"/>
	<rect x="367.84" y="607.99" class="st3" width="123.21" height="2"/>
</g>
<g>
	<path class="st0" d="M251.95,608.99h46.12H251.95z"/>
	<rect x="251.95" y="607.99" class="st3" width="46.12" height="2"/>
</g>
<g>
	<path class="st0" d="M737.64,608.99h15.93H737.64z"/>
	<rect x="737.64" y="607.99" class="st3" width="15.93" height="2"/>
</g>
<g>
	<g>
		<path class="st8" d="M596.94,214.56c-1.31,0-2.62-0.12-3.92-0.36c-3.94-0.73-6.79-4.16-6.79-8.17v-1.39h2v1.39
			c0,3.04,2.17,5.65,5.16,6.2c2.36,0.44,4.75,0.44,7.11,0c2.99-0.55,5.16-3.16,5.16-6.2c0-2.76-1.77-5.17-4.4-6.01l-9.24-2.93
			c-3.46-1.1-5.79-4.28-5.79-7.92c0-4,2.86-7.44,6.79-8.17c2.6-0.48,5.24-0.48,7.84,0c3.94,0.73,6.79,4.16,6.79,8.17v1.39h-2v-1.39
			c0-3.04-2.17-5.65-5.16-6.2c-2.36-0.44-4.75-0.44-7.11,0c-2.99,0.55-5.16,3.16-5.16,6.2c0,2.76,1.77,5.18,4.4,6.01l9.24,2.93
			c3.46,1.1,5.79,4.28,5.79,7.92c0,4-2.86,7.44-6.79,8.17C599.56,214.44,598.25,214.56,596.94,214.56z"/>
		<rect x="595.94" y="175.57" class="st8" width="2" height="6.08"/>
		<rect x="595.94" y="213.5" class="st8" width="2" height="6.08"/>
	</g>
	<path class="st8" d="M596.94,230.93c-18.39,0-33.36-14.97-33.36-33.36s14.97-33.36,33.36-33.36c18.39,0,33.36,14.97,33.36,33.36
		S615.34,230.93,596.94,230.93z M596.94,166.21c-17.29,0-31.36,14.07-31.36,31.36s14.07,31.36,31.36,31.36
		c17.29,0,31.36-14.07,31.36-31.36S614.23,166.21,596.94,166.21z"/>
</g>
<g>
	<g>
		<path class="st5" d="M980.55,251.29l-23.18,48.22l-16.26-12.65l38.6-35.12c0.04-0.04,0-0.1-0.05-0.08l-51.48,25.14l-12.69-9.87
			l64.86-15.88C980.5,251,980.62,251.15,980.55,251.29z"/>
		<path class="st8" d="M957.74,301.05l-18.17-14.14l34.55-31.43l-46.04,22.49l-14.81-11.52l66.86-16.37
			c0.42-0.11,0.89,0.04,1.18,0.39c0.29,0.35,0.35,0.85,0.16,1.26L957.74,301.05z M942.67,286.79l14.34,11.16l20.68-43.03
			L942.67,286.79z M917.74,267.4l10.57,8.22l44.4-21.68L917.74,267.4z"/>
	</g>
	<g>
		<path class="st5" d="M979.72,251.73l-38.6,35.12l-10.66,9.7c-0.85,0.77-2.22,0.17-2.22-0.98l-0.04-18.77v0l51.48-25.14
			C979.72,251.63,979.76,251.69,979.72,251.73z"/>
		<path class="st8" d="M929.57,297.9c-0.32,0-0.64-0.07-0.95-0.2c-0.85-0.38-1.39-1.19-1.39-2.12l-0.05-19.4l0.56-0.28l52.24-25.51
			l1.05,1.4l-0.64,0.69l-49.26,44.82C930.69,297.69,930.14,297.9,929.57,297.9z M929.19,277.42l0.04,18.15c0,0.19,0.12,0.27,0.2,0.3
			c0.07,0.03,0.22,0.07,0.35-0.06l44.33-40.33L929.19,277.42z"/>
	</g>
</g>
<g>
	<path class="st1" d="M917.1,304.88l-1.07-1.69c2.65-1.67,4.12-2.7,4.13-2.72l1.15,1.63C921.26,302.15,919.8,303.18,917.1,304.88z"
		/>
	<path class="st1" d="M823.33,334.98l-0.01-2c3.21-0.01,6.52-0.15,9.82-0.41l0.16,1.99C829.95,334.83,826.59,334.97,823.33,334.98z
		 M813.35,334.59c-3.35-0.28-6.68-0.7-9.92-1.27l0.35-1.97c3.17,0.56,6.45,0.98,9.74,1.25L813.35,334.59z M843.21,333.4l-0.3-1.98
		c3.18-0.48,6.44-1.09,9.68-1.79l0.43,1.95C849.74,332.3,846.43,332.91,843.21,333.4z M793.68,331.12
		c-3.22-0.89-6.41-1.96-9.49-3.16l0.73-1.86c3.02,1.18,6.15,2.22,9.3,3.09L793.68,331.12z M862.7,329.17l-0.54-1.93
		c3.1-0.87,6.27-1.85,9.42-2.91l0.64,1.89C869.04,327.3,865.83,328.29,862.7,329.17z M775.07,323.9c-2.99-1.42-6.02-2.77-9-4.02
		l0.77-1.84c3.01,1.27,6.07,2.63,9.09,4.06L775.07,323.9z M881.57,322.79l-0.73-1.86c3.01-1.19,6.07-2.48,9.09-3.83l0.82,1.82
		C887.7,320.29,884.62,321.59,881.57,322.79z M756.88,316.28c-3.11-1.13-6.25-2.18-9.35-3.12l0.58-1.91
		c3.13,0.95,6.31,2.02,9.45,3.16L756.88,316.28z M899.74,314.64l-0.9-1.79c2.95-1.48,5.88-3.05,8.71-4.64l0.98,1.74
		C905.68,311.57,902.72,313.14,899.74,314.64z M738.03,310.54c-3.21-0.79-6.45-1.48-9.63-2.06l0.36-1.97
		c3.22,0.59,6.5,1.29,9.75,2.09L738.03,310.54z M669.89,310.13l-0.53-1.93c3.13-0.87,6.41-1.61,9.75-2.21l0.36,1.97
		C676.19,308.55,672.97,309.28,669.89,310.13z M718.66,307.02c-3.28-0.39-6.58-0.67-9.81-0.83l0.1-2c3.27,0.17,6.62,0.45,9.94,0.84
		L718.66,307.02z M689.2,306.61l-0.19-1.99c3.27-0.32,6.62-0.51,9.97-0.58l0.04,2C695.72,306.11,692.42,306.3,689.2,306.61z"/>
	<path class="st1" d="M656.14,315.27l-0.97-1.75c0.07-0.04,1.65-0.91,4.66-2.12l0.75,1.85
		C657.69,314.41,656.15,315.26,656.14,315.27z"/>
</g>
<g>
	<g>
		<path class="st8" d="M724.96,279.39h-53.82v-37.38h53.82V279.39z M673.14,277.39h49.82v-33.38h-49.82V277.39z"/>
		<polygon class="st8" points="698.71,266.47 671.5,243.78 672.78,242.25 698.68,263.84 723.3,242.26 724.62,243.77 		"/>
	</g>
	<g>
		<path class="st5" d="M730.64,243.01c0,3.69-2.99,6.68-6.68,6.68c-3.69,0-6.68-2.99-6.68-6.68s2.99-6.68,6.68-6.68
			C727.65,236.34,730.64,239.33,730.64,243.01z"/>
		<path class="st8" d="M723.96,250.69c-4.23,0-7.68-3.44-7.68-7.68s3.44-7.68,7.68-7.68s7.68,3.44,7.68,7.68
			S728.2,250.69,723.96,250.69z M723.96,237.34c-3.13,0-5.68,2.55-5.68,5.68s2.55,5.68,5.68,5.68s5.68-2.55,5.68-5.68
			S727.09,237.34,723.96,237.34z"/>
	</g>
</g>
<g>
	<g>
		<rect x="900.11" y="360.65" class="st8" width="2" height="5.61"/>
		<rect x="900.11" y="394.31" class="st8" width="2" height="5.61"/>
	</g>
	<g>
		<rect x="891.69" y="362.91" transform="matrix(0.866 -0.5 0.5 0.866 -63.2653 495.298)" class="st8" width="2" height="5.61"/>
		<rect x="908.52" y="392.06" transform="matrix(0.866 -0.5 0.5 0.866 -75.5843 507.6164)" class="st8" width="2" height="5.61"/>
	</g>
	<g>
		<rect x="885.53" y="369.07" transform="matrix(0.5 -0.866 0.866 0.5 121.204 953.6841)" class="st8" width="2" height="5.61"/>
		<rect x="914.68" y="385.9" transform="matrix(0.5 -0.866 0.866 0.5 121.1942 987.3292)" class="st8" width="2" height="5.61"/>
	</g>
	<g>
		<rect x="881.47" y="379.29" class="st8" width="5.61" height="2"/>
		<rect x="915.13" y="379.29" class="st8" width="5.61" height="2"/>
	</g>
	<g>
		
			<rect x="883.73" y="387.7" transform="matrix(0.8661 -0.4999 0.4999 0.8661 -75.591 495.2342)" class="st8" width="5.61" height="2"/>
		
			<rect x="912.87" y="370.87" transform="matrix(0.8661 -0.4999 0.4999 0.8661 -63.2712 507.5763)" class="st8" width="5.61" height="2"/>
	</g>
	<g>
		
			<rect x="889.89" y="393.86" transform="matrix(0.4999 -0.8661 0.8661 0.4999 104.436 970.5965)" class="st8" width="5.61" height="2"/>
		
			<rect x="906.72" y="364.71" transform="matrix(0.4999 -0.8661 0.8661 0.4999 138.0949 970.5923)" class="st8" width="5.61" height="2"/>
	</g>
</g>
<g>
	<g>
		<rect x="493.13" y="112.94" class="st8" width="2" height="5.61"/>
		<rect x="493.13" y="146.6" class="st8" width="2" height="5.61"/>
	</g>
	<g>
		<rect x="484.72" y="115.19" transform="matrix(0.866 -0.5 0.5 0.866 6.0728 258.659)" class="st8" width="2" height="5.61"/>
		<rect x="501.55" y="144.34" transform="matrix(0.866 -0.5 0.5 0.866 -6.2466 270.9785)" class="st8" width="2" height="5.61"/>
	</g>
	<g>
		<rect x="478.56" y="121.35" transform="matrix(0.5 -0.866 0.866 0.5 132.2723 477.4039)" class="st8" width="2" height="5.61"/>
		<rect x="507.71" y="138.18" transform="matrix(0.5 -0.866 0.866 0.5 132.24 511.0299)" class="st8" width="2" height="5.61"/>
	</g>
	<g>
		<rect x="474.5" y="131.57" class="st8" width="5.61" height="2"/>
		<rect x="508.16" y="131.57" class="st8" width="5.61" height="2"/>
	</g>
	<g>
		
			<rect x="476.75" y="139.99" transform="matrix(0.8661 -0.4999 0.4999 0.8661 -6.2547 258.6251)" class="st8" width="5.61" height="2"/>
		
			<rect x="505.9" y="123.16" transform="matrix(0.8661 -0.4999 0.4999 0.8661 6.0625 270.9435)" class="st8" width="5.61" height="2"/>
	</g>
	<g>
		
			<rect x="482.91" y="146.15" transform="matrix(0.4999 -0.8661 0.8661 0.4999 115.4567 494.2488)" class="st8" width="5.61" height="2"/>
		
			<rect x="499.74" y="117" transform="matrix(0.4999 -0.8661 0.8661 0.4999 149.1178 494.2476)" class="st8" width="5.61" height="2"/>
	</g>
</g>
</svg>
