<?xml version="1.0" encoding="UTF-8" standalone="no"?>
<!DOCTYPE svg PUBLIC "-//W3C//DTD SVG 1.1//EN" "http://www.w3.org/Graphics/SVG/1.1/DTD/svg11.dtd">
<svg width="100%" height="100%" viewBox="0 0 1375 330" version="1.1" xmlns="http://www.w3.org/2000/svg" xmlns:xlink="http://www.w3.org/1999/xlink" xml:space="preserve" xmlns:serif="http://www.serif.com/" style="fill-rule:evenodd;clip-rule:evenodd;stroke-linejoin:round;stroke-miterlimit:1.41421;">
    <g transform="matrix(4.16667,0,0,4.16667,0,0)">
        <path d="M12.755,2.891C12.591,3.665 12.158,4.322 11.457,4.862C10.753,5.403 9.954,5.673 9.057,5.673C8.192,5.673 7.515,5.403 7.027,4.862C6.539,4.322 6.377,3.665 6.542,2.891C6.712,2.087 7.156,1.415 7.875,0.874C8.592,0.333 9.384,0.062 10.25,0.062C11.146,0.062 11.831,0.333 12.304,0.874C12.775,1.415 12.927,2.087 12.755,2.891ZM0,34.982L5.312,9.986L10.969,9.986L5.656,34.982L0,34.982Z" style="fill:rgb(0,163,223);fill-rule:nonzero;"/>
        <path d="M39.277,34.982L43.043,17.267C43.148,16.773 43.185,16.27 43.156,15.76C43.125,15.25 42.98,14.802 42.722,14.415C42.464,14.029 42.075,13.712 41.556,13.464C41.037,13.217 40.328,13.093 39.431,13.093C38.503,13.093 37.742,13.156 37.144,13.279C36.544,13.403 35.96,13.573 35.388,13.789L30.884,34.982L25.226,34.982L30.253,11.331C31.546,10.775 33.031,10.334 34.709,10.009C36.384,9.685 38.29,9.523 40.423,9.523C42.278,9.523 43.794,9.731 44.974,10.148C46.153,10.566 47.052,11.13 47.675,11.841C48.296,12.552 48.679,13.365 48.828,14.276C48.973,15.188 48.937,16.154 48.72,17.174L44.935,34.982L39.277,34.982Z" style="fill:rgb(35,31,32);fill-rule:nonzero;"/>
        <path d="M78.371,34.982L82.136,17.267C82.242,16.773 82.279,16.27 82.25,15.76C82.218,15.25 82.074,14.802 81.816,14.415C81.558,14.029 81.168,13.712 80.65,13.464C80.13,13.217 79.421,13.093 78.525,13.093C77.597,13.093 76.835,13.156 76.238,13.279C75.638,13.403 75.054,13.573 74.482,13.789L69.978,34.982L64.32,34.982L69.347,11.331C70.64,10.775 72.125,10.334 73.802,10.009C75.478,9.685 77.383,9.523 79.517,9.523C81.372,9.523 82.888,9.731 84.068,10.148C85.247,10.566 86.146,11.13 86.769,11.841C87.39,12.552 87.773,13.365 87.921,14.276C88.067,15.188 88.031,16.154 87.814,17.174L84.029,34.982L78.371,34.982Z" style="fill:rgb(35,31,32);fill-rule:nonzero;"/>
        <path d="M120.312,22.461C120.568,21.255 120.752,20.096 120.865,18.983C120.979,17.871 120.958,16.872 120.806,15.992C120.652,15.111 120.322,14.408 119.816,13.881C119.309,13.357 118.547,13.093 117.525,13.093C116.537,13.093 115.67,13.357 114.924,13.881C114.178,14.408 113.541,15.111 113.015,15.992C112.486,16.872 112.043,17.871 111.684,18.983C111.322,20.096 111.016,21.255 110.759,22.461C110.509,23.636 110.336,24.773 110.243,25.87C110.148,26.967 110.181,27.941 110.341,28.791C110.5,29.641 110.834,30.322 111.345,30.831C111.854,31.342 112.604,31.597 113.594,31.597C114.613,31.597 115.486,31.342 116.214,30.831C116.94,30.322 117.563,29.641 118.085,28.791C118.605,27.941 119.045,26.967 119.401,25.87C119.758,24.773 120.062,23.636 120.312,22.461ZM125.913,22.507C125.519,24.362 124.938,26.079 124.17,27.655C123.401,29.232 122.469,30.6 121.373,31.759C120.275,32.918 119.01,33.823 117.572,34.472C116.137,35.122 114.537,35.446 112.775,35.446C111.014,35.446 109.553,35.122 108.391,34.472C107.23,33.823 106.348,32.918 105.745,31.759C105.141,30.6 104.79,29.232 104.693,27.655C104.594,26.079 104.743,24.362 105.138,22.507C105.531,20.653 106.113,18.929 106.887,17.336C107.656,15.745 108.59,14.369 109.688,13.209C110.784,12.05 112.051,11.146 113.487,10.496C114.924,9.847 116.523,9.523 118.285,9.523C120.048,9.523 121.51,9.847 122.669,10.496C123.83,11.146 124.72,12.05 125.34,13.209C125.959,14.369 126.307,15.745 126.387,17.336C126.465,18.929 126.307,20.653 125.913,22.507Z" style="fill:rgb(35,31,32);fill-rule:nonzero;"/>
        <path d="M152.664,34.982L147.283,34.982L144.435,9.986L150.464,9.986L151.439,26.124C151.496,27.021 151.453,28.164 151.313,29.556L151.404,29.556C151.879,28.196 152.338,27.052 152.783,26.124L160.713,9.986L166,9.986L152.664,34.982Z" style="fill:rgb(35,31,32);fill-rule:nonzero;"/>
        <path d="M192.672,21.301C191.309,21.457 190.066,21.665 188.943,21.928C187.82,22.191 186.84,22.554 185.998,23.018C185.158,23.481 184.457,24.084 183.898,24.827C183.34,25.569 182.938,26.511 182.695,27.655C182.346,29.293 182.551,30.476 183.309,31.203C184.066,31.929 185.281,32.292 186.949,32.292C187.6,32.292 188.23,32.231 188.844,32.107C189.457,31.984 190.004,31.814 190.482,31.597L192.672,21.301ZM191.256,34.935C189.639,35.276 187.855,35.446 185.908,35.446C182.477,35.446 180.059,34.782 178.656,33.452C177.254,32.123 176.811,30.251 177.322,27.841C177.67,26.202 178.332,24.833 179.309,23.737C180.283,22.64 181.479,21.742 182.893,21.046C184.309,20.351 185.898,19.818 187.662,19.447C189.426,19.076 191.285,18.797 193.242,18.612L193.529,17.267C193.699,16.463 193.719,15.79 193.586,15.25C193.453,14.709 193.203,14.284 192.836,13.975C192.469,13.665 191.998,13.45 191.422,13.326C190.846,13.202 190.186,13.14 189.443,13.14C188.238,13.14 187.051,13.302 185.885,13.626C184.719,13.951 183.709,14.298 182.857,14.67L182.25,11.423C183.139,11.022 184.363,10.605 185.924,10.172C187.484,9.74 189.254,9.523 191.232,9.523C192.531,9.523 193.707,9.669 194.756,9.963C195.807,10.257 196.678,10.745 197.367,11.423C198.059,12.105 198.525,12.993 198.771,14.09C199.018,15.188 198.969,16.54 198.627,18.148L195.336,33.637C194.234,34.164 192.875,34.596 191.256,34.935Z" style="fill:rgb(35,31,32);fill-rule:nonzero;"/>
        <path d="M224.15,35.098C223.631,35.206 223.033,35.26 222.354,35.26C221.115,35.26 220.105,35.067 219.322,34.68C218.539,34.294 217.934,33.791 217.51,33.174C217.084,32.556 216.836,31.836 216.762,31.017C216.688,30.199 216.744,29.356 216.928,28.49L220.092,13.603L217.311,13.603L218.08,9.986L220.861,9.986L222.035,4.467L228.027,2.891L226.52,9.986L230.6,9.986L229.83,13.603L225.75,13.603L222.645,28.211C222.434,29.202 222.477,29.989 222.768,30.577C223.061,31.164 223.701,31.457 224.691,31.457C224.938,31.457 225.166,31.434 225.379,31.388C225.588,31.342 225.824,31.289 226.086,31.226L225.336,34.75C225.063,34.874 224.666,34.99 224.15,35.098Z" style="fill:rgb(35,31,32);fill-rule:nonzero;"/>
        <path d="M256.314,2.891C256.15,3.665 255.717,4.322 255.016,4.862C254.313,5.403 253.512,5.673 252.615,5.673C251.75,5.673 251.074,5.403 250.586,4.862C250.098,4.322 249.938,3.665 250.102,2.891C250.271,2.087 250.715,1.415 251.434,0.874C252.152,0.333 252.943,0.062 253.809,0.062C254.705,0.062 255.391,0.333 255.863,0.874C256.334,1.415 256.486,2.087 256.314,2.891ZM243.559,34.982L248.871,9.986L254.529,9.986L249.215,34.982L243.559,34.982Z" style="fill:rgb(35,31,32);fill-rule:nonzero;"/>
        <path d="M284.598,27.794C284.381,28.814 283.965,29.789 283.35,30.716C282.734,31.644 281.967,32.455 281.047,33.15C280.125,33.846 279.074,34.396 277.891,34.797C276.707,35.198 275.436,35.4 274.076,35.4C272.592,35.4 271.291,35.23 270.174,34.889C269.055,34.549 268.18,34.117 267.551,33.591L269.803,29.974C270.189,30.344 270.76,30.677 271.516,30.971C272.271,31.265 273.162,31.412 274.182,31.412C275.355,31.412 276.363,31.08 277.199,30.414C278.037,29.749 278.563,28.907 278.779,27.887C279.01,26.805 278.902,25.97 278.455,25.382C278.006,24.795 277.188,24.254 275.994,23.759C274.918,23.296 274.066,22.793 273.439,22.251C272.811,21.712 272.354,21.139 272.064,20.537C271.775,19.933 271.621,19.316 271.602,18.681C271.58,18.048 271.641,17.406 271.777,16.756C271.988,15.768 272.373,14.832 272.932,13.951C273.488,13.07 274.186,12.305 275.02,11.656C275.854,11.006 276.797,10.49 277.854,10.102C278.91,9.715 280.041,9.523 281.246,9.523C282.637,9.523 283.832,9.685 284.828,10.009C285.826,10.334 286.67,10.759 287.363,11.285L285.271,14.578C284.967,14.269 284.5,13.959 283.869,13.65C283.24,13.341 282.477,13.186 281.58,13.186C280.404,13.186 279.447,13.51 278.707,14.161C277.967,14.809 277.5,15.582 277.311,16.479C277.092,17.498 277.27,18.303 277.84,18.89C278.412,19.478 279.191,19.988 280.182,20.42C281.283,20.915 282.168,21.441 282.838,21.997C283.508,22.554 283.992,23.141 284.295,23.759C284.596,24.378 284.762,25.019 284.791,25.684C284.818,26.349 284.754,27.052 284.598,27.794Z" style="fill:rgb(35,31,32);fill-rule:nonzero;"/>
        <path d="M22.965,54.511C22.909,54.779 22.768,55.006 22.544,55.194C22.323,55.381 22.08,55.475 21.818,55.475C21.556,55.475 21.354,55.381 21.21,55.194C21.066,55.006 21.024,54.779 21.081,54.511C21.137,54.244 21.277,54.016 21.5,53.829C21.723,53.642 21.965,53.548 22.227,53.548C22.489,53.548 22.692,53.642 22.835,53.829C22.979,54.016 23.022,54.244 22.965,54.511ZM17.39,72.979L20.457,58.552L21.871,58.552L18.804,72.979L17.39,72.979Z" style="fill:rgb(35,31,32);fill-rule:nonzero;"/>
        <path d="M38.281,72.979L40.511,62.487C40.59,62.113 40.627,61.733 40.622,61.349C40.617,60.966 40.519,60.622 40.331,60.32C40.142,60.016 39.85,59.766 39.457,59.57C39.061,59.373 38.515,59.276 37.817,59.276C37.416,59.276 37.068,59.289 36.774,59.316C36.48,59.342 36.206,59.382 35.95,59.436C35.694,59.49 35.455,59.552 35.229,59.623C35.005,59.695 34.778,59.775 34.55,59.864L31.762,72.979L30.348,72.979L33.255,59.302C33.918,58.981 34.646,58.731 35.444,58.552C36.241,58.374 37.172,58.285 38.237,58.285C39.145,58.285 39.866,58.418 40.403,58.686C40.939,58.955 41.335,59.289 41.59,59.69C41.845,60.091 41.991,60.534 42.028,61.015C42.065,61.497 42.038,61.96 41.942,62.407L39.695,72.979L38.281,72.979Z" style="fill:rgb(35,31,32);fill-rule:nonzero;"/>
        <path d="M54.942,73.059C54.348,73.059 53.873,72.957 53.515,72.751C53.156,72.546 52.89,72.283 52.714,71.961C52.538,71.641 52.44,71.28 52.421,70.877C52.401,70.476 52.433,70.08 52.517,69.687L54.702,59.41L53.052,59.41L53.234,58.552L54.883,58.552L55.618,55.1L57.144,54.564L56.296,58.552L58.915,58.552L58.739,59.382L56.121,59.382L53.913,69.768C53.788,70.356 53.83,70.882 54.036,71.347C54.243,71.811 54.721,72.042 55.471,72.042C55.559,72.042 55.655,72.042 55.759,72.042C55.865,72.042 55.964,72.025 56.059,71.989L55.86,72.925C55.579,73.014 55.273,73.059 54.942,73.059Z" style="fill:rgb(35,31,32);fill-rule:nonzero;"/>
        <path d="M76.456,62.005C76.414,61.38 76.277,60.872 76.046,60.48C75.815,60.087 75.492,59.802 75.076,59.623C74.66,59.446 74.164,59.356 73.588,59.356C73.029,59.356 72.481,59.472 71.944,59.704C71.406,59.936 70.906,60.296 70.444,60.788C69.981,61.279 69.562,61.916 69.186,62.701C68.809,63.487 68.506,64.423 68.275,65.511L76.228,64.308C76.421,63.397 76.497,62.63 76.456,62.005ZM68.113,66.395C67.808,68.323 67.964,69.758 68.585,70.704C69.203,71.651 70.22,72.122 71.634,72.122C72.419,72.122 73.11,72.034 73.707,71.855C74.303,71.677 74.798,71.48 75.193,71.266L75.417,72.31C74.979,72.56 74.405,72.779 73.693,72.965C72.981,73.153 72.207,73.247 71.369,73.247C70.513,73.247 69.749,73.108 69.075,72.832C68.401,72.555 67.856,72.119 67.443,71.521C67.028,70.922 66.766,70.147 66.655,69.192C66.543,68.238 66.631,67.081 66.919,65.726C67.189,64.458 67.563,63.357 68.042,62.42C68.519,61.483 69.064,60.707 69.675,60.091C70.286,59.476 70.95,59.021 71.667,58.726C72.383,58.432 73.11,58.285 73.842,58.285C74.592,58.285 75.255,58.41 75.831,58.66C76.407,58.91 76.854,59.307 77.175,59.85C77.495,60.395 77.687,61.095 77.749,61.952C77.811,62.808 77.715,63.834 77.461,65.03L68.113,66.395Z" style="fill:rgb(35,31,32);fill-rule:nonzero;"/>
        <path d="M94.31,59.543C94.015,59.455 93.709,59.396 93.391,59.369C93.074,59.342 92.754,59.347 92.433,59.382C92.112,59.418 91.804,59.486 91.513,59.583C91.221,59.681 90.964,59.802 90.743,59.944L87.972,72.979L86.558,72.979L89.465,59.302C89.814,59.142 90.155,58.995 90.489,58.86C90.823,58.726 91.195,58.62 91.604,58.539C92.014,58.458 92.49,58.397 93.032,58.352C93.573,58.308 94.229,58.285 94.997,58.285L94.31,59.543Z" style="fill:rgb(35,31,32);fill-rule:nonzero;"/>
        <path d="M107.58,54.511C107.523,54.779 107.383,55.006 107.159,55.194C106.937,55.381 106.694,55.475 106.433,55.475C106.171,55.475 105.968,55.381 105.824,55.194C105.681,55.006 105.639,54.779 105.695,54.511C105.752,54.244 105.892,54.016 106.114,53.829C106.338,53.642 106.581,53.548 106.843,53.548C107.104,53.548 107.307,53.642 107.449,53.829C107.594,54.016 107.637,54.244 107.58,54.511ZM102.005,72.979L105.071,58.552L106.485,58.552L103.419,72.979L102.005,72.979Z" style="fill:rgb(35,31,32);fill-rule:nonzero;"/>
        <path d="M130.854,72.979L133.091,62.46C133.174,62.069 133.204,61.68 133.181,61.295C133.157,60.913 133.06,60.574 132.886,60.28C132.714,59.984 132.449,59.748 132.095,59.57C131.739,59.392 131.266,59.302 130.673,59.302C129.312,59.302 128.056,59.829 126.907,60.881L124.336,72.979L122.922,72.979L125.187,62.327C125.38,61.416 125.239,60.68 124.767,60.118C124.292,59.556 123.453,59.276 122.248,59.276C121.585,59.276 121.03,59.321 120.584,59.41C120.137,59.499 119.663,59.65 119.165,59.864L116.377,72.979L114.963,72.979L117.87,59.302C118.184,59.142 118.506,58.998 118.838,58.873C119.171,58.749 119.521,58.642 119.889,58.552C120.257,58.463 120.659,58.397 121.097,58.352C121.532,58.308 122.022,58.285 122.563,58.285C123.628,58.285 124.456,58.451 125.051,58.78C125.644,59.11 126.096,59.57 126.407,60.158C127.052,59.587 127.764,59.133 128.543,58.793C129.321,58.455 130.155,58.285 131.046,58.285C131.884,58.285 132.553,58.418 133.055,58.686C133.557,58.955 133.931,59.289 134.177,59.69C134.423,60.091 134.563,60.539 134.599,61.029C134.634,61.519 134.606,61.979 134.516,62.407L132.269,72.979L130.854,72.979Z" style="fill:rgb(35,31,32);fill-rule:nonzero;"/>
        <path d="M167.242,64.495C166.182,64.637 165.226,64.807 164.372,65.003C163.519,65.2 162.781,65.467 162.159,65.806C161.538,66.145 161.026,66.582 160.624,67.118C160.222,67.653 159.936,68.323 159.765,69.124C159.519,70.286 159.674,71.115 160.23,71.614C160.788,72.114 161.651,72.364 162.82,72.364C163.326,72.364 163.835,72.314 164.344,72.216C164.853,72.119 165.304,71.971 165.694,71.775L167.242,64.495ZM164.931,72.965C164.166,73.153 163.34,73.247 162.449,73.247C160.722,73.247 159.546,72.864 158.925,72.095C158.302,71.329 158.12,70.339 158.378,69.124C158.583,68.161 158.959,67.354 159.508,66.703C160.056,66.052 160.729,65.521 161.521,65.11C162.315,64.701 163.217,64.378 164.228,64.146C165.235,63.915 166.302,63.745 167.424,63.638L167.635,62.648C167.771,62.005 167.797,61.469 167.714,61.041C167.631,60.614 167.464,60.27 167.214,60.011C166.963,59.753 166.639,59.575 166.24,59.476C165.843,59.377 165.398,59.329 164.91,59.329C164.229,59.329 163.584,59.432 162.973,59.636C162.362,59.842 161.851,60.051 161.438,60.266L161.245,59.329C161.657,59.115 162.229,58.888 162.961,58.646C163.692,58.406 164.47,58.285 165.29,58.285C165.882,58.285 166.439,58.357 166.959,58.498C167.479,58.642 167.915,58.883 168.271,59.222C168.627,59.561 168.876,60.011 169.018,60.574C169.16,61.135 169.142,61.836 168.964,62.674L166.933,72.229C166.362,72.533 165.695,72.779 164.931,72.965Z" style="fill:rgb(35,31,32);fill-rule:nonzero;"/>
        <path d="M188.792,59.676C188.532,59.499 188.206,59.373 187.811,59.302C187.416,59.231 186.982,59.195 186.511,59.195C185.708,59.195 184.979,59.361 184.325,59.69C183.67,60.021 183.092,60.485 182.59,61.081C182.087,61.68 181.659,62.398 181.307,63.237C180.953,64.076 180.671,64.995 180.459,65.994C180.041,67.956 180.063,69.491 180.527,70.597C180.99,71.704 181.981,72.256 183.5,72.256C184.023,72.256 184.526,72.189 185.008,72.055C185.49,71.921 185.909,71.757 186.266,71.561L188.792,59.676ZM186.421,75.696C186.056,76.382 185.608,76.971 185.077,77.462C184.545,77.953 183.937,78.332 183.251,78.6C182.566,78.867 181.821,79 181.019,79C180.146,79 179.4,78.916 178.782,78.747C178.164,78.578 177.666,78.349 177.291,78.065L178.058,77.047C178.36,77.261 178.776,77.458 179.307,77.636C179.836,77.815 180.414,77.905 181.042,77.905C181.74,77.905 182.358,77.792 182.894,77.569C183.431,77.346 183.896,77.042 184.292,76.66C184.688,76.276 185.011,75.82 185.263,75.294C185.514,74.768 185.704,74.201 185.833,73.594L186.072,72.471C185.694,72.685 185.234,72.859 184.691,72.993C184.147,73.126 183.563,73.193 182.935,73.193C182.097,73.193 181.378,73.023 180.777,72.685C180.178,72.346 179.709,71.865 179.37,71.24C179.031,70.615 178.834,69.861 178.777,68.978C178.72,68.094 178.81,67.1 179.045,65.994C179.283,64.87 179.63,63.834 180.085,62.888C180.538,61.944 181.091,61.131 181.741,60.454C182.392,59.775 183.128,59.244 183.951,58.86C184.775,58.477 185.685,58.285 186.679,58.285C187.604,58.285 188.355,58.383 188.933,58.58C189.511,58.776 189.947,58.998 190.244,59.248L187.24,73.38C187.058,74.237 186.784,75.009 186.421,75.696Z" style="fill:rgb(35,31,32);fill-rule:nonzero;"/>
        <path d="M329.108,19.902L314.05,34.962L298.995,19.902L314.05,4.848L329.108,19.902Z" style="fill:rgb(0,163,223);fill-rule:nonzero;"/>
    </g>
</svg>
