<?xml version="1.0" encoding="utf-8"?>
<!-- Generator: Adobe Illustrator 27.1.1, SVG Export Plug-In . SVG Version: 6.00 Build 0)  -->
<svg version="1.1" id="Ebene_1" xmlns="http://www.w3.org/2000/svg" xmlns:xlink="http://www.w3.org/1999/xlink" x="0px" y="0px"
	 viewBox="0 0 329.9 81.1" style="enable-background:new 0 0 329.9 81.1;" xml:space="preserve">
<style type="text/css">
	.st0{clip-path:url(#SVGID_00000004504589846020154840000003152615039463257231_);}
	.st1{clip-path:url(#SVGID_00000178899765379614009540000009061611837150168967_);fill:#31417B;}
	.st2{clip-path:url(#SVGID_00000060009779489871064410000001843568477180447619_);}
	.st3{clip-path:url(#SVGID_00000163068632056572616820000010530589062288274843_);}
	.st4{clip-path:url(#SVGID_00000167368065735975338400000004070090832638097591_);}
	.st5{clip-path:url(#SVGID_00000173854211626524088510000001097981602306938789_);}
	.st6{clip-path:url(#SVGID_00000111192927498872028320000010971887845299206832_);}
	.st7{clip-path:url(#SVGID_00000121278301602266784530000014546939540853457843_);}
	.st8{clip-path:url(#SVGID_00000003821760019192509800000012277654464100832171_);}
	.st9{clip-path:url(#SVGID_00000172409411725777751780000005008512639109547711_);}
	.st10{clip-path:url(#SVGID_00000085950993635523273210000007176647630026150038_);}
	.st11{clip-path:url(#SVGID_00000015342604970010010430000008410726850036822700_);}
	.st12{clip-path:url(#SVGID_00000065047858502730075100000014907791159480278409_);}
	.st13{clip-path:url(#SVGID_00000005234014905776548380000003494742487093874360_);}
	.st14{clip-path:url(#SVGID_00000146500678592709553520000007828371278086352030_);}
	.st15{clip-path:url(#SVGID_00000096757469565396425980000001235139755047652785_);}
	.st16{clip-path:url(#SVGID_00000123427434508535675140000006131285599446202042_);}
	.st17{clip-path:url(#SVGID_00000039812198029080832160000009274396869782113669_);}
	.st18{clip-path:url(#SVGID_00000013194779445991349750000006132613342847569562_);}
	.st19{clip-path:url(#SVGID_00000096744023882909131880000010147937057695232934_);fill:#31417B;}
</style>
<g>
	<g>
		<g>
			<defs>
				<rect id="SVGID_1_" y="0" width="329.1" height="78.9"/>
			</defs>
			<clipPath id="SVGID_00000015338606464407451230000016910138669668926887_">
				<use xlink:href="#SVGID_1_"  style="overflow:visible;"/>
			</clipPath>
			<g style="clip-path:url(#SVGID_00000015338606464407451230000016910138669668926887_);">
				<g>
					<defs>
						<rect id="SVGID_00000082336432570370299720000001636107361534780858_" x="-7.1" y="-7.1" width="343.3" height="93.1"/>
					</defs>
					<clipPath id="SVGID_00000169520639376616806930000018435693567593642430_">
						<use xlink:href="#SVGID_00000082336432570370299720000001636107361534780858_"  style="overflow:visible;"/>
					</clipPath>
					<path style="clip-path:url(#SVGID_00000169520639376616806930000018435693567593642430_);fill:#31417B;" d="M0,34.9l5.3-25H11
						l-5.3,25H0z M12.8,2.8c-0.2,0.8-0.6,1.4-1.3,2C10.8,5.3,10,5.6,9.1,5.6c-0.9,0-1.5-0.3-2-0.8c-0.5-0.5-0.6-1.2-0.5-2
						c0.2-0.8,0.6-1.5,1.3-2C8.6,0.3,9.4,0,10.2,0c0.9,0,1.6,0.3,2.1,0.8C12.8,1.4,12.9,2,12.8,2.8"/>
				</g>
				<g>
					<defs>
						<rect id="SVGID_00000132045995499835750870000001906775765263218850_" x="-7.1" y="-7.1" width="343.3" height="93.1"/>
					</defs>
					<clipPath id="SVGID_00000054265214095853187050000009019768725461688215_">
						<use xlink:href="#SVGID_00000132045995499835750870000001906775765263218850_"  style="overflow:visible;"/>
					</clipPath>
					<path style="clip-path:url(#SVGID_00000054265214095853187050000009019768725461688215_);" d="M39.3,34.9L43,17.2
						c0.1-0.5,0.1-1,0.1-1.5c0-0.5-0.2-1-0.4-1.3c-0.3-0.4-0.6-0.7-1.2-1C41,13.2,40.3,13,39.4,13c-0.9,0-1.7,0.1-2.3,0.2
						c-0.6,0.1-1.2,0.3-1.8,0.5l-4.5,21.2h-5.7l5-23.7c1.3-0.6,2.8-1,4.5-1.3c1.7-0.3,3.6-0.5,5.7-0.5c1.9,0,3.4,0.2,4.6,0.6
						c1.2,0.4,2.1,1,2.7,1.7c0.6,0.7,1,1.5,1.2,2.4c0.1,0.9,0.1,1.9-0.1,2.9l-3.8,17.8H39.3z"/>
				</g>
				<g>
					<defs>
						<rect id="SVGID_00000115480489682714051010000005399201517376872607_" x="-7.1" y="-7.1" width="343.3" height="93.1"/>
					</defs>
					<clipPath id="SVGID_00000137114222622589098220000005726668636406814893_">
						<use xlink:href="#SVGID_00000115480489682714051010000005399201517376872607_"  style="overflow:visible;"/>
					</clipPath>
					<path style="clip-path:url(#SVGID_00000137114222622589098220000005726668636406814893_);" d="M78.4,34.9l3.8-17.7
						c0.1-0.5,0.1-1,0.1-1.5c0-0.5-0.2-1-0.4-1.3c-0.3-0.4-0.6-0.7-1.2-1c-0.5-0.2-1.2-0.4-2.1-0.4c-0.9,0-1.7,0.1-2.3,0.2
						c-0.6,0.1-1.2,0.3-1.8,0.5L70,34.9h-5.7l5-23.7c1.3-0.6,2.8-1,4.5-1.3c1.7-0.3,3.6-0.5,5.7-0.5c1.9,0,3.4,0.2,4.6,0.6
						c1.2,0.4,2.1,1,2.7,1.7c0.6,0.7,1,1.5,1.2,2.4c0.1,0.9,0.1,1.9-0.1,2.9L84,34.9H78.4z"/>
				</g>
				<g>
					<defs>
						<rect id="SVGID_00000038412197812918056550000003497151683275594665_" x="-7.1" y="-7.1" width="343.3" height="93.1"/>
					</defs>
					<clipPath id="SVGID_00000138532385734518067830000014822005186121300104_">
						<use xlink:href="#SVGID_00000038412197812918056550000003497151683275594665_"  style="overflow:visible;"/>
					</clipPath>
					<path style="clip-path:url(#SVGID_00000138532385734518067830000014822005186121300104_);" d="M125.9,22.4
						c-0.4,1.9-1,3.6-1.7,5.1c-0.8,1.6-1.7,2.9-2.8,4.1c-1.1,1.2-2.4,2.1-3.8,2.7c-1.4,0.6-3,1-4.8,1c-1.8,0-3.2-0.3-4.4-1
						c-1.2-0.7-2-1.6-2.6-2.7c-0.6-1.2-1-2.5-1.1-4.1c-0.1-1.6,0.1-3.3,0.4-5.1c0.4-1.9,1-3.6,1.7-5.2c0.8-1.6,1.7-3,2.8-4.1
						c1.1-1.2,2.4-2.1,3.8-2.7c1.4-0.6,3-1,4.8-1c1.8,0,3.2,0.3,4.4,1c1.2,0.7,2.1,1.6,2.7,2.7c0.6,1.2,1,2.5,1,4.1
						C126.5,18.9,126.3,20.6,125.9,22.4 M120.3,22.4c0.3-1.2,0.4-2.4,0.6-3.5c0.1-1.1,0.1-2.1-0.1-3c-0.2-0.9-0.5-1.6-1-2.1
						c-0.5-0.5-1.3-0.8-2.3-0.8c-1,0-1.9,0.3-2.6,0.8c-0.7,0.5-1.4,1.2-1.9,2.1c-0.5,0.9-1,1.9-1.3,3c-0.4,1.1-0.7,2.3-0.9,3.5
						c-0.2,1.2-0.4,2.3-0.5,3.4c-0.1,1.1-0.1,2.1,0.1,2.9c0.2,0.9,0.5,1.5,1,2c0.5,0.5,1.3,0.8,2.2,0.8c1,0,1.9-0.3,2.6-0.8
						c0.7-0.5,1.3-1.2,1.9-2c0.5-0.9,1-1.8,1.3-2.9C119.8,24.7,120.1,23.6,120.3,22.4"/>
				</g>
				<g>
					<defs>
						<rect id="SVGID_00000025429836389344504180000003216309191522124988_" x="-7.1" y="-7.1" width="343.3" height="93.1"/>
					</defs>
					<clipPath id="SVGID_00000078728669821940540010000017441509461988598672_">
						<use xlink:href="#SVGID_00000025429836389344504180000003216309191522124988_"  style="overflow:visible;"/>
					</clipPath>
					<path style="clip-path:url(#SVGID_00000078728669821940540010000017441509461988598672_);" d="M152.7,34.9h-5.4l-2.8-25h6
						l1,16.1c0.1,0.9,0,2-0.1,3.4h0.1c0.5-1.4,0.9-2.5,1.4-3.4l7.9-16.1h5.3L152.7,34.9z"/>
				</g>
				<g>
					<defs>
						<rect id="SVGID_00000064322753556182119400000004292868410721809553_" x="-7.1" y="-7.1" width="343.3" height="93.1"/>
					</defs>
					<clipPath id="SVGID_00000113333145410354410890000016495988128889881255_">
						<use xlink:href="#SVGID_00000064322753556182119400000004292868410721809553_"  style="overflow:visible;"/>
					</clipPath>
					<path style="clip-path:url(#SVGID_00000113333145410354410890000016495988128889881255_);" d="M191.3,34.9
						c-1.6,0.3-3.4,0.5-5.3,0.5c-3.4,0-5.8-0.7-7.3-2c-1.4-1.3-1.8-3.2-1.3-5.6c0.3-1.6,1-3,2-4.1c1-1.1,2.2-2,3.6-2.7
						c1.4-0.7,3-1.2,4.8-1.6c1.8-0.4,3.6-0.6,5.6-0.8l0.3-1.3c0.2-0.8,0.2-1.5,0.1-2c-0.1-0.5-0.4-1-0.8-1.3
						c-0.4-0.3-0.8-0.5-1.4-0.6c-0.6-0.1-1.2-0.2-2-0.2c-1.2,0-2.4,0.2-3.6,0.5s-2.2,0.7-3,1l-0.6-3.2c0.9-0.4,2.1-0.8,3.7-1.3
						c1.6-0.4,3.3-0.6,5.3-0.6c1.3,0,2.5,0.1,3.5,0.4c1.1,0.3,1.9,0.8,2.6,1.5c0.7,0.7,1.2,1.6,1.4,2.7s0.2,2.4-0.1,4.1l-3.3,15.5
						C194.2,34.1,192.9,34.5,191.3,34.9 M192.7,21.2c-1.4,0.2-2.6,0.4-3.7,0.6c-1.1,0.3-2.1,0.6-2.9,1.1c-0.8,0.5-1.5,1.1-2.1,1.8
						c-0.6,0.7-1,1.7-1.2,2.8c-0.3,1.6-0.1,2.8,0.6,3.5c0.8,0.7,2,1.1,3.6,1.1c0.7,0,1.3-0.1,1.9-0.2c0.6-0.1,1.2-0.3,1.6-0.5
						L192.7,21.2z"/>
				</g>
				<g>
					<defs>
						<rect id="SVGID_00000036230841085529948760000010342971740444331179_" x="-7.1" y="-7.1" width="343.3" height="93.1"/>
					</defs>
					<clipPath id="SVGID_00000065045771784410989420000006407145589622107535_">
						<use xlink:href="#SVGID_00000036230841085529948760000010342971740444331179_"  style="overflow:visible;"/>
					</clipPath>
					<path style="clip-path:url(#SVGID_00000065045771784410989420000006407145589622107535_);" d="M224.1,35
						c-0.5,0.1-1.1,0.2-1.8,0.2c-1.2,0-2.2-0.2-3-0.6c-0.8-0.4-1.4-0.9-1.8-1.5c-0.4-0.6-0.7-1.3-0.7-2.2c-0.1-0.8,0-1.7,0.2-2.5
						l3.2-14.9h-2.8l0.8-3.6h2.8l1.2-5.5l6-1.6l-1.5,7.1h4.1l-0.8,3.6h-4.1l-3.1,14.6c-0.2,1-0.2,1.8,0.1,2.4
						c0.3,0.6,0.9,0.9,1.9,0.9c0.2,0,0.5,0,0.7-0.1c0.2,0,0.4-0.1,0.7-0.2l-0.8,3.5C225.1,34.8,224.7,34.9,224.1,35"/>
				</g>
				<g>
					<defs>
						<rect id="SVGID_00000008852980404164612690000012006489793803876781_" x="-7.1" y="-7.1" width="343.3" height="93.1"/>
					</defs>
					<clipPath id="SVGID_00000065767835209413560870000003934176504083933842_">
						<use xlink:href="#SVGID_00000008852980404164612690000012006489793803876781_"  style="overflow:visible;"/>
					</clipPath>
					<path style="clip-path:url(#SVGID_00000065767835209413560870000003934176504083933842_);" d="M243.6,34.9l5.3-25h5.7l-5.3,25
						H243.6z M256.3,2.8c-0.2,0.8-0.6,1.4-1.3,2c-0.7,0.5-1.5,0.8-2.4,0.8c-0.9,0-1.5-0.3-2-0.8c-0.5-0.5-0.6-1.2-0.5-2
						c0.2-0.8,0.6-1.5,1.3-2c0.7-0.5,1.5-0.8,2.4-0.8c0.9,0,1.6,0.3,2.1,0.8C256.3,1.4,256.5,2,256.3,2.8"/>
				</g>
				<g>
					<defs>
						<rect id="SVGID_00000034803509456881781550000016022235325551256214_" x="-7.1" y="-7.1" width="343.3" height="93.1"/>
					</defs>
					<clipPath id="SVGID_00000062170532207273143940000014665819488748571565_">
						<use xlink:href="#SVGID_00000034803509456881781550000016022235325551256214_"  style="overflow:visible;"/>
					</clipPath>
					<path style="clip-path:url(#SVGID_00000062170532207273143940000014665819488748571565_);" d="M284.6,27.7
						c-0.2,1-0.6,2-1.2,2.9c-0.6,0.9-1.4,1.7-2.3,2.4c-0.9,0.7-2,1.2-3.2,1.6c-1.2,0.4-2.5,0.6-3.8,0.6c-1.5,0-2.8-0.2-3.9-0.5
						c-1.1-0.3-2-0.8-2.6-1.3l2.3-3.6c0.4,0.4,1,0.7,1.7,1c0.8,0.3,1.6,0.4,2.7,0.4c1.2,0,2.2-0.3,3-1c0.8-0.7,1.4-1.5,1.6-2.5
						c0.2-1.1,0.1-1.9-0.3-2.5c-0.4-0.6-1.3-1.1-2.5-1.6c-1.1-0.5-1.9-1-2.6-1.5c-0.6-0.5-1.1-1.1-1.4-1.7s-0.4-1.2-0.5-1.9
						c0-0.6,0-1.3,0.2-1.9c0.2-1,0.6-1.9,1.2-2.8c0.6-0.9,1.3-1.6,2.1-2.3c0.8-0.6,1.8-1.2,2.8-1.6c1.1-0.4,2.2-0.6,3.4-0.6
						c1.4,0,2.6,0.2,3.6,0.5c1,0.3,1.8,0.8,2.5,1.3l-2.1,3.3c-0.3-0.3-0.8-0.6-1.4-0.9c-0.6-0.3-1.4-0.5-2.3-0.5
						c-1.2,0-2.1,0.3-2.9,1c-0.7,0.6-1.2,1.4-1.4,2.3c-0.2,1,0,1.8,0.5,2.4c0.6,0.6,1.4,1.1,2.3,1.5c1.1,0.5,2,1,2.7,1.6
						c0.7,0.6,1.2,1.1,1.5,1.8c0.3,0.6,0.5,1.3,0.5,1.9C284.8,26.3,284.8,27,284.6,27.7"/>
				</g>
				<g>
					<defs>
						<rect id="SVGID_00000080918917335146279280000009047918668703137668_" x="-7.1" y="-7.1" width="343.3" height="93.1"/>
					</defs>
					<clipPath id="SVGID_00000048467752396769702110000017055814188815745959_">
						<use xlink:href="#SVGID_00000080918917335146279280000009047918668703137668_"  style="overflow:visible;"/>
					</clipPath>
					<path style="clip-path:url(#SVGID_00000048467752396769702110000017055814188815745959_);" d="M17.4,72.9l3.1-14.4h1.4
						l-3.1,14.4H17.4z M23,54.4c-0.1,0.3-0.2,0.5-0.4,0.7c-0.2,0.2-0.5,0.3-0.7,0.3c-0.3,0-0.5-0.1-0.6-0.3
						c-0.1-0.2-0.2-0.4-0.1-0.7c0.1-0.3,0.2-0.5,0.4-0.7c0.2-0.2,0.5-0.3,0.7-0.3c0.3,0,0.5,0.1,0.6,0.3C23,54,23,54.2,23,54.4"/>
				</g>
				<g>
					<defs>
						<rect id="SVGID_00000106870399094315641310000006934244832917878153_" x="-7.1" y="-7.1" width="343.3" height="93.1"/>
					</defs>
					<clipPath id="SVGID_00000098920856419067989790000008357988179672557466_">
						<use xlink:href="#SVGID_00000106870399094315641310000006934244832917878153_"  style="overflow:visible;"/>
					</clipPath>
					<path style="clip-path:url(#SVGID_00000098920856419067989790000008357988179672557466_);" d="M38.3,72.9l2.2-10.5
						c0.1-0.4,0.1-0.8,0.1-1.1c0-0.4-0.1-0.7-0.3-1c-0.2-0.3-0.5-0.6-0.9-0.8c-0.4-0.2-0.9-0.3-1.6-0.3c-0.4,0-0.7,0-1,0
						c-0.3,0-0.6,0.1-0.8,0.1c-0.3,0.1-0.5,0.1-0.7,0.2c-0.2,0.1-0.5,0.2-0.7,0.2l-2.8,13.1h-1.4l2.9-13.7c0.7-0.3,1.4-0.6,2.2-0.8
						c0.8-0.2,1.7-0.3,2.8-0.3c0.9,0,1.6,0.1,2.2,0.4c0.5,0.3,0.9,0.6,1.2,1C41.8,60,42,60.5,42,61s0,0.9-0.1,1.4l-2.2,10.6
						L38.3,72.9L38.3,72.9z"/>
				</g>
				<g>
					<defs>
						<rect id="SVGID_00000176029930769343723170000001682630936997785524_" x="-7.1" y="-7.1" width="343.3" height="93.1"/>
					</defs>
					<clipPath id="SVGID_00000009589330283501701430000005844316208852664454_">
						<use xlink:href="#SVGID_00000176029930769343723170000001682630936997785524_"  style="overflow:visible;"/>
					</clipPath>
					<path style="clip-path:url(#SVGID_00000009589330283501701430000005844316208852664454_);" d="M54.9,73c-0.6,0-1.1-0.1-1.4-0.3
						c-0.4-0.2-0.6-0.5-0.8-0.8c-0.2-0.3-0.3-0.7-0.3-1.1c0-0.4,0-0.8,0.1-1.2l2.2-10.3h-1.7l0.2-0.9h1.6l0.7-3.5l1.5-0.5l-0.8,4
						h2.6l-0.2,0.8h-2.6l-2.2,10.4c-0.1,0.6-0.1,1.1,0.1,1.6c0.2,0.5,0.7,0.7,1.4,0.7h0.3c0.1,0,0.2,0,0.3-0.1l-0.2,0.9
						C55.6,73,55.3,73,54.9,73"/>
				</g>
				<g>
					<defs>
						<rect id="SVGID_00000023283107178259710860000005167985112213940385_" x="-7.1" y="-7.1" width="343.3" height="93.1"/>
					</defs>
					<clipPath id="SVGID_00000008136818980592274830000014808587730955685046_">
						<use xlink:href="#SVGID_00000023283107178259710860000005167985112213940385_"  style="overflow:visible;"/>
					</clipPath>
					<path style="clip-path:url(#SVGID_00000008136818980592274830000014808587730955685046_);" d="M68.1,66.3
						c-0.3,1.9-0.1,3.4,0.5,4.3c0.6,0.9,1.6,1.4,3.1,1.4c0.8,0,1.5-0.1,2.1-0.3c0.6-0.2,1.1-0.4,1.5-0.6l0.2,1
						c-0.4,0.2-1,0.5-1.7,0.7c-0.7,0.2-1.5,0.3-2.3,0.3c-0.9,0-1.6-0.1-2.3-0.4c-0.7-0.3-1.2-0.7-1.6-1.3c-0.4-0.6-0.7-1.4-0.8-2.3
						c-0.1-1,0-2.1,0.3-3.5c0.3-1.3,0.6-2.4,1.1-3.3c0.5-0.9,1-1.7,1.6-2.3c0.6-0.6,1.3-1.1,2-1.4c0.7-0.3,1.4-0.4,2.2-0.4
						c0.8,0,1.4,0.1,2,0.4c0.6,0.2,1,0.6,1.3,1.2c0.3,0.5,0.5,1.2,0.6,2.1s0,1.9-0.3,3.1L68.1,66.3z M76.5,61.9
						c0-0.6-0.2-1.1-0.4-1.5c-0.2-0.4-0.6-0.7-1-0.9c-0.4-0.2-0.9-0.3-1.5-0.3c-0.6,0-1.1,0.1-1.6,0.3c-0.5,0.2-1,0.6-1.5,1.1
						c-0.5,0.5-0.9,1.1-1.3,1.9c-0.4,0.8-0.7,1.7-0.9,2.8l8-1.2C76.4,63.3,76.5,62.6,76.5,61.9"/>
				</g>
				<g>
					<defs>
						<rect id="SVGID_00000013900814417779686730000008056179894243769472_" x="-7.1" y="-7.1" width="343.3" height="93.1"/>
					</defs>
					<clipPath id="SVGID_00000050636842960563407160000013663258237457097106_">
						<use xlink:href="#SVGID_00000013900814417779686730000008056179894243769472_"  style="overflow:visible;"/>
					</clipPath>
					<path style="clip-path:url(#SVGID_00000050636842960563407160000013663258237457097106_);" d="M94.3,59.5
						c-0.3-0.1-0.6-0.1-0.9-0.2c-0.3,0-0.6,0-1,0c-0.3,0-0.6,0.1-0.9,0.2c-0.3,0.1-0.5,0.2-0.8,0.4l-2.8,13h-1.4l2.9-13.7
						c0.3-0.2,0.7-0.3,1-0.4c0.3-0.1,0.7-0.2,1.1-0.3c0.4-0.1,0.9-0.1,1.4-0.2c0.5,0,1.2-0.1,2-0.1L94.3,59.5z"/>
				</g>
				<g>
					<defs>
						<rect id="SVGID_00000021080435171144932300000010606659281386046142_" x="-7.1" y="-7.1" width="343.3" height="93.1"/>
					</defs>
					<clipPath id="SVGID_00000080898267171744875670000018423936615707026852_">
						<use xlink:href="#SVGID_00000021080435171144932300000010606659281386046142_"  style="overflow:visible;"/>
					</clipPath>
					<path style="clip-path:url(#SVGID_00000080898267171744875670000018423936615707026852_);" d="M102,72.9l3.1-14.4h1.4
						l-3.1,14.4H102z M107.6,54.4c-0.1,0.3-0.2,0.5-0.4,0.7c-0.2,0.2-0.5,0.3-0.7,0.3c-0.3,0-0.5-0.1-0.6-0.3
						c-0.1-0.2-0.2-0.4-0.1-0.7c0.1-0.3,0.2-0.5,0.4-0.7c0.2-0.2,0.5-0.3,0.7-0.3c0.3,0,0.5,0.1,0.6,0.3
						C107.6,54,107.6,54.2,107.6,54.4"/>
				</g>
				<g>
					<defs>
						<rect id="SVGID_00000145755040352063133840000008500464666300298634_" x="-7.1" y="-7.1" width="343.3" height="93.1"/>
					</defs>
					<clipPath id="SVGID_00000125575095185282815760000004265359362749303732_">
						<use xlink:href="#SVGID_00000145755040352063133840000008500464666300298634_"  style="overflow:visible;"/>
					</clipPath>
					<path style="clip-path:url(#SVGID_00000125575095185282815760000004265359362749303732_);" d="M130.9,72.9l2.2-10.5
						c0.1-0.4,0.1-0.8,0.1-1.2c0-0.4-0.1-0.7-0.3-1c-0.2-0.3-0.4-0.5-0.8-0.7c-0.4-0.2-0.8-0.3-1.4-0.3c-1.4,0-2.6,0.5-3.8,1.6
						l-2.6,12.1h-1.4l2.3-10.7c0.2-0.9,0.1-1.6-0.4-2.2c-0.5-0.6-1.3-0.8-2.5-0.8c-0.7,0-1.2,0-1.7,0.1c-0.4,0.1-0.9,0.2-1.4,0.5
						l-2.8,13.1H115l2.9-13.7c0.3-0.2,0.6-0.3,1-0.4c0.3-0.1,0.7-0.2,1.1-0.3c0.4-0.1,0.8-0.2,1.2-0.2c0.4,0,0.9-0.1,1.5-0.1
						c1.1,0,1.9,0.2,2.5,0.5c0.6,0.3,1,0.8,1.4,1.4c0.6-0.6,1.4-1,2.1-1.4c0.8-0.3,1.6-0.5,2.5-0.5c0.8,0,1.5,0.1,2,0.4
						c0.5,0.3,0.9,0.6,1.1,1c0.2,0.4,0.4,0.8,0.4,1.3s0,1-0.1,1.4l-2.2,10.6L130.9,72.9L130.9,72.9z"/>
				</g>
				<g>
					<defs>
						<rect id="SVGID_00000010295118082795464840000015731321678125624250_" x="-7.1" y="-7.1" width="343.3" height="93.1"/>
					</defs>
					<clipPath id="SVGID_00000119085716587238787020000004528706579927431868_">
						<use xlink:href="#SVGID_00000010295118082795464840000015731321678125624250_"  style="overflow:visible;"/>
					</clipPath>
					<path style="clip-path:url(#SVGID_00000119085716587238787020000004528706579927431868_);" d="M164.9,72.9
						c-0.8,0.2-1.6,0.3-2.5,0.3c-1.7,0-2.9-0.4-3.5-1.2c-0.6-0.8-0.8-1.8-0.5-3c0.2-1,0.6-1.8,1.1-2.4c0.5-0.7,1.2-1.2,2-1.6
						c0.8-0.4,1.7-0.7,2.7-1c1-0.2,2.1-0.4,3.2-0.5l0.2-1c0.1-0.6,0.2-1.2,0.1-1.6s-0.2-0.8-0.5-1c-0.3-0.3-0.6-0.4-1-0.5
						s-0.8-0.1-1.3-0.1c-0.7,0-1.3,0.1-1.9,0.3c-0.6,0.2-1.1,0.4-1.5,0.6l-0.2-0.9c0.4-0.2,1-0.4,1.7-0.7c0.7-0.2,1.5-0.4,2.3-0.4
						c0.6,0,1.1,0.1,1.7,0.2c0.5,0.1,1,0.4,1.3,0.7c0.4,0.3,0.6,0.8,0.7,1.4c0.1,0.6,0.1,1.3-0.1,2.1l-2,9.6
						C166.4,72.5,165.7,72.7,164.9,72.9 M167.2,64.4c-1.1,0.1-2,0.3-2.9,0.5c-0.9,0.2-1.6,0.5-2.2,0.8c-0.6,0.3-1.1,0.8-1.5,1.3
						c-0.4,0.5-0.7,1.2-0.9,2c-0.2,1.2-0.1,2,0.5,2.5c0.6,0.5,1.4,0.8,2.6,0.8c0.5,0,1-0.1,1.5-0.1c0.5-0.1,1-0.2,1.4-0.4
						L167.2,64.4z"/>
				</g>
				<g>
					<defs>
						<rect id="SVGID_00000178896850674161794950000006957604053024960174_" x="-7.1" y="-7.1" width="343.3" height="93.1"/>
					</defs>
					<clipPath id="SVGID_00000114043491573980037850000009894398239237857716_">
						<use xlink:href="#SVGID_00000178896850674161794950000006957604053024960174_"  style="overflow:visible;"/>
					</clipPath>
					<path style="clip-path:url(#SVGID_00000114043491573980037850000009894398239237857716_);" d="M186.4,75.6
						c-0.4,0.7-0.8,1.3-1.3,1.8c-0.5,0.5-1.1,0.9-1.8,1.1c-0.7,0.3-1.4,0.4-2.2,0.4c-0.9,0-1.6-0.1-2.2-0.3
						c-0.6-0.2-1.1-0.4-1.5-0.7l0.8-1c0.3,0.2,0.7,0.4,1.2,0.6c0.5,0.2,1.1,0.3,1.7,0.3c0.7,0,1.3-0.1,1.9-0.3
						c0.5-0.2,1-0.5,1.4-0.9c0.4-0.4,0.7-0.8,1-1.4c0.3-0.5,0.4-1.1,0.6-1.7l0.2-1.1c-0.4,0.2-0.8,0.4-1.4,0.5
						c-0.5,0.1-1.1,0.2-1.8,0.2c-0.8,0-1.6-0.2-2.2-0.5c-0.6-0.3-1.1-0.8-1.4-1.4c-0.3-0.6-0.5-1.4-0.6-2.3c-0.1-0.9,0-1.9,0.3-3
						c0.2-1.1,0.6-2.2,1-3.1c0.5-0.9,1-1.8,1.7-2.4c0.7-0.7,1.4-1.2,2.2-1.6c0.8-0.4,1.7-0.6,2.7-0.6c0.9,0,1.7,0.1,2.3,0.3
						s1,0.4,1.3,0.7l-3,14.1C187.1,74.2,186.8,74.9,186.4,75.6 M188.8,59.6c-0.3-0.2-0.6-0.3-1-0.4s-0.8-0.1-1.3-0.1
						c-0.8,0-1.5,0.2-2.2,0.5c-0.7,0.3-1.2,0.8-1.7,1.4c-0.5,0.6-0.9,1.3-1.3,2.2c-0.4,0.8-0.6,1.8-0.8,2.8c-0.4,2-0.4,3.5,0.1,4.6
						c0.5,1.1,1.5,1.7,3,1.7c0.5,0,1-0.1,1.5-0.2c0.5-0.1,0.9-0.3,1.3-0.5L188.8,59.6z"/>
				</g>
				<g>
					<defs>
						<rect id="SVGID_00000160898384471519272250000015738643240401289370_" x="-7.1" y="-7.1" width="343.3" height="93.1"/>
					</defs>
					<clipPath id="SVGID_00000004503839106850339500000013731560996486792593_">
						<use xlink:href="#SVGID_00000160898384471519272250000015738643240401289370_"  style="overflow:visible;"/>
					</clipPath>
					<polygon style="clip-path:url(#SVGID_00000004503839106850339500000013731560996486792593_);fill:#31417B;" points="
						329.1,19.8 314,34.9 299,19.8 314,4.8 					"/>
				</g>
			</g>
		</g>
	</g>
</g>
</svg>
