<?xml version="1.0" encoding="utf-8"?>
<!-- Generator: Adobe Illustrator 23.0.0, SVG Export Plug-In . SVG Version: 6.00 Build 0)  -->
<svg version="1.1" id="_x2014_ŽÓť_x5F_1" xmlns="http://www.w3.org/2000/svg" xmlns:xlink="http://www.w3.org/1999/xlink"
	 x="0px" y="0px" viewBox="0 0 1100 740" style="enable-background:new 0 0 1100 740;" xml:space="preserve">
<style type="text/css">
	.st0{fill:#F8F7FF;}
	.st1{fill:#DDD6FF;}
	.st2{fill:#C4B8FF;}
	.st3{fill:#FFFFFF;}
	.st4{fill:#FF95A9;}
	.st5{fill:#7760DB;}
	.st6{fill:#40327A;}
	.st7{fill:#FF9D45;}
	.st8{fill:#FFC359;}
	.st9{fill:#FF809F;}
	.st10{fill:#EEEBFF;}
	.st11{fill:#A796F2;}
	.st12{fill:#E5659B;}
	.st13{fill:none;}
</style>
<path class="st0" d="M960.88,629.04c0,0,92.43-60.17,37.06-116.45c-55.38-56.28-71.94-49.31-56-112.03s80.51-86.06,54.84-133.66
	c-30.81-57.14-101.07-5.01-144.73,15c-81.18,37.2-80.69-18.41-49.52-70.43c31.18-52.02,33.41-138.75-38.59-138.75
	c-78.31,0-250.42,169.22-345.23,286.17c-56.74,69.99-98.1,21.29-92.36-23.68c3.65-28.58,11.25-74.78-6.53-96.04
	c-30.86-36.9-121.53,78.7-153.54,128.08C41.01,560.55,193.3,629.04,193.3,629.04H960.88z"/>
<path class="st0" d="M261.43,157.61c3.52-8.05,4.64-14.23,2.15-19.32c-7.4-15.09-45.14-17.5-69.31-2.83
	c-33.7,20.47-42.62,75.14-27.19,87.28C185.03,236.88,243.28,199.19,261.43,157.61z"/>
<g>
	<path class="st1" d="M502.07,645.05h285.08H502.07z"/>
	<rect x="502.07" y="644.05" class="st2" width="285.08" height="2"/>
</g>
<g>
	<path class="st1" d="M718.31,660.29h124.04H718.31z"/>
	<rect x="718.31" y="659.29" class="st2" width="124.04" height="2"/>
</g>
<g>
	<path class="st1" d="M453.27,660.29h226.88H453.27z"/>
	<rect x="453.27" y="659.29" class="st2" width="226.88" height="2"/>
</g>
<g>
	<path class="st1" d="M282.56,660.29h33.7H282.56z"/>
	<rect x="282.56" y="659.29" class="st2" width="33.7" height="2"/>
</g>
<g>
	<path class="st1" d="M326.22,660.29h10.18H326.22z"/>
	<rect x="326.22" y="659.29" class="st2" width="10.18" height="2"/>
</g>
<g>
	<path class="st1" d="M821.79,645.28h57.97H821.79z"/>
	<rect x="821.79" y="644.28" class="st2" width="57.97" height="2"/>
</g>
<g>
	<path class="st1" d="M391.38,645.05h87.88H391.38z"/>
	<rect x="391.38" y="644.05" class="st2" width="87.88" height="2"/>
</g>
<g>
	<path class="st1" d="M218.83,645.05h153.67H218.83z"/>
	<rect x="218.83" y="644.05" class="st2" width="153.67" height="2"/>
</g>
<g>
	<path class="st1" d="M173.67,645.05h26.85H173.67z"/>
	<rect x="173.67" y="644.05" class="st2" width="26.85" height="2"/>
</g>
<rect x="380.05" y="155.7" class="st1" width="367.49" height="473.34"/>
<polygon class="st2" points="747.54,451.05 747.54,629.04 380.05,629.04 380.05,508.3 "/>
<rect x="347.12" y="228.63" transform="matrix(-1.836970e-16 1 -1 -1.836970e-16 956.1627 -171.4174)" class="st3" width="433.34" height="327.48"/>
<polygon class="st4" points="662.76,294.74 639.5,275.55 645.86,267.83 661.27,280.54 693.58,239.89 701.41,246.11 "/>
<ellipse transform="matrix(0.6671 -0.7449 0.7449 0.6671 -86.907 397.4199)" class="st5" cx="401.26" cy="295.96" rx="13.64" ry="13.64"/>
<g>
	<path class="st3" d="M587.34,269.53h30.33H587.34z"/>
	<rect x="587.34" y="268.53" class="st6" width="30.33" height="2"/>
</g>
<g>
	<path class="st3" d="M485.17,269.53H576H485.17z"/>
	<rect x="485.17" y="268.53" class="st6" width="90.83" height="2"/>
</g>
<g>
	<path class="st3" d="M545.36,284.19h72.31H545.36z"/>
	<rect x="545.36" y="283.19" class="st6" width="72.31" height="2"/>
</g>
<g>
	<path class="st3" d="M536.67,284.19h4.18H536.67z"/>
	<rect x="536.67" y="283.19" class="st6" width="4.18" height="2"/>
</g>
<g>
	<path class="st3" d="M444.01,284.19h82.33H444.01z"/>
	<rect x="444" y="283.19" class="st6" width="82.33" height="2"/>
</g>
<g>
	<path class="st3" d="M444.01,298.85h117.67H444.01z"/>
	<rect x="444" y="297.85" class="st6" width="117.67" height="2"/>
</g>
<polygon class="st4" points="662.76,371.36 639.5,352.16 645.86,344.45 661.27,357.16 693.58,316.51 701.41,322.73 "/>
<g>
	<path class="st3" d="M485.17,346.15h132.5H485.17z"/>
	<rect x="485.17" y="345.15" class="st6" width="132.5" height="2"/>
</g>
<g>
	<path class="st3" d="M444.01,346.15h30.83H444.01z"/>
	<rect x="444" y="345.15" class="st6" width="30.83" height="2"/>
</g>
<g>
	<path class="st3" d="M444.01,360.81h160.5H444.01z"/>
	<rect x="444" y="359.81" class="st6" width="160.5" height="2"/>
</g>
<g>
	<path class="st3" d="M502.36,375.47h3.32H502.36z"/>
	<rect x="502.36" y="374.47" class="st6" width="3.32" height="2"/>
</g>
<g>
	<path class="st3" d="M444.01,375.47h52.18H444.01z"/>
	<rect x="444" y="374.47" class="st6" width="52.18" height="2"/>
</g>
<polygon class="st4" points="662.76,447.98 639.5,428.78 645.86,421.07 661.27,433.78 693.58,393.13 701.41,399.35 "/>
<g>
	<g>
		<path class="st3" d="M444.01,422.77h173.67H444.01z"/>
		<rect x="444" y="421.77" class="st6" width="173.67" height="2"/>
	</g>
	<g>
		<path class="st3" d="M563.79,437.43h53.88H563.79z"/>
		<rect x="563.79" y="436.43" class="st6" width="53.88" height="2"/>
	</g>
	<g>
		<path class="st3" d="M444.01,437.43h107.33H444.01z"/>
		<rect x="444" y="436.43" class="st6" width="107.33" height="2"/>
	</g>
	<g>
		<path class="st3" d="M444.01,452.09h149H444.01z"/>
		<rect x="444" y="451.09" class="st6" width="149" height="2"/>
	</g>
</g>
<g>
	<polygon class="st3" points="655.5,298.85 649.07,298.85 649.07,288.13 	"/>
	<polygon class="st5" points="655.5,299.85 648.07,299.85 648.07,288.13 650.07,288.13 650.07,297.85 655.5,297.85 	"/>
</g>
<polygon class="st5" points="690.07,299.85 660.28,299.85 660.28,297.85 688.07,297.85 688.07,267.36 690.07,267.36 "/>
<g>
	<path class="st3" d="M673.32,258.85h2.94H673.32z"/>
	<rect x="673.32" y="257.85" class="st5" width="2.94" height="2"/>
</g>
<g>
	<polygon class="st3" points="649.07,263.37 649.07,258.85 669.76,258.85 	"/>
	<polygon class="st5" points="650.07,263.37 648.07,263.37 648.07,257.85 669.76,257.85 669.76,259.85 650.07,259.85 	"/>
</g>
<polygon class="st5" points="666.88,376.47 648.07,376.47 648.07,371.06 650.07,371.06 650.07,374.47 666.88,374.47 "/>
<polygon class="st5" points="690.07,376.47 670.59,376.47 670.59,374.47 688.07,374.47 688.07,351.77 690.07,351.77 "/>
<rect x="688.07" y="343.52" class="st5" width="2" height="3.62"/>
<polygon class="st5" points="650.07,367.26 648.07,367.26 648.07,334.47 676.88,334.47 676.88,336.47 650.07,336.47 "/>
<polygon class="st5" points="690.07,453.09 648.07,453.09 648.07,433.72 650.07,433.72 650.07,451.09 688.07,451.09 688.07,444.13 
	690.07,444.13 "/>
<rect x="688.07" y="440.81" class="st5" width="2" height="3.33"/>
<rect x="688.07" y="423.76" class="st5" width="2" height="12.62"/>
<rect x="688.07" y="421.27" class="st5" width="2" height="2.5"/>
<rect x="671.59" y="411.09" class="st5" width="2.92" height="2"/>
<polygon class="st5" points="650.07,419.09 648.07,419.09 648.07,411.09 668.17,411.09 668.17,413.09 650.07,413.09 "/>
<rect x="648.07" y="515.39" class="st5" width="2" height="2.74"/>
<polygon class="st5" points="690.07,529.71 648.07,529.71 648.07,521.96 650.07,521.96 650.07,527.71 688.07,527.71 688.07,522.76 
	690.07,522.76 "/>
<rect x="688.07" y="495.88" class="st5" width="2" height="22.25"/>
<polygon class="st4" points="662.76,524.59 639.5,505.4 645.86,497.69 661.27,510.4 693.58,469.74 701.41,475.97 "/>
<g>
	<path class="st3" d="M444.01,499.38h160.5H444.01z"/>
	<rect x="444" y="498.38" class="st6" width="160.5" height="2"/>
</g>
<g>
	<path class="st3" d="M491.07,514.05h126.6H491.07z"/>
	<rect x="491.07" y="513.05" class="st6" width="126.6" height="2"/>
</g>
<g>
	<path class="st3" d="M479.01,514.05h3.43H479.01z"/>
	<rect x="479.01" y="513.05" class="st6" width="3.43" height="2"/>
</g>
<g>
	<path class="st3" d="M444.01,514.05h23.33H444.01z"/>
	<rect x="444" y="513.05" class="st6" width="23.33" height="2"/>
</g>
<g>
	<path class="st3" d="M444.01,528.71h61.67H444.01z"/>
	<rect x="444" y="527.71" class="st6" width="61.67" height="2"/>
</g>
<polygon class="st5" points="413.24,289.43 378.44,225.36 367.42,229.94 388.18,299.83 "/>
<rect x="177.93" y="274.39" transform="matrix(0.9858 -0.168 0.168 0.9858 -42.8791 56.8524)" class="st7" width="273.33" height="14.97"/>
<rect x="175.42" y="259.63" transform="matrix(0.9858 -0.168 0.168 0.9858 -40.4354 56.2201)" class="st8" width="273.33" height="14.97"/>
<rect x="172.9" y="244.87" transform="matrix(0.9858 -0.168 0.168 0.9858 -37.9917 55.5879)" class="st8" width="273.33" height="14.97"/>
<rect x="132.92" y="273.27" transform="matrix(0.9858 -0.168 0.168 0.9858 -47.6284 28.4167)" class="st9" width="22.46" height="44.92"/>
<rect x="155.06" y="269.5" transform="matrix(0.9858 -0.168 0.168 0.9858 -46.6812 32.0832)" class="st10" width="22.46" height="44.92"/>
<polygon class="st10" points="515.74,232.41 443.03,222.01 450.58,266.3 "/>
<rect x="400.05" y="608.04" class="st6" width="327.48" height="2"/>
<polygon class="st2" points="473.8,155.7 473.8,205.7 653.8,205.7 653.8,155.7 598.54,155.7 584.33,125.05 543.28,125.05 
	529.07,155.7 "/>
<polygon class="st11" points="473.8,155.7 473.8,192.15 653.8,164.11 653.8,155.7 598.54,155.7 584.33,125.05 543.28,125.05 
	529.07,155.7 "/>
<rect x="108.94" y="629.04" class="st2" width="883.68" height="2"/>
<g>
	<g>
		<path class="st2" d="M795.82,301.77c-2.94,13.63-7.87,26.75-11.8,40.12c-4.05,13.77-8.14,27.77-8.09,42.12
			c0.06,18.66,7.47,37.21,20.28,50.78c5.02,5.32,10.88,9.97,14.75,16.17c3.87,6.21,5.29,14.73,0.97,20.63
			c-6.23,8.51-19.56,6.67-28.67,11.99c-11.47,6.7-13.07,23.77-6.53,35.33s36.33,44.64,78.83,36.45
			c19.02-3.67,44.81-21.77,44.07-41.13c-0.77-20.16-20.01-36.48-19.36-56.65c0.43-13.21,9.31-24.37,17-35.12
			c7.69-10.75,14.85-23.85,11.31-36.58c-5.21-18.74-29.35-24.53-41.04-40.08c-7.53-10.01-9.18-23.18-9.65-35.7
			c-0.47-12.52-0.15-25.35-4.32-37.16C843.44,244.3,807.48,247.71,795.82,301.77z"/>
	</g>
	<rect x="839.48" y="373.8" class="st6" width="2" height="217.25"/>
	<path class="st6" d="M841.47,436.57l-1.97-0.32c3.23-19.65,25.58-31.88,26.54-32.39l0.95,1.76
		C866.76,405.74,844.54,417.9,841.47,436.57z"/>
	<path class="st6" d="M839.5,522.12c-2.19-13.29-18.02-21.94-18.18-22.03l0.95-1.76c0.69,0.37,16.86,9.21,19.21,23.47L839.5,522.12z
		"/>
	<path class="st8" d="M851.57,629.04h-22.51c-13.67,0-24.75-11.08-24.75-24.75v-20.75h72v20.75
		C876.31,617.96,865.23,629.04,851.57,629.04z"/>
	<path class="st6" d="M817.1,627.1c-8.5-4.47-13.78-13.21-13.78-22.8v-7.63h2v7.63c0,8.85,4.87,16.91,12.71,21.03L817.1,627.1z"/>
	<rect x="804.31" y="590.05" class="st3" width="72" height="2"/>
	<rect x="830.45" y="582.55" class="st6" width="45.86" height="2"/>
	<rect x="841.2" y="629.04" class="st6" width="51.62" height="2"/>
</g>
<polygon class="st1" points="492.69,244.4 450.58,266.3 448.07,251.54 491.8,239.18 "/>
<polygon class="st12" points="515.74,232.41 492.69,244.4 491.8,239.18 "/>
<polygon class="st9" points="515.74,232.41 491.8,239.18 490.02,228.73 "/>
<rect x="157.58" y="299.23" transform="matrix(0.9858 -0.168 0.168 0.9858 -49.125 32.7155)" class="st1" width="22.46" height="14.97"/>
<rect x="135.44" y="303" transform="matrix(0.9858 -0.168 0.168 0.9858 -50.0721 29.049)" class="st12" width="22.46" height="14.97"/>
<rect x="225.17" y="285.28" transform="matrix(0.9858 -0.168 0.168 0.9858 -43.3785 59.8926)" class="st6" width="214.13" height="2"/>
<rect x="171.53" y="309.14" transform="matrix(0.9858 -0.1681 0.1681 0.9858 -49.376 36.8999)" class="st5" width="43.54" height="2"/>
<polygon class="st5" points="136.03,320.91 130.79,290.15 132.77,289.82 137.67,318.6 167.9,313.45 168.24,315.42 "/>
<polygon class="st5" points="129.72,283.87 128.15,274.66 151.28,270.72 151.62,272.69 130.46,276.29 131.69,283.53 "/>
<rect x="181.94" y="629.04" class="st6" width="92.6" height="2"/>
<rect x="595.11" y="629.04" class="st6" width="9.39" height="2"/>
<rect x="301.69" y="629.04" class="st6" width="281.76" height="2"/>
<rect x="636.94" y="629.04" class="st6" width="137.33" height="2"/>
<rect x="160.19" y="629.04" class="st6" width="7.25" height="2"/>
<rect x="903.44" y="629.04" class="st6" width="19.5" height="2"/>
<rect x="175.84" y="267.65" transform="matrix(0.9858 -0.168 0.168 0.9858 -45.7049 33.7872)" class="st3" width="2" height="38.75"/>
<rect x="444.55" y="221.8" transform="matrix(0.9858 -0.1681 0.1681 0.9858 -33.4576 78.2532)" class="st3" width="2" height="29.95"/>
<rect x="155.12" y="296.99" transform="matrix(0.9858 -0.168 0.168 0.9858 -48.0235 30.4719)" class="st3" width="2" height="4.26"/>
<rect x="153.15" y="281.79" transform="matrix(0.9858 -0.168 0.168 0.9858 -46.117 29.9821)" class="st3" width="2" height="11.55"/>
<rect x="746.54" y="567.55" class="st5" width="2" height="46.83"/>
<rect x="746.54" y="351.77" class="st5" width="2" height="194.45"/>
<rect x="379.05" y="485.22" class="st5" width="2" height="59.83"/>
<rect x="379.05" y="471.63" class="st5" width="2" height="4.09"/>
<rect x="379.05" y="418.56" class="st5" width="2" height="48.16"/>
<polygon class="st5" points="654.8,206.7 559.25,206.7 559.25,204.7 652.8,204.7 652.8,155.7 654.8,155.7 "/>
<rect x="490.02" y="204.7" class="st5" width="58.36" height="2"/>
<polygon class="st11" points="748.54,233.02 746.54,233.02 746.54,156.7 717.58,156.7 717.58,154.7 748.54,154.7 "/>
<rect x="694.59" y="154.7" class="st11" width="14.34" height="2"/>
<rect x="346.87" y="233.52" transform="matrix(0.9858 -0.168 0.168 0.9858 -34.149 65.4467)" class="st5" width="45.59" height="2"/>
<polygon class="st5" points="268.42,403.79 217.58,617.08 233.89,621.39 294.81,410.77 "/>
<ellipse transform="matrix(0.7071 -0.7071 0.7071 0.7071 -371.5971 340.9683)" class="st5" cx="225.79" cy="619.04" rx="8.44" ry="8.44"/>
<path class="st6" d="M208.85,629.04h25.38v-10h-16.89l-9.69,5.29c-0.81,0.44-1.31,1.29-1.31,2.2l0,0
	C206.34,627.92,207.46,629.04,208.85,629.04z"/>
<ellipse transform="matrix(0.0354 -0.9994 0.9994 0.0354 17.7619 614.3271)" class="st5" cx="327.11" cy="297.96" rx="20" ry="20"/>
<path class="st5" d="M229.04,353.37c-6.43,3.92-14.83,1.88-18.75-4.55c-3.92-6.43-1.88-14.83,4.55-18.75
	c6.43-3.92,14.83-1.88,18.75,4.55C237.51,341.06,235.48,349.45,229.04,353.37z"/>
<polygon class="st5" points="284.09,316.79 229.5,353.08 212.34,332.03 258.93,285.93 "/>
<ellipse transform="matrix(0.6915 -0.7224 0.7224 0.6915 -132.5825 289.804)" class="st5" cx="273.02" cy="300.13" rx="20" ry="20"/>
<ellipse transform="matrix(0.6782 -0.7349 0.7349 0.6782 -132.7035 297.2195)" class="st5" cx="273.02" cy="300.13" rx="20" ry="20"/>
<ellipse transform="matrix(0.7204 -0.6936 0.6936 0.7204 -115.195 310.2043)" class="st5" cx="327.11" cy="297.96" rx="20" ry="20"/>
<circle class="st5" cx="281.7" cy="406.97" r="13.65"/>
<circle class="st5" cx="325.98" cy="406.97" r="13.65"/>
<path class="st5" d="M341.17,292.08l-0.89,99.78l-72.86,2.92l-8.88-99.39c-0.71-7.97,5.39-14.91,13.38-15.23l54.69-2.19
	C334.6,277.65,341.24,284.08,341.17,292.08z"/>
<path class="st5" d="M340.31,393.32l-0.67,13.65l-0.03,0.67c-0.36,7.27-6.36,12.98-13.63,12.98h-44.25
	c-7.28,0-13.28-5.71-13.63-12.98l-0.03-0.67l-0.67-13.65H340.31z"/>
<ellipse transform="matrix(0.7071 -0.7071 0.7071 0.7071 -343.7768 408.1325)" class="st5" cx="320.77" cy="619.04" rx="8.44" ry="8.44"/>
<polygon class="st3" points="288.27,279.5 309.14,350.8 319.83,299.32 318.98,278.27 "/>
<polygon class="st3" points="318.98,278.27 319.83,299.32 315.37,320.76 309.14,350.8 300.53,321.36 288.27,279.51 "/>
<path class="st5" d="M335.47,491.71l4.16-84.74h-27.3l0.01,84.74h-0.01l0,127.33h16.88l6.19-126.05
	C335.44,492.57,335.47,492.15,335.47,491.71L335.47,491.71z"/>
<ellipse transform="matrix(0.7886 -0.6149 0.6149 0.7886 -177.6257 269.9973)" class="st5" cx="303.85" cy="393.32" rx="36.46" ry="36.46"/>
<polygon class="st6" points="315.37,320.76 309.14,350.8 300.53,321.36 305.45,283.6 307.45,283.52 "/>
<path class="st6" d="M337.71,629.04h-25.38v-10h16.89l9.69,5.29c0.81,0.44,1.31,1.29,1.31,2.2l0,0
	C340.22,627.92,339.1,629.04,337.71,629.04z"/>
<rect x="287.72" y="251.92" transform="matrix(0.9992 -0.0401 0.0401 0.9992 -10.3988 12.246)" class="st4" width="25" height="27.09"/>
<path class="st6" d="M325.94,229.59l-3.61,0.44l-2.95-24.36l3.61-0.44c6.73-0.81,12.84,3.98,13.65,10.71l0,0
	C337.46,222.66,332.66,228.78,325.94,229.59z"/>
<path class="st6" d="M299.05,256.2l-9.02,1.09c-4.98,0.6-9.51-2.95-10.11-7.93l-1.2-9.88l18.05-2.18L299.05,256.2z"/>
<path class="st6" d="M323.42,229.26l-9.8,1.19l-3.79-31.35l8.76-1.06c5.98-0.72,11.41,3.54,12.14,9.52l1.3,10.73
	C332.68,223.69,328.83,228.6,323.42,229.26z"/>
<path class="st4" d="M324.08,262.47l-32.03,3.88l-4.37-36.07c-1.33-10.97,6.49-20.94,17.46-22.27h0
	c10.6-1.28,20.34,5.98,22.13,16.51l4.67,27.41C332.82,257.04,329.23,261.85,324.08,262.47z"/>
<path class="st13" d="M330.18,241.55l-2.9-17.04L330.18,241.55z"/>
<path class="st6" d="M292.98,206.03l2.7-0.33l4.11,33.97l-20.75,2.51l-1.93-15.92C275.91,216.29,283.01,207.24,292.98,206.03z"/>
<path class="st4" d="M289.38,244.36l5.41-0.66l-0.66-5.41c-0.36-2.99-3.08-5.12-6.07-4.76l0,0c-2.99,0.36-5.12,3.08-4.76,6.07l0,0
	C283.67,242.59,286.39,244.72,289.38,244.36z"/>
<path class="st6" d="M329.44,218.69l-20.55,2.49c-8.38,1.01-16.02-4.98-17.03-13.35c-0.48-3.99,2.36-7.61,6.34-8.09
	c3.99-0.48,7.61,2.36,8.09,6.34c0.05,0.42,0.43,0.71,0.85,0.66l20.55-2.49L329.44,218.69z"/>
<path class="st6" d="M320.9,212.4l-10.23,1.24c-3.99,0.48-7.61-2.36-8.09-6.34c-0.48-3.99,2.36-7.61,6.34-8.09l10.23-1.24
	c3.99-0.48,7.61,2.36,8.09,6.34C327.73,208.3,324.89,211.92,320.9,212.4z"/>
<path class="st6" d="M333.19,259.18c0.7,4.1-2.17,7.95-6.3,8.45l-14.35,1.74c-7.97,0.96-15.22-4.72-16.18-12.69l-2.05-16.9
	l5.41-0.65l0,0c0.4,3.32,3.42,5.69,6.74,5.29l23.71-2.87L333.19,259.18z"/>
<path class="st3" d="M327.95,246.77c0.39,3.01-1.74,5.77-4.75,6.16c-3.01,0.39-5.77-1.74-6.16-4.75L327.95,246.77z"/>
<g>
	<path class="st4" d="M290.89,410.14c0.64-4.37-2.38-8.44-6.75-9.08c-4.37-0.64-8.44,2.38-9.08,6.75c-0.64,4.37,2.38,8.44,6.75,9.08
		C286.18,417.53,290.25,414.51,290.89,410.14z"/>
	<path class="st4" d="M275.36,405.84c-0.48,3.28-3.53,5.55-6.81,5.07c-3.28-0.48-5.55-3.53-5.07-6.81c0.48-3.28,3.53-5.55,6.81-5.07
		C273.57,399.51,275.84,402.56,275.36,405.84z"/>
	<polygon class="st4" points="279.64,416.25 266.92,410.42 270.29,399.03 284.13,401.06 	"/>
</g>
<g>
	<polygon class="st5" points="264.99,409.02 274.54,401.84 233.59,334.62 211.88,350.94 258.21,401.6 262.25,406.02 	"/>
	<polygon class="st3" points="264.99,409.02 274.54,401.84 268.61,392.1 258.21,401.6 262.25,406.02 	"/>
	<polygon class="st4" points="264.99,409.02 274.54,401.84 271.79,397.31 262.26,406.02 	"/>
</g>
<polygon class="st5" points="328.3,278 402.05,282.34 402.78,309.52 329.38,317.83 "/>
<path class="st4" d="M367.33,229.62c0.77,3.22,4,5.21,7.23,4.44c3.22-0.77,5.21-4,4.44-7.23c-0.77-3.22-4-5.21-7.23-4.44
	C368.55,223.16,366.56,226.39,367.33,229.62z"/>
<path class="st4" d="M352.24,235.27c-1.02-4.3,1.63-8.61,5.93-9.64c4.3-1.02,8.61,1.63,9.64,5.93c1.02,4.3-1.63,8.61-5.93,9.64
	C357.58,242.22,353.27,239.57,352.24,235.27z"/>
<polygon class="st4" points="363.99,240.37 376.14,233.44 371.78,222.39 358.17,225.63 "/>
<ellipse transform="matrix(0.9239 -0.3827 0.3827 0.9239 -11.8912 226.6566)" class="st3" cx="563.8" cy="143.22" rx="8.54" ry="8.54"/>
<path class="st5" d="M572.89,146.1l-1.91-0.6c0.23-0.74,0.35-1.5,0.35-2.28c0-4.16-3.38-7.54-7.54-7.54c-2.89,0-5.49,1.61-6.77,4.21
	l-1.79-0.88c1.62-3.29,4.9-5.33,8.56-5.33c5.26,0,9.54,4.28,9.54,9.54C573.34,144.2,573.19,145.17,572.89,146.1z"/>
<path class="st5" d="M563.8,152.76c-5.26,0-9.54-4.28-9.54-9.54l0-0.27l2,0.05l0,0.22c0,4.16,3.38,7.54,7.54,7.54
	c0.79,0,1.57-0.12,2.31-0.36l0.61,1.9C565.78,152.61,564.79,152.76,563.8,152.76z"/>
<g>
	<path class="st3" d="M312.33,585.1v18.62V585.1z"/>
	<rect x="311.33" y="585.1" class="st6" width="2" height="18.62"/>
</g>
<g>
	<path class="st3" d="M312.33,506.05v72.17V506.05z"/>
	<rect x="311.33" y="506.05" class="st6" width="2" height="72.17"/>
</g>
<g>
	<path class="st3" d="M263.89,422.77l-14.47,60.7L263.89,422.77z"/>
	
		<rect x="225.46" y="452.11" transform="matrix(0.2315 -0.9728 0.9728 0.2315 -243.5613 597.9098)" class="st6" width="62.4" height="2"/>
</g>
<g>
	<path class="st3" d="M248.53,487.24l-1.63,6.85L248.53,487.24z"/>
	
		<rect x="244.19" y="489.66" transform="matrix(0.2315 -0.9728 0.9728 0.2315 -286.9682 618.0586)" class="st6" width="7.04" height="2"/>
</g>
<g>
	<path class="st3" d="M222.05,598.3l-1.77,7.43L222.05,598.3z"/>
	
		<rect x="217.35" y="601.02" transform="matrix(0.2315 -0.9728 0.9728 0.2315 -415.6976 677.8135)" class="st6" width="7.63" height="2"/>
</g>
<g>
	<path class="st3" d="M226.84,578.22l-3.86,16.2L226.84,578.22z"/>
	
		<rect x="216.58" y="585.32" transform="matrix(0.2315 -0.9728 0.9728 0.2315 -397.5493 669.3965)" class="st6" width="16.65" height="2"/>
</g>
<g>
	<path class="st3" d="M252.61,337.72l17.34-11.52L252.61,337.72z"/>
	
		<rect x="250.87" y="330.95" transform="matrix(0.8328 -0.5536 0.5536 0.8328 -140.075 200.1361)" class="st6" width="20.82" height="2"/>
</g>
<g>
	<path class="st3" d="M243.21,343.97l5.01-3.33L243.21,343.97z"/>
	
		<rect x="242.7" y="341.3" transform="matrix(0.8328 -0.5536 0.5536 0.8328 -148.4055 193.2498)" class="st6" width="6.01" height="2"/>
</g>
<g>
	<path class="st3" d="M355.97,314.82l39.95-4.53L355.97,314.82z"/>
	
		<rect x="355.84" y="311.56" transform="matrix(0.9936 -0.1128 0.1128 0.9936 -32.8697 44.4208)" class="st6" width="40.21" height="2"/>
</g>
<g>
	<path class="st3" d="M343.64,316.22l7.17-0.81L343.64,316.22z"/>
	
		<rect x="343.62" y="314.81" transform="matrix(0.9936 -0.1129 0.1129 0.9936 -33.422 41.2034)" class="st6" width="7.22" height="2"/>
</g>
<g>
	<path class="st3" d="M261.77,331.39l2.72,30.39L261.77,331.39z"/>
	
		<rect x="262.12" y="331.32" transform="matrix(0.996 -0.089 0.089 0.996 -29.8007 24.7926)" class="st6" width="2" height="30.51"/>
</g>
<g>
	<path class="st3" d="M265.15,368.92l0.33,3.67L265.15,368.92z"/>
	
		<rect x="264.32" y="368.91" transform="matrix(0.996 -0.0891 0.0891 0.996 -31.9742 25.1104)" class="st6" width="2" height="3.69"/>
</g>
<polygon class="st5" points="650.07,503.22 648.07,503.22 648.07,487.71 673.05,487.71 673.05,489.71 650.07,489.71 "/>
<path class="st2" d="M87.23,401.1c-4.96,0-9-4.04-9-9c0-4.96,4.04-9,9-9c4.96,0,9,4.04,9,9C96.23,397.07,92.19,401.1,87.23,401.1z
	 M87.23,385.1c-3.86,0-7,3.14-7,7c0,3.86,3.14,7,7,7c3.86,0,7-3.14,7-7C94.23,388.24,91.09,385.1,87.23,385.1z"/>
<g>
	<g>
		<rect x="886.47" y="159.01" class="st2" width="2" height="8.57"/>
		<rect x="886.47" y="210.44" class="st2" width="2" height="8.57"/>
	</g>
	<g>
		<rect x="873.62" y="162.46" transform="matrix(0.866 -0.5 0.5 0.866 33.8221 459.6939)" class="st2" width="2" height="8.57"/>
		
			<rect x="899.33" y="206.99" transform="matrix(0.866 -0.5001 0.5001 0.866 14.9993 478.5293)" class="st2" width="2" height="8.57"/>
	</g>
	<g>
		<rect x="864.21" y="171.87" transform="matrix(0.5 -0.8661 0.8661 0.5 280.0841 837.3964)" class="st2" width="2" height="8.57"/>
		
			<rect x="908.74" y="197.58" transform="matrix(0.5001 -0.866 0.866 0.5001 280.0089 888.757)" class="st2" width="2" height="8.57"/>
	</g>
	<g>
		<rect x="857.47" y="188.01" class="st2" width="8.57" height="2"/>
		<rect x="908.9" y="188.01" class="st2" width="8.57" height="2"/>
	</g>
	<g>
		
			<rect x="860.92" y="200.87" transform="matrix(0.8661 -0.4999 0.4999 0.8661 14.9595 459.5734)" class="st2" width="8.57" height="2"/>
		
			<rect x="905.46" y="175.15" transform="matrix(0.8661 -0.4999 0.4999 0.8661 33.7797 478.3952)" class="st2" width="8.57" height="2"/>
	</g>
	<g>
		
			<rect x="870.33" y="210.28" transform="matrix(0.4999 -0.8661 0.8661 0.4999 254.3924 863.1345)" class="st2" width="8.57" height="2"/>
		
			<rect x="896.05" y="165.74" transform="matrix(0.4999 -0.8661 0.8661 0.4999 305.8417 863.1469)" class="st2" width="8.57" height="2"/>
	</g>
</g>
<path class="st2" d="M438.77,113.72h-2c0-7.72-6.28-14-14-14v-2c7.72,0,14-6.28,14-14h2c0,7.72,6.28,14,14,14v2
	C445.05,99.72,438.77,106,438.77,113.72z M428.34,98.72c4.35,1.62,7.81,5.08,9.43,9.43c1.62-4.35,5.08-7.81,9.43-9.43
	c-4.35-1.62-7.81-5.08-9.43-9.43C436.15,93.64,432.69,97.1,428.34,98.72z"/>
<rect x="472.8" y="155.7" class="st3" width="2" height="51.77"/>
</svg>
