<?xml version="1.0" encoding="UTF-8" standalone="no"?>
<!DOCTYPE svg PUBLIC "-//W3C//DTD SVG 1.1//EN" "http://www.w3.org/Graphics/SVG/1.1/DTD/svg11.dtd">
<svg width="100%" height="100%" viewBox="0 0 6000 1700" version="1.1" xmlns="http://www.w3.org/2000/svg" xmlns:xlink="http://www.w3.org/1999/xlink" xml:space="preserve" xmlns:serif="http://www.serif.com/" style="fill-rule:evenodd;clip-rule:evenodd;stroke-linejoin:round;stroke-miterlimit:1.41421;">
    <g transform="matrix(106.377,0,0,106.377,-234.75,-75.9345)">
        <g transform="matrix(1,0,0,1,-45.9709,-18.151)">
            <path d="M72.102,28.198C72.41,28.198 72.664,28.172 72.865,28.121C73.066,28.07 73.227,28 73.348,27.911C73.469,27.822 73.553,27.717 73.6,27.596C73.647,27.475 73.67,27.339 73.67,27.19C73.67,26.873 73.521,26.609 73.222,26.399C72.923,26.189 72.41,25.963 71.682,25.72C71.365,25.608 71.047,25.48 70.73,25.335C70.413,25.19 70.128,25.008 69.876,24.789C69.624,24.57 69.419,24.304 69.26,23.991C69.101,23.678 69.022,23.298 69.022,22.85C69.022,22.402 69.106,21.998 69.274,21.639C69.442,21.28 69.68,20.974 69.988,20.722C70.296,20.47 70.669,20.276 71.108,20.141C71.547,20.006 72.041,19.938 72.592,19.938C73.245,19.938 73.81,20.008 74.286,20.148C74.762,20.288 75.154,20.442 75.462,20.61L74.832,22.332C74.561,22.192 74.26,22.068 73.929,21.961C73.598,21.854 73.199,21.8 72.732,21.8C72.209,21.8 71.834,21.872 71.605,22.017C71.376,22.162 71.262,22.383 71.262,22.682C71.262,22.859 71.304,23.009 71.388,23.13C71.472,23.251 71.591,23.361 71.745,23.459C71.899,23.557 72.076,23.646 72.277,23.725C72.478,23.804 72.699,23.886 72.942,23.97C73.446,24.157 73.885,24.341 74.258,24.523C74.631,24.705 74.942,24.917 75.189,25.16C75.436,25.403 75.621,25.687 75.742,26.014C75.863,26.341 75.924,26.737 75.924,27.204C75.924,28.109 75.607,28.812 74.972,29.311C74.337,29.81 73.381,30.06 72.102,30.06C71.673,30.06 71.285,30.034 70.94,29.983C70.595,29.932 70.289,29.869 70.023,29.794C69.757,29.719 69.528,29.64 69.337,29.556C69.146,29.472 68.985,29.393 68.854,29.318L69.47,27.582C69.759,27.741 70.116,27.883 70.541,28.009C70.966,28.135 71.486,28.198 72.102,28.198Z" style="fill-rule:nonzero;"/>
        </g>
        <g transform="matrix(1,0,0,1,-46.3148,-18.1355)">
            <path d="M77.394,20.666L79.48,20.33L79.48,22.5L81.986,22.5L81.986,24.236L79.48,24.236L79.48,26.826C79.48,27.265 79.557,27.615 79.711,27.876C79.865,28.137 80.175,28.268 80.642,28.268C80.866,28.268 81.097,28.247 81.335,28.205C81.573,28.163 81.79,28.105 81.986,28.03L82.28,29.654C82.028,29.757 81.748,29.845 81.44,29.92C81.132,29.995 80.754,30.032 80.306,30.032C79.737,30.032 79.265,29.955 78.892,29.801C78.519,29.647 78.22,29.432 77.996,29.157C77.772,28.882 77.616,28.548 77.527,28.156C77.438,27.764 77.394,27.33 77.394,26.854L77.394,20.666Z" style="fill-rule:nonzero;"/>
        </g>
        <g transform="matrix(1,0,0,1,-46.2314,-18.1215)">
            <path d="M86.214,28.408C86.419,28.408 86.615,28.403 86.802,28.394C86.989,28.385 87.138,28.371 87.25,28.352L87.25,26.77C87.166,26.751 87.04,26.733 86.872,26.714C86.704,26.695 86.55,26.686 86.41,26.686C86.214,26.686 86.03,26.698 85.857,26.721C85.684,26.744 85.533,26.789 85.402,26.854C85.271,26.919 85.169,27.008 85.094,27.12C85.019,27.232 84.982,27.372 84.982,27.54C84.982,27.867 85.092,28.093 85.311,28.219C85.53,28.345 85.831,28.408 86.214,28.408ZM86.046,22.304C86.662,22.304 87.175,22.374 87.586,22.514C87.997,22.654 88.326,22.855 88.573,23.116C88.82,23.377 88.995,23.695 89.098,24.068C89.201,24.441 89.252,24.857 89.252,25.314L89.252,29.654C88.953,29.719 88.538,29.796 88.006,29.885C87.474,29.974 86.83,30.018 86.074,30.018C85.598,30.018 85.166,29.976 84.779,29.892C84.392,29.808 84.058,29.67 83.778,29.479C83.498,29.288 83.283,29.038 83.134,28.73C82.985,28.422 82.91,28.044 82.91,27.596C82.91,27.167 82.996,26.803 83.169,26.504C83.342,26.205 83.573,25.967 83.862,25.79C84.151,25.613 84.483,25.484 84.856,25.405C85.229,25.326 85.617,25.286 86.018,25.286C86.289,25.286 86.529,25.298 86.739,25.321C86.949,25.344 87.119,25.375 87.25,25.412L87.25,25.216C87.25,24.861 87.143,24.577 86.928,24.362C86.713,24.147 86.34,24.04 85.808,24.04C85.453,24.04 85.103,24.066 84.758,24.117C84.413,24.168 84.114,24.241 83.862,24.334L83.596,22.654C83.717,22.617 83.869,22.577 84.051,22.535C84.233,22.493 84.431,22.456 84.646,22.423C84.861,22.39 85.087,22.362 85.325,22.339C85.563,22.316 85.803,22.304 86.046,22.304Z" style="fill-rule:nonzero;"/>
        </g>
        <g transform="matrix(1,0,0,1,-46.4974,-18.1635)">
            <path d="M90.792,26.182C90.792,25.65 90.878,25.148 91.051,24.677C91.224,24.206 91.473,23.795 91.8,23.445C92.127,23.095 92.523,22.817 92.99,22.612C93.457,22.407 93.989,22.304 94.586,22.304C94.978,22.304 95.337,22.339 95.664,22.409C95.991,22.479 96.308,22.579 96.616,22.71L96.182,24.376C95.986,24.301 95.771,24.236 95.538,24.18C95.305,24.124 95.043,24.096 94.754,24.096C94.138,24.096 93.678,24.287 93.375,24.67C93.072,25.053 92.92,25.557 92.92,26.182C92.92,26.845 93.062,27.358 93.347,27.722C93.632,28.086 94.129,28.268 94.838,28.268C95.09,28.268 95.361,28.245 95.65,28.198C95.939,28.151 96.205,28.077 96.448,27.974L96.742,29.682C96.499,29.785 96.196,29.873 95.832,29.948C95.468,30.023 95.067,30.06 94.628,30.06C93.956,30.06 93.377,29.96 92.892,29.759C92.407,29.558 92.008,29.285 91.695,28.94C91.382,28.595 91.154,28.186 91.009,27.715C90.864,27.244 90.792,26.733 90.792,26.182Z" style="fill-rule:nonzero;"/>
        </g>
        <g transform="matrix(1,0,0,1,-46.5181,-18.0655)">
            <path d="M100.228,25.16C100.433,24.936 100.646,24.703 100.865,24.46C101.084,24.217 101.297,23.977 101.502,23.739C101.707,23.501 101.901,23.275 102.083,23.06C102.265,22.845 102.421,22.659 102.552,22.5L105.03,22.5C104.535,23.069 104.052,23.613 103.581,24.131C103.11,24.649 102.594,25.183 102.034,25.734C102.314,25.986 102.603,26.287 102.902,26.637C103.201,26.987 103.49,27.349 103.77,27.722C104.05,28.095 104.307,28.469 104.54,28.842C104.773,29.215 104.969,29.556 105.128,29.864L102.734,29.864C102.585,29.621 102.414,29.353 102.223,29.059C102.032,28.765 101.829,28.471 101.614,28.177C101.399,27.883 101.173,27.601 100.935,27.33C100.697,27.059 100.461,26.831 100.228,26.644L100.228,29.864L98.142,29.864L98.142,19.336L100.228,19L100.228,25.16Z" style="fill-rule:nonzero;"/>
        </g>
        <g transform="matrix(1,0,0,1,-0.955222,-1.287)">
            <path d="M4.082,5.669L7.001,5.669L7.001,6.448L4.082,6.448L4.082,10.344C4.082,10.76 4.118,11.097 4.189,11.357C4.26,11.617 4.361,11.818 4.493,11.959C4.626,12.101 4.786,12.195 4.975,12.243C5.164,12.29 5.372,12.313 5.598,12.313C5.986,12.313 6.297,12.268 6.533,12.179C6.769,12.089 6.954,12.006 7.086,11.931L7.313,12.696C7.18,12.781 6.949,12.878 6.618,12.986C6.288,13.095 5.929,13.149 5.542,13.149C5.088,13.149 4.708,13.09 4.401,12.972C4.094,12.854 3.849,12.675 3.665,12.434C3.48,12.193 3.351,11.893 3.275,11.534C3.199,11.175 3.162,10.75 3.162,10.259L3.162,3.516L4.082,3.346L4.082,5.669Z" style="fill-rule:nonzero;"/>
        </g>
        <g transform="matrix(1,0,0,1,-0.740561,-1.287)">
            <path d="M8.701,12.993L8.701,2.17L9.622,2L9.622,5.882C9.924,5.768 10.231,5.681 10.543,5.62C10.854,5.558 11.166,5.528 11.478,5.528C12.044,5.528 12.516,5.608 12.894,5.768C13.272,5.929 13.574,6.158 13.801,6.455C14.028,6.753 14.186,7.109 14.275,7.525C14.365,7.941 14.41,8.399 14.41,8.899L14.41,12.993L13.489,12.993L13.489,9.197C13.489,8.677 13.454,8.238 13.383,7.879C13.312,7.52 13.194,7.228 13.029,7.001C12.863,6.774 12.644,6.611 12.37,6.512C12.096,6.413 11.751,6.363 11.336,6.363C11.175,6.363 11.003,6.377 10.819,6.406C10.635,6.434 10.462,6.465 10.302,6.498C10.141,6.531 9.997,6.566 9.87,6.604C9.742,6.642 9.659,6.67 9.622,6.689L9.622,12.993L8.701,12.993Z" style="fill-rule:nonzero;"/>
        </g>
        <g transform="matrix(1,0,0,1,-1.31255,-1.287)">
            <path d="M16.322,9.324C16.322,8.682 16.415,8.122 16.599,7.645C16.783,7.168 17.024,6.769 17.321,6.448C17.619,6.127 17.959,5.889 18.341,5.733C18.724,5.577 19.118,5.499 19.524,5.499C20.421,5.499 21.137,5.792 21.67,6.377C22.204,6.963 22.471,7.865 22.471,9.083C22.471,9.159 22.468,9.234 22.464,9.31C22.459,9.386 22.452,9.456 22.443,9.523L17.3,9.523C17.328,10.42 17.55,11.109 17.966,11.591C18.381,12.073 19.043,12.313 19.949,12.313C20.45,12.313 20.846,12.266 21.139,12.172C21.432,12.077 21.644,11.997 21.777,11.931L21.947,12.724C21.814,12.8 21.567,12.889 21.203,12.993C20.839,13.097 20.412,13.149 19.921,13.149C19.279,13.149 18.731,13.055 18.278,12.866C17.824,12.677 17.451,12.413 17.158,12.073C16.866,11.733 16.653,11.329 16.521,10.861C16.389,10.394 16.322,9.881 16.322,9.324ZM21.522,8.743C21.503,7.978 21.323,7.383 20.983,6.958C20.643,6.533 20.162,6.321 19.538,6.321C19.208,6.321 18.913,6.387 18.653,6.519C18.393,6.651 18.167,6.828 17.973,7.05C17.779,7.272 17.628,7.53 17.52,7.823C17.411,8.115 17.347,8.422 17.328,8.743L21.522,8.743Z" style="fill-rule:nonzero;"/>
        </g>
        <g transform="matrix(0.0121617,0,0,0.0121617,3.50405,15.4457)">
            <text x="0px" y="0px" style="font-family:'Ubuntu-Light', 'Ubuntu Light', sans-serif;font-weight:300;font-size:288px;">coding with knowledge.</text>
        </g>
    </g>
</svg>
