<?xml version="1.0" encoding="utf-8"?>
<!-- Generator: Adobe Illustrator 23.0.0, SVG Export Plug-In . SVG Version: 6.00 Build 0)  -->
<svg version="1.1" id="_x2014_ŽÓť_x5F_1" xmlns="http://www.w3.org/2000/svg" xmlns:xlink="http://www.w3.org/1999/xlink"
	 x="0px" y="0px" viewBox="0 0 1080 720" style="enable-background:new 0 0 1080 720;" xml:space="preserve">
<style type="text/css">
	.st0{fill:#F8F7FF;}
	.st1{fill:#7760DB;}
	.st2{fill:#40327A;}
	.st3{fill:#C4B8FF;}
	.st4{fill:#FFFFFF;}
	.st5{fill:#FF95A9;}
	.st6{fill:none;}
	.st7{fill:#F04F4F;}
	.st8{fill:#DDD6FF;}
	.st9{fill:#A796F2;}
	.st10{fill:#FFD4CC;}
	.st11{fill:#E5659B;}
</style>
<path class="st0" d="M194.42,620.22h710.73c117.33-68.24,96.17-207.9,63.65-231.39c-44.46-32.12-114.22,88.78-157.72,66.7
	c-124.27-63.1,134.13-240.81,30-281.99c-67.76-26.79-114.82,178.21-197.44,106.62c-42.98-37.25-3.94-91.48-12.17-135.48
	c-13.05-69.82-125.64-34-224.46,140.7c-41.66,73.64-98.76-63.9-145.33-80.06c-43.24-15-173.75,52.79-38.75,205.43
	C265.89,459.35,54,479.81,194.42,620.22z"/>
<path class="st1" d="M592.11,346.34c0.01-0.01,0.01-0.01,0.01-0.01l51.31-40.55l-27.6-28.69l-39.98,46.64l-62.07,17.85l-5.76,1.65
	l-3.9,1.12l2.18,11.75l78.31-6.79c0.03,0,0.07,0,0.1,0c2.76-0.24,5.25-1.29,7.28-2.89l0,0L592.11,346.34z"/>
<path class="st2" d="M551.61,353.18l-0.17-1.99l33.22-2.87c2.45-0.21,4.78-1.14,6.73-2.68l0.7-0.55l0,0l32.48-25.67l1.24,1.57
	l-33.87,26.77l-0.02-0.02c-2.1,1.46-4.53,2.35-7.09,2.57l-0.13,0.01L551.61,353.18z"/>
<rect x="533.98" y="352.16" transform="matrix(0.9963 -0.086 0.086 0.9963 -28.3594 47.7592)" class="st2" width="12.73" height="2"/>
<path class="st3" d="M124.96,305.68c-6.07,0-11-4.93-11-11c0-6.07,4.93-11,11-11c6.07,0,11,4.93,11,11
	C135.96,300.74,131.03,305.68,124.96,305.68z M124.96,285.68c-4.96,0-9,4.04-9,9c0,4.96,4.04,9,9,9c4.96,0,9-4.04,9-9
	C133.96,289.71,129.92,285.68,124.96,285.68z"/>
<g>
	<g>
		<rect x="407.95" y="108.59" class="st3" width="2" height="8.57"/>
		<rect x="407.95" y="160.02" class="st3" width="2" height="8.57"/>
	</g>
	<g>
		<rect x="395.09" y="112.04" transform="matrix(0.866 -0.5 0.5 0.866 -5.0896 213.6528)" class="st3" width="2" height="8.57"/>
		
			<rect x="420.81" y="156.58" transform="matrix(0.8661 -0.4999 0.4999 0.8661 -23.9259 232.4129)" class="st3" width="2" height="8.57"/>
	</g>
	<g>
		<rect x="385.68" y="121.45" transform="matrix(0.5 -0.866 0.866 0.5 84.4375 397.7279)" class="st3" width="2" height="8.57"/>
		
			<rect x="430.22" y="147.16" transform="matrix(0.4999 -0.8661 0.8661 0.4999 84.4807 449.2062)" class="st3" width="2" height="8.57"/>
	</g>
	<g>
		<rect x="378.95" y="137.59" class="st3" width="8.57" height="2"/>
		<rect x="430.38" y="137.59" class="st3" width="8.57" height="2"/>
	</g>
	<g>
		
			<rect x="382.4" y="150.45" transform="matrix(0.8661 -0.4999 0.4999 0.8661 -23.9246 213.5949)" class="st3" width="8.57" height="2"/>
		
			<rect x="426.93" y="124.73" transform="matrix(0.8661 -0.4999 0.4999 0.8661 -5.1042 232.4169)" class="st3" width="8.57" height="2"/>
	</g>
	<g>
		
			<rect x="391.81" y="159.86" transform="matrix(0.4999 -0.8661 0.8661 0.4999 58.7595 423.4865)" class="st3" width="8.57" height="2"/>
		
			<rect x="417.52" y="115.32" transform="matrix(0.4999 -0.8661 0.8661 0.4999 110.1998 423.4921)" class="st3" width="8.57" height="2"/>
	</g>
</g>
<path class="st3" d="M825.45,411.42h-2c0-8.82-7.18-16-16-16v-2c8.82,0,16-7.18,16-16h2c0,8.82,7.18,16,16,16v2
	C832.63,395.42,825.45,402.6,825.45,411.42z M813.37,394.42c5.17,1.81,9.27,5.91,11.08,11.08c1.81-5.17,5.91-9.27,11.08-11.08
	c-5.17-1.81-9.27-5.91-11.08-11.08C822.64,388.51,818.54,392.61,813.37,394.42z"/>
<ellipse transform="matrix(0.8789 -0.477 0.477 0.8789 -55.0479 361.8436)" class="st1" cx="685.16" cy="289.34" rx="20" ry="20"/>
<ellipse transform="matrix(0.9281 -0.3723 0.3723 0.9281 -62.6353 255.7669)" class="st1" cx="631.04" cy="290.09" rx="20" ry="20"/>
<path class="st1" d="M651.09,397.82c0.1,7.54-5.92,13.73-13.46,13.84c-7.54,0.1-13.73-5.92-13.84-13.46
	c-0.1-7.54,5.92-13.73,13.46-13.84C644.79,384.26,650.98,390.29,651.09,397.82z"/>
<ellipse transform="matrix(0.9882 -0.1533 0.1533 0.9882 -52.869 109.2213)" class="st1" cx="681.73" cy="397.4" rx="13.65" ry="13.65"/>
<path class="st1" d="M699.38,283.83l-3.52,99.72l-72.91,1l-6.26-99.59c-0.5-7.99,5.78-14.77,13.78-14.88l54.73-0.75
	C693.19,269.23,699.66,275.84,699.38,283.83z"/>
<rect x="674.06" y="359.97" transform="matrix(0.0352 -0.9994 0.9994 0.0352 311.4088 1044.5035)" class="st2" width="45.2" height="2"/>
<rect x="695.56" y="328.17" transform="matrix(0.0352 -0.9994 0.9994 0.0352 344.2728 1014.9439)" class="st2" width="4.43" height="2"/>
<rect x="618.78" y="305.65" transform="matrix(0.998 -0.0627 0.0627 0.998 -19.7496 39.5414)" class="st2" width="2" height="57.22"/>
<rect x="621.21" y="367.29" transform="matrix(0.998 -0.0628 0.0628 0.998 -22.1763 39.7859)" class="st2" width="2" height="11.2"/>
<path class="st1" d="M695.86,383.56l-0.48,13.66l-0.02,0.67c-0.26,7.27-6.18,13.07-13.45,13.17l-44.24,0.61
	c-7.28,0.1-13.35-5.53-13.81-12.79l-0.04-0.67l-0.86-13.64L695.86,383.56z"/>
<rect x="654.67" y="410.28" transform="matrix(0.9999 -0.0136 0.0136 0.9999 -5.5516 9.1142)" class="st2" width="20.59" height="2"/>
<polygon class="st1" points="651.09,397.82 652.25,482.55 629.12,482.87 623.8,398.2 "/>
<ellipse transform="matrix(0.7071 -0.7071 0.7071 0.7071 -242.2502 635.135)" class="st1" cx="645.55" cy="609.99" rx="8.44" ry="8.44"/>
<polygon class="st4" points="641.06,269.98 641.35,291.04 646.96,312.21 654.8,341.86 661.82,312 671.8,269.55 "/>
<ellipse transform="matrix(0.096 -0.9954 0.9954 0.096 98.7262 1074.1279)" class="st1" cx="640.69" cy="482.71" rx="11.57" ry="11.57"/>
<polygon class="st1" points="637.12,610.11 629.12,482.87 652.25,482.55 654,609.87 "/>
<rect x="633.03" y="523.69" transform="matrix(0.998 -0.0628 0.0628 0.998 -32.9535 40.869)" class="st2" width="2" height="42.52"/>
<rect x="635.59" y="572.28" transform="matrix(0.998 -0.0628 0.0628 0.998 -35.5067 41.1164)" class="st2" width="2" height="26.68"/>
<polygon class="st2" points="646.96,312.21 654.8,341.86 661.82,312 654.86,274.57 652.86,274.59 "/>
<rect x="646.64" y="242.61" transform="matrix(0.9999 -0.0138 0.0138 0.9999 -3.4603 9.0887)" class="st5" width="25" height="27.09"/>
<ellipse transform="matrix(0.8446 -0.5354 0.5354 0.8446 -214.806 479.9414)" class="st1" cx="719.33" cy="609.99" rx="8.44" ry="8.44"/>
<path class="st2" d="M628.61,620.22h25.38v-10H637.1l-9.69,5.29c-0.81,0.44-1.31,1.29-1.31,2.2l0,0
	C626.1,619.1,627.22,620.22,628.61,620.22z"/>
<path class="st2" d="M635.11,222.96l3.61,0.39l2.62-24.4l-3.61-0.39c-6.74-0.72-12.79,4.15-13.51,10.89l0,0
	C623.5,216.18,628.37,222.23,635.11,222.96z"/>
<path class="st2" d="M662.35,249.2l9.04,0.97c4.99,0.54,9.47-3.07,10.01-8.06l1.06-9.9l-18.07-1.94L662.35,249.2z"/>
<path class="st2" d="M637.62,222.59l9.81,1.05l3.38-31.4l-8.77-0.94c-5.99-0.64-11.37,3.69-12.01,9.68l-1.16,10.75
	C628.29,217.14,632.21,222.01,637.62,222.59z"/>
<path class="st5" d="M637.41,255.81l32.08,3.45l3.88-36.13c1.18-10.99-6.77-20.86-17.76-22.04h0c-10.62-1.14-20.26,6.25-21.91,16.8
	l-4.31,27.47C628.6,250.49,632.24,255.25,637.41,255.81z"/>
<path class="st6" d="M631.03,234.97l2.68-17.08L631.03,234.97z"/>
<path class="st2" d="M667.75,198.96l-2.71-0.29l-3.66,34.02l20.78,2.23l1.71-15.95C684.95,208.99,677.73,200.03,667.75,198.96z"/>
<path class="st5" d="M671.86,237.24l-5.42-0.58l0.58-5.42c0.32-2.99,3.01-5.16,6-4.84l0,0c2.99,0.32,5.16,3.01,4.84,6l0,0
	C677.54,235.39,674.86,237.56,671.86,237.24z"/>
<path class="st2" d="M631.46,212.11l20.58,2.21c8.39,0.9,15.95-5.19,16.85-13.58c0.43-3.99-2.46-7.58-6.45-8.01
	c-3.99-0.43-7.58,2.46-8.01,6.45c-0.04,0.42-0.42,0.72-0.84,0.68l-20.58-2.21L631.46,212.11z"/>
<path class="st2" d="M639.92,205.7l10.24,1.1c3.99,0.43,7.58-2.46,8.01-6.45c0.43-3.99-2.46-7.58-6.45-8.01l-10.24-1.1
	c-3.99-0.43-7.58,2.46-8.01,6.45C633.03,201.69,635.92,205.27,639.92,205.7z"/>
<path class="st2" d="M628.26,252.64c-0.64,4.11,2.28,7.92,6.41,8.36l14.36,1.54c7.98,0.86,15.15-4.92,16.01-12.9l1.82-16.92
	l-5.42-0.58l0,0c-0.36,3.33-3.35,5.74-6.67,5.38l-23.74-2.55L628.26,252.64z"/>
<path class="st4" d="M646.18,242.72c-0.33,3.02-3.05,5.2-6.07,4.87c-3.02-0.33-5.2-3.05-4.87-6.07L646.18,242.72z"/>
<rect x="438.12" y="364.48" transform="matrix(0.9974 -0.0714 0.0714 0.9974 -25.0252 32.2973)" class="st4" width="2" height="3.21"/>
<polygon class="st1" points="695.22,395.36 727.67,608.72 711.06,611.66 668.35,400.1 "/>
<rect x="673.74" y="407.36" transform="matrix(0.9802 -0.1979 0.1979 0.9802 -72.0988 142.057)" class="st2" width="2" height="48.84"/>
<rect x="695.78" y="462.14" transform="matrix(0.9802 -0.1979 0.1979 0.9802 -93.264 148.5771)" class="st2" width="2" height="157.6"/>
<path class="st2" d="M736.27,620.22h-25.38v-10h16.89l9.69,5.29c0.81,0.44,1.31,1.29,1.31,2.2l0,0
	C738.78,619.1,737.65,620.22,736.27,620.22z"/>
<path class="st2" d="M302.04,319.49c2.88-4.05,5.77-8.01,5.77-13.87c0-14.45-6.44-15-5.86-29.45c0.58-14.45,11.3-13.88,11.87-28.32
	c0.07-1.86-0.1-3.5-0.45-4.96c-1.13-1.9-2.08-3.9-2.85-5.99c-0.14-0.36-0.27-0.74-0.39-1.1c-1.24-3.71-1.91-7.67-1.91-11.79
	c0-20.52,16.64-37.16,37.16-37.16c20.53,0,37.18,16.64,37.18,37.16c0,4.11-0.66,8.08-1.91,11.79c-0.12,0.36-0.25,0.72-0.38,1.08
	c-0.01,0.01-0.01,0.01-0.01,0.01c-0.77,2.1-1.74,4.11-2.86,6.02c-0.34,1.46-0.51,3.09-0.44,4.94c0.58,14.45,11.28,13.88,11.86,28.32
	c0.58,14.45-5.86,15-5.86,29.45c0,5.86,2.88,9.82,5.78,13.87c2.87,4.06,5.75,8.22,5.75,14.46c0,17.9-14.5,32.4-32.4,32.4h-33.44
	c-17.9,0-32.39-14.5-32.39-32.4C296.29,327.71,299.17,323.55,302.04,319.49z"/>
<circle class="st7" cx="343.75" cy="358.21" r="23.25"/>
<circle class="st5" cx="357.39" cy="284.89" r="13"/>
<ellipse transform="matrix(0.2966 -0.955 0.955 0.2966 -22.8035 606.9254)" class="st8" cx="400.59" cy="318.94" rx="9.45" ry="9.45"/>
<polygon class="st8" points="366.09,275.25 406.92,311.92 395.24,326.72 350.02,295.62 "/>
<circle class="st9" cx="326.12" cy="611.22" r="6.5"/>
<circle class="st9" cx="351.5" cy="611.22" r="6.5"/>
<path class="st8" d="M370.37,285.49l-3.37,72.72h-46.5l-19.22-76.37c-1.27-5.05,2.55-9.95,7.76-9.95h48.34
	C364.8,271.89,370.71,278.08,370.37,285.49z"/>
<circle class="st8" cx="367.12" cy="310.61" r="13"/>
<ellipse transform="matrix(0.9953 -0.0964 0.0964 0.9953 -25.7997 35.7785)" class="st8" cx="357.39" cy="284.91" rx="13" ry="13"/>
<path class="st9" d="M367.01,358.21L367.01,358.21h-20.56H320.5l-2.51,1.95c-8.44,6.56-13.38,16.65-13.38,27.34v10
	c0,7.73,6.27,14,14,14H359c7.73,0,14-6.27,14-14l0-13.7C373,374.93,370.95,366.17,367.01,358.21z"/>
<rect x="349.25" y="284" transform="matrix(0.9353 -0.3539 0.3539 0.9353 -81.9269 147.4641)" class="st8" width="26.01" height="27.5"/>
<ellipse transform="matrix(0.9407 -0.3392 0.3392 0.9407 -78.2894 121.8569)" class="st8" cx="309.45" cy="284.89" rx="13" ry="13"/>
<polygon class="st8" points="301.54,274.57 257.95,307.91 268.42,323.59 315.95,296.15 "/>
<circle class="st9" cx="359" cy="397.5" r="14"/>
<circle class="st9" cx="318.62" cy="397.5" r="14"/>
<path class="st2" d="M332.62,611.22h-13v9h18.21c1.54,0,2.79-1.25,2.79-2.79l0,0c0-1-0.53-1.92-1.4-2.42L332.62,611.22z"/>
<path class="st2" d="M358,611.22h-13v9h18.21c1.54,0,2.79-1.25,2.79-2.79l0,0c0-1-0.53-1.92-1.4-2.42L358,611.22z"/>
<g>
	
		<rect x="330.25" y="244.81" transform="matrix(-0.9992 -0.0405 0.0405 -0.9992 671.7395 530.337)" class="st5" width="22" height="27.09"/>
	<path class="st5" d="M329.71,271.45c-0.25,6.07,4.47,11.19,10.55,11.44c6.07,0.25,11.19-4.47,11.44-10.55
		c0.25-6.07-4.47-11.19-10.55-11.44C335.07,260.65,329.95,265.38,329.71,271.45z"/>
</g>
<path class="st5" d="M330.06,237.99l5,0.2l0.41-9.99l-5-0.2c-2.76-0.11-5.09,2.03-5.2,4.79l0,0
	C325.16,235.55,327.3,237.88,330.06,237.99z"/>
<path class="st5" d="M369.79,210.57l-37.55-1.52l-1.97,48.47l23.32,0.95c9.34,0.38,17.06-7.2,16.86-16.54L369.79,210.57z"/>
<path class="st2" d="M331.47,228.04l-1-0.04l1.17-28.86l29.74,1.21c7.85,0.32,13.96,6.94,13.64,14.8l-0.02,0.57l-1-0.04
	c-8.51-0.35-16.9,2.09-23.89,6.95h0C344.65,226.41,338.11,228.31,331.47,228.04L331.47,228.04z"/>
<polygon class="st5" points="354.98,295.02 354.98,271.89 319.71,271.89 "/>
<ellipse transform="matrix(0.9978 -0.0663 0.0663 0.9978 -20.3265 18.1725)" class="st8" cx="263.7" cy="315.41" rx="9.45" ry="9.45"/>
<polygon class="st10" points="458.93,343.41 219.7,362.58 213.76,288.47 234.11,286.84 453,269.3 456.45,312.46 "/>
<g>
	<rect x="272.42" y="357.21" transform="matrix(0.9968 -0.08 0.08 0.9968 -27.7865 23.094)" class="st9" width="3.61" height="2"/>
	<polygon class="st9" points="280.12,358.74 279.96,356.75 457.86,342.49 454.65,302.52 456.65,302.36 460.01,344.33 	"/>
	<rect x="454.03" y="292.94" transform="matrix(0.9968 -0.08 0.08 0.9968 -22.1032 37.3237)" class="st9" width="2" height="3.48"/>
</g>
<g>
	<ellipse transform="matrix(0.5835 -0.8121 0.8121 0.5835 -28.5283 718.7773)" class="st5" cx="686.49" cy="387.2" rx="8" ry="8"/>
	<path class="st5" d="M694.05,383.94c0.54,3.27,3.62,5.49,6.89,4.95c3.27-0.54,5.49-3.62,4.95-6.89c-0.54-3.27-3.62-5.49-6.89-4.95
		C695.73,377.58,693.51,380.67,694.05,383.94z"/>
	<polygon class="st5" points="689.95,394.42 702.56,388.38 699,377.05 685.19,379.31 	"/>
</g>
<path class="st1" d="M751.65,306.03l0.01-0.02l-56.16-33.79l-17.16,35.93l46.65,16.93l-30.26,54.99l9.86,6.75l2.6-3.11l3.84-4.6
	l44.06-52.65l-0.01-0.01c0.56-0.67,1.06-1.39,1.5-2.18C760.11,317.83,757.89,309.79,751.65,306.03z"/>
<rect x="703.76" y="297.23" transform="matrix(0.3412 -0.94 0.94 0.3412 166.598 871.0634)" class="st2" width="2" height="38.89"/>
<polygon class="st4" points="704.58,386.82 694.72,380.07 700.22,370.08 711.02,379.11 707.18,383.71 "/>
<polygon class="st5" points="704.57,386.82 694.72,380.07 697.27,375.43 707.18,383.71 "/>
<polygon class="st9" points="332.62,397.5 332.62,611.22 319.63,611.68 304.65,398.5 "/>
<rect x="313.14" y="427.58" transform="matrix(0.9975 -0.0701 0.0701 0.9975 -35.6239 23.2976)" class="st1" width="2" height="183.3"/>
<rect x="330.62" y="520.53" class="st1" width="2" height="76.15"/>
<rect x="330.62" y="508.19" class="st1" width="2" height="4.87"/>
<polygon class="st9" points="345,397.5 345,611.22 357.98,611.68 372.97,398.5 "/>
<rect x="345" y="410.5" class="st1" width="2" height="199.75"/>
<rect x="350.53" y="604.92" transform="matrix(0.0356 -0.9994 0.9994 0.0356 -271.0487 940.035)" class="st1" width="2" height="11.06"/>
<rect x="334.5" y="452.65" transform="matrix(0.0703 -0.9975 0.9975 0.0703 -110.3291 788.9194)" class="st1" width="67.18" height="2"/>
<path class="st0" d="M155.75,396.72c-0.66-5.98-2.4-10.05-6.54-12.29c-12.27-6.65-43.06,4.14-55.87,20.8
	c-17.86,23.23-1.57,58.95,15.77,61.23C129.3,469.11,159.17,427.57,155.75,396.72z"/>
<g>
	<path class="st8" d="M772.81,245.82c-26.35,0-47.79-21.44-47.79-47.79s21.44-47.79,47.79-47.79c26.35,0,47.79,21.44,47.79,47.79
		S799.16,245.82,772.81,245.82z M772.81,152.23c-25.25,0-45.79,20.54-45.79,45.79s20.54,45.79,45.79,45.79s45.79-20.54,45.79-45.79
		S798.06,152.23,772.81,152.23z"/>
	<g>
		<circle class="st4" cx="772.81" cy="198.02" r="40"/>
		<path class="st9" d="M772.81,239.02c-22.61,0-41-18.39-41-41s18.39-41,41-41c22.61,0,41,18.39,41,41S795.41,239.02,772.81,239.02z
			 M772.81,159.02c-21.5,0-39,17.5-39,39s17.5,39,39,39c21.5,0,39-17.5,39-39S794.31,159.02,772.81,159.02z"/>
	</g>
	<g>
		<g>
			<g>
				<path class="st2" d="M772.81,158.02v8.41V158.02z"/>
				<rect x="771.81" y="158.02" class="st9" width="2" height="8.41"/>
			</g>
			<g>
				<path class="st2" d="M772.81,229.61v8.41V229.61z"/>
				<rect x="771.81" y="229.61" class="st9" width="2" height="8.41"/>
			</g>
		</g>
		<g>
			<g>
				<path class="st2" d="M752.81,163.38l4.21,7.29L752.81,163.38z"/>
				
					<rect x="753.91" y="162.82" transform="matrix(0.866 -0.5001 0.5001 0.866 17.6512 399.9114)" class="st9" width="2" height="8.41"/>
			</g>
			<g>
				<path class="st2" d="M788.6,225.38l4.21,7.29L788.6,225.38z"/>
				
					<rect x="789.7" y="224.81" transform="matrix(0.8661 -0.4999 0.4999 0.8661 -8.5891 425.9826)" class="st9" width="2" height="8.41"/>
			</g>
		</g>
		<g>
			<g>
				<path class="st2" d="M738.17,178.02l7.29,4.21L738.17,178.02z"/>
				<rect x="740.81" y="175.92" transform="matrix(0.5 -0.866 0.866 0.5 214.8923 732.4717)" class="st9" width="2" height="8.41"/>
			</g>
			<g>
				<path class="st2" d="M800.16,213.82l7.29,4.21L800.16,213.82z"/>
				<rect x="802.8" y="211.71" transform="matrix(0.5 -0.866 0.866 0.5 214.8916 804.0565)" class="st9" width="2" height="8.41"/>
			</g>
		</g>
		<g>
			<g>
				<path class="st2" d="M732.81,198.02h8.41H732.81z"/>
				<rect x="732.81" y="197.02" class="st9" width="8.41" height="2"/>
			</g>
			<g>
				<path class="st2" d="M804.39,198.02h8.41H804.39z"/>
				<rect x="804.39" y="197.02" class="st9" width="8.41" height="2"/>
			</g>
		</g>
		<g>
			<g>
				<path class="st2" d="M738.17,218.02l7.29-4.21L738.17,218.02z"/>
				
					<rect x="737.6" y="214.92" transform="matrix(0.8661 -0.4999 0.4999 0.8661 -8.5924 399.7666)" class="st9" width="8.41" height="2"/>
			</g>
			<g>
				<path class="st2" d="M800.16,182.23l7.29-4.21L800.16,182.23z"/>
				
					<rect x="799.6" y="179.13" transform="matrix(0.8661 -0.4999 0.4999 0.8661 17.6046 425.9662)" class="st9" width="8.41" height="2"/>
			</g>
		</g>
		<g>
			<g>
				<path class="st2" d="M752.81,232.66l4.21-7.29L752.81,232.66z"/>
				
					<rect x="750.7" y="228.02" transform="matrix(0.4999 -0.8661 0.8661 0.4999 179.1776 768.3461)" class="st9" width="8.41" height="2"/>
			</g>
			<g>
				<path class="st2" d="M788.6,170.67l4.21-7.29L788.6,170.67z"/>
				
					<rect x="786.5" y="166.03" transform="matrix(0.4999 -0.8661 0.8661 0.4999 250.756 768.3289)" class="st9" width="8.41" height="2"/>
			</g>
		</g>
		<polygon class="st9" points="791.81,199.02 771.81,199.02 771.81,173.66 773.81,173.66 773.81,197.02 791.81,197.02 		"/>
	</g>
</g>
<g>
	<path class="st2" d="M843.67,568.82c-8.05,0-14.6-6.55-14.6-14.6c0-8.05,6.55-14.6,14.6-14.6c8.05,0,14.6,6.55,14.6,14.6
		C858.28,562.27,851.73,568.82,843.67,568.82z M843.67,541.62c-6.95,0-12.6,5.65-12.6,12.6c0,6.95,5.65,12.6,12.6,12.6
		c6.95,0,12.6-5.65,12.6-12.6C856.28,547.27,850.62,541.62,843.67,541.62z"/>
	<g>
		<g>
			<rect x="795.67" y="554.22" class="st8" width="96" height="66"/>
		</g>
	</g>
	<rect x="881.68" y="554.22" class="st2" width="10" height="66"/>
	<rect x="795.67" y="586.22" class="st2" width="86" height="2"/>
	<rect x="831.67" y="586.22" class="st4" width="14" height="9"/>
</g>
<g>
	<path class="st8" d="M580.98,637.23H367.84H580.98z"/>
	<rect x="367.84" y="636.23" class="st3" width="213.14" height="2"/>
</g>
<g>
	<path class="st8" d="M420.29,652.47H286.66H420.29z"/>
	<rect x="286.66" y="651.47" class="st3" width="133.64" height="2"/>
</g>
<g>
	<path class="st8" d="M762.95,652.47H476.41H762.95z"/>
	<rect x="476.41" y="651.47" class="st3" width="286.54" height="2"/>
</g>
<g>
	<path class="st8" d="M307.77,637.46H212.5H307.77z"/>
	<rect x="212.5" y="636.46" class="st3" width="95.27" height="2"/>
</g>
<g>
	<path class="st8" d="M853.97,637.23H614.51H853.97z"/>
	<rect x="614.51" y="636.23" class="st3" width="239.45" height="2"/>
</g>
<rect x="100.8" y="620.22" class="st3" width="898.39" height="2"/>
<rect x="923.89" y="620.22" class="st2" width="9.19" height="2"/>
<g>
	<path class="st0" d="M864.93,621.22h46.12H864.93z"/>
	<rect x="864.93" y="620.22" class="st2" width="46.12" height="2"/>
</g>
<rect x="411.03" y="620.23" class="st2" width="160.25" height="2"/>
<rect x="599.75" y="620.22" class="st2" width="9.19" height="2"/>
<rect x="686.49" y="620.23" class="st2" width="85.54" height="2"/>
<rect x="298.37" y="620.23" class="st2" width="90.52" height="2"/>
<rect x="273" y="620.23" class="st2" width="8.25" height="2"/>
<rect x="472.55" y="355.12" class="st1" width="3.95" height="2"/>
<path class="st5" d="M499.81,350.65c-0.29-3.3,2.16-6.21,5.46-6.5c3.3-0.29,6.21,2.16,6.5,5.46s-2.16,6.21-5.46,6.5
	C503.01,356.4,500.1,353.95,499.81,350.65z"/>
<path class="st5" d="M500.05,351.88c-0.96-3.17,0.82-6.52,4-7.49c3.17-0.96,6.52,0.82,7.49,4c0.96,3.17-0.82,6.52-3.99,7.49
	C504.36,356.84,501.01,355.05,500.05,351.88z"/>
<g>
	<polygon class="st5" points="491.79,356.13 505.79,356.13 507.46,344.37 494.03,340.45 	"/>
	<ellipse transform="matrix(0.484 -0.8751 0.8751 0.484 -50.8653 610.0048)" class="st5" cx="491.79" cy="348.13" rx="8" ry="8"/>
	<path class="st5" d="M500.02,351.79c-0.92-3.18,0.92-6.51,4.11-7.43c3.18-0.92,6.51,0.92,7.43,4.11c0.92,3.18-0.92,6.51-4.11,7.43
		C504.26,356.81,500.94,354.98,500.02,351.79z"/>
</g>
<polygon class="st4" points="517.67,355.12 506.32,356.11 504.13,344.36 508.03,343.24 513.79,341.59 "/>
<polygon class="st5" points="504.13,344.36 506.31,356.11 511.59,355.65 508.03,343.24 "/>
<path class="st4" d="M358.24,245.45c-0.1,3.04-2.64,5.42-5.68,5.32s-5.42-2.64-5.32-5.68L358.24,245.45z"/>
<rect x="371" y="385.55" class="st1" width="2" height="5.19"/>
<path class="st1" d="M306.62,389.3h-2v-1.8c0-10.77,4.88-20.74,13.38-27.34l2.51-1.95h46.51l0.27,0.57
	c3.38,7.01,5.34,14.84,5.67,22.64l-2,0.08c-0.31-7.32-2.11-14.67-5.2-21.29h-44.56l-1.96,1.53c-8.01,6.22-12.61,15.62-12.61,25.76
	V389.3z"/>
<rect x="333.79" y="409.5" class="st1" width="17.04" height="2"/>
<g>
	<polygon class="st8" points="429.31,600.64 429.31,594.64 505.89,588.64 505.89,600.64 	"/>
	<rect x="504.89" y="507.69" class="st3" width="12" height="92.95"/>
	<polygon class="st3" points="592.46,600.64 592.46,594.64 515.89,588.64 515.89,600.64 	"/>
	<polygon class="st9" points="516.89,510.69 516.89,530.37 504.89,528.99 504.89,510.69 	"/>
	<path class="st11" d="M599.75,492.6h-70.94H599.75z"/>
	<path class="st11" d="M599.75,492.6h-49.47c-6.29,0-11.52-4.87-11.97-11.14l-8.38-116.98c-0.34-4.74-4.29-8.35-8.97-8.35l0-0.01
		h-90.94l0,0.01c-0.22,0-0.43,0-0.66,0.01c-4.96,0.36-8.69,4.66-8.34,9.62l8.37,116.97c1.12,15.7,14.19,27.86,29.92,27.86h17.45l0,0
		h73.48h0h49.48c4.97,0,9-4.03,9-9C608.75,496.63,604.72,492.6,599.75,492.6z"/>
	<path class="st5" d="M447.38,481.46L439,364.49c-0.36-4.96-4.67-8.69-9.63-8.34l0,0c-4.96,0.36-8.69,4.66-8.34,9.62l8.37,116.97
		c1.12,15.7,14.19,27.86,29.92,27.86h59.48c4.97,0,9-4.03,9-9l0,0c0-4.97-4.03-9-9-9h-59.47
		C453.05,492.6,447.83,487.74,447.38,481.46z"/>
	<g>
		<circle class="st2" cx="434.03" cy="612.72" r="7.5"/>
		<circle class="st2" cx="510.89" cy="612.72" r="7.5"/>
		<circle class="st2" cx="587.74" cy="612.72" r="7.5"/>
	</g>
	<g>
		<g>
			<rect x="451.71" y="372.91" class="st5" width="66.87" height="2"/>
			<rect x="452.91" y="389.73" class="st5" width="66.88" height="2"/>
			<rect x="454.12" y="406.54" class="st5" width="66.87" height="2"/>
			<rect x="455.32" y="423.35" class="st5" width="66.88" height="2"/>
			<rect x="456.52" y="440.16" class="st5" width="66.88" height="2"/>
			<rect x="457.73" y="456.98" class="st5" width="66.88" height="2"/>
			<rect x="458.93" y="473.79" class="st5" width="66.88" height="2"/>
		</g>
	</g>
	<path class="st4" d="M530.67,493.6h-71.32c-6.79,0-12.48-5.3-12.97-12.07l-7.82-109.17l1.99-0.14l7.82,109.17
		c0.41,5.73,5.23,10.21,10.97,10.21h71.32V493.6z"/>
	<rect x="535.34" y="491.6" class="st4" width="4.18" height="2"/>
	<rect x="515.89" y="510.69" class="st1" width="2" height="58.61"/>
	<rect x="515.89" y="572.47" class="st1" width="2" height="3.83"/>
	<rect x="429.31" y="599.64" class="st1" width="38.29" height="2"/>
	<rect x="473.84" y="599.64" class="st1" width="7" height="2"/>
	<rect x="496.84" y="599.64" class="st1" width="95.62" height="2"/>
	<rect x="575.42" y="509.6" class="st1" width="5.62" height="2"/>
	<path class="st1" d="M554.92,511.6h-95.58c-16.18,0-29.77-12.64-30.92-28.79l-4.72-65.96l1.99-0.14l4.72,65.96
		c1.08,15.1,13.79,26.93,28.93,26.93h95.58V511.6z"/>
	<path class="st1" d="M422.68,402.63l-2.63-36.78c-0.39-5.41,3.62-10.14,8.99-10.67v-0.04l1-0.01h35.52v2l-35.52,0.01
		c-0.24,0-0.41,0-0.59,0.01c-4.4,0.32-7.72,4.15-7.41,8.55l2.63,36.78L422.68,402.63z"/>
	<path class="st1" d="M530,379.41l-1.06-14.85c-0.17-2.44-1.43-4.63-3.45-6.02l1.13-1.65c2.53,1.73,4.1,4.48,4.32,7.53l1.06,14.85
		L530,379.41z"/>
	
		<rect x="530.66" y="379.31" transform="matrix(0.9974 -0.0714 0.0714 0.9974 -26.3968 38.9787)" class="st1" width="2" height="18.32"/>
	
		<rect x="532.89" y="402.51" transform="matrix(0.9974 -0.0715 0.0715 0.9974 -28.6261 39.2255)" class="st1" width="2" height="34.34"/>
	
		<rect x="534.81" y="444.3" transform="matrix(0.9974 -0.0714 0.0714 0.9974 -30.507 39.3943)" class="st1" width="2" height="4.27"/>
	<path class="st1" d="M599.75,511.6h-14v-2h14c4.41,0,8-3.59,8-8c0-4.41-3.59-8-8-8h-49.47c-6.79,0-12.48-5.3-12.96-12.07
		l-1.35-18.91l1.99-0.14l1.35,18.91c0.41,5.73,5.23,10.21,10.97,10.21h49.47c5.51,0,10,4.49,10,10S605.27,511.6,599.75,511.6z"/>
</g>
<g>
	<path class="st11" d="M261.22,311.84l-1.69,0.35l-2.75,18.33l-3.86,0.31l-4.89-13.37l-0.09,0.01l-2.7,13.98l-3.86,0.31l-5.67-17.66
		l-1.71-0.08l-0.2-2.5l7.62-0.61l0.2,2.5l-1.87,0.48l3.28,11.16l0.09,0.01l2.75-14.51l3.06-0.25l5.05,13.88l0.08-0.02l1.45-11.54
		l-1.92-0.18l-0.2-2.5l7.61-0.61L261.22,311.84z"/>
	<path class="st11" d="M276.55,319.77l-7.01,0.56l0.47,5.92l6.69-0.54l-0.01-2.49l3.16-0.25l0.45,5.66l-16.39,1.31l-0.2-2.49
		l2.17-0.6l-1.19-14.87l-2.24-0.25l-0.2-2.5l2.21-0.18l14.16-1.13l0.45,5.68l-3.19,0.25l-0.38-2.46l-6.63,0.53l0.42,5.21l7.01-0.56
		L276.55,319.77z"/>
	<path class="st11" d="M285.63,308.61c0.08,0.95-0.09,1.97-0.51,3.06c-0.42,1.09-0.96,1.99-1.63,2.71l-2.14-0.96
		c0.32-0.68,0.55-1.39,0.69-2.11c0.14-0.72,0.18-1.53,0.11-2.42l-0.22-2.72l3.48-0.28L285.63,308.61z"/>
	<path class="st11" d="M296.85,306.47c2.35-0.19,4.24,0.2,5.66,1.17c1.42,0.97,2.21,2.4,2.36,4.3c0.08,1.04-0.12,1.97-0.62,2.78
		c-0.5,0.81-1.27,1.5-2.31,2.06c1.25,0.26,2.18,0.79,2.78,1.59c0.6,0.8,0.95,1.82,1.05,3.06l0.08,1.05c0.04,0.46,0.16,0.8,0.35,1.04
		c0.2,0.24,0.51,0.36,0.93,0.38l0.52,0.03l0.2,2.5l-2.15,0.17c-1.36,0.11-2.34-0.18-2.95-0.87c-0.61-0.69-0.96-1.61-1.05-2.76
		l-0.09-1.18c-0.08-1-0.41-1.77-0.99-2.3c-0.58-0.53-1.36-0.77-2.34-0.72l-3.4,0.27l0.44,5.46l2.25,0.25l0.2,2.49l-8.58,0.69
		l-0.2-2.49l2.17-0.6l-1.19-14.87l-2.24-0.25l-0.2-2.5l2.2-0.18L296.85,306.47z M294.64,315.83l2.87-0.23
		c1.16-0.09,2.01-0.41,2.54-0.95c0.54-0.54,0.77-1.27,0.7-2.2c-0.07-0.93-0.42-1.65-1.04-2.16c-0.62-0.51-1.49-0.72-2.61-0.63
		l-2.94,0.24L294.64,315.83z"/>
	<path class="st11" d="M321.88,316.14l-7.01,0.56l0.47,5.92l6.69-0.54l-0.01-2.49l3.16-0.25l0.45,5.66l-16.39,1.31l-0.2-2.49
		l2.17-0.6l-1.19-14.87l-2.24-0.25l-0.2-2.5l2.21-0.18l14.15-1.13l0.45,5.68l-3.19,0.25l-0.38-2.46l-6.63,0.53l0.42,5.21l7.01-0.56
		L321.88,316.14z"/>
	<path class="st11" d="M333.53,306.05l-0.2-2.5l8.58-0.69l0.2,2.5l-2.18,0.6l0.48,5.97l8.45-0.68l-0.48-5.97l-2.25-0.25l-0.2-2.5
		l2.22-0.18l4.14-0.33l2.22-0.18l0.2,2.5l-2.19,0.6l1.19,14.87l2.25,0.25l0.2,2.49l-8.58,0.69l-0.2-2.49l2.19-0.61l-0.46-5.69
		l-8.45,0.68l0.46,5.69l2.25,0.25l0.2,2.49l-8.58,0.69l-0.2-2.49l2.17-0.6l-1.19-14.87L333.53,306.05z"/>
	<path class="st11" d="M356.29,304.22l-0.2-2.5l8.58-0.69l0.2,2.5l-2.19,0.61l1.19,14.87l2.25,0.25l0.2,2.49l-8.58,0.69l-0.2-2.49
		l2.18-0.61l-1.19-14.87L356.29,304.22z"/>
	<path class="st11" d="M375.55,300.16c2.35-0.19,4.24,0.2,5.66,1.17c1.42,0.97,2.21,2.4,2.36,4.3c0.08,1.04-0.12,1.97-0.62,2.78
		c-0.5,0.81-1.27,1.5-2.31,2.06c1.25,0.26,2.18,0.79,2.78,1.59c0.6,0.8,0.95,1.82,1.05,3.06l0.08,1.05c0.04,0.46,0.16,0.8,0.35,1.04
		c0.2,0.24,0.51,0.36,0.93,0.38l0.52,0.03l0.2,2.5l-2.15,0.17c-1.36,0.11-2.34-0.18-2.95-0.87c-0.61-0.68-0.96-1.61-1.05-2.76
		l-0.09-1.18c-0.08-1-0.41-1.77-0.99-2.3c-0.58-0.53-1.36-0.77-2.34-0.72l-3.4,0.27l0.44,5.46l2.25,0.25l0.2,2.49l-8.58,0.69
		l-0.2-2.49l2.17-0.6l-1.19-14.87l-2.24-0.25l-0.2-2.5l2.2-0.18L375.55,300.16z M373.34,309.53l2.87-0.23
		c1.16-0.09,2.01-0.41,2.54-0.95c0.54-0.54,0.77-1.27,0.7-2.2c-0.07-0.93-0.42-1.65-1.04-2.16c-0.62-0.51-1.49-0.72-2.61-0.63
		l-2.94,0.24L373.34,309.53z"/>
	<path class="st11" d="M386.46,301.81l-0.2-2.5l8.58-0.69l0.2,2.5l-2.19,0.6l1.19,14.87l2.25,0.25l0.2,2.49l-8.58,0.69l-0.2-2.49
		l2.18-0.61l-1.19-14.87L386.46,301.81z"/>
	<path class="st11" d="M417.58,296.79l0.2,2.5l-2.18,0.6l1.42,17.78l-4.14,0.33l-9.48-13.27l-0.08,0.02l0.88,11.01l2.25,0.25
		l0.2,2.49l-8.58,0.69l-0.2-2.49l2.17-0.6l-1.19-14.87l-2.24-0.25l-0.2-2.5l2.21-0.18l4.15-0.33l9.48,13.27l0.08-0.02l-0.88-11
		l-2.25-0.25l-0.2-2.5l6.36-0.51L417.58,296.79z"/>
	<path class="st11" d="M437.57,313.72c-0.62,0.72-1.55,1.4-2.8,2.04c-1.25,0.64-2.86,1.04-4.83,1.2c-2.8,0.22-5.15-0.53-7.05-2.26
		c-1.9-1.73-2.98-4.1-3.22-7.09l-0.06-0.71c-0.25-3.1,0.42-5.69,1.99-7.78c1.57-2.08,3.76-3.24,6.54-3.46
		c1.62-0.13,3.12,0.01,4.51,0.42c1.38,0.41,2.56,1.02,3.52,1.83l0.33,4.17l-3.07,0.25l-0.81-2.73c-0.41-0.29-0.93-0.51-1.56-0.66
		c-0.64-0.14-1.36-0.19-2.16-0.12c-1.81,0.15-3.17,0.93-4.07,2.34c-0.9,1.42-1.26,3.21-1.09,5.37l0.06,0.74
		c0.17,2.11,0.8,3.75,1.88,4.92c1.09,1.18,2.56,1.69,4.42,1.54c0.83-0.07,1.5-0.19,2.01-0.38c0.5-0.18,0.9-0.38,1.18-0.6l-0.28-3.51
		l-2.98,0.01l-0.23-2.92l7.13-0.57L437.57,313.72z"/>
</g>
<polygon class="st4" points="218.78,363.66 212.68,287.55 453.91,268.22 454.82,279.57 452.83,279.73 452.08,270.38 214.84,289.39 
	220.62,361.5 256.85,358.6 257.01,360.59 "/>
<path class="st5" d="M224.53,336.83c0.31,3.85-2.56,7.23-6.42,7.54c-3.85,0.31-7.23-2.56-7.54-6.42c-0.31-3.85,2.56-7.23,6.42-7.54
	C220.85,330.11,224.22,332.98,224.53,336.83z"/>
<path class="st5" d="M464.05,319.65c0.31,3.85-2.56,7.23-6.42,7.54c-3.85,0.31-7.23-2.56-7.54-6.42c-0.31-3.85,2.56-7.23,6.42-7.54
	C460.37,312.92,463.74,315.79,464.05,319.65z"/>
</svg>
