<?xml version="1.0" encoding="UTF-8"?>
<svg width="176px" height="176px" viewBox="0 0 176 176" version="1.1" xmlns="http://www.w3.org/2000/svg" xmlns:xlink="http://www.w3.org/1999/xlink">
    <!-- Generator: Sketch 52.6 (67491) - http://www.bohemiancoding.com/sketch -->
    <title>Logo / Quadratisch / White</title>
    <desc>Created with Sketch.</desc>
    <g id="Logo-/-Quadratisch-/-White" stroke="none" stroke-width="1" fill="none" fill-rule="evenodd">
        <g>
            <rect id="Rectangle" x="0" y="0" width="176" height="176"></rect>
            <g id="logo-v3" transform="translate(27.000000, 53.000000)" fill="#FFFFFF">
                <g id="Group" transform="translate(0.000000, 14.000000)" stroke="#FFFFFF" stroke-width="0.5">
                    <path d="M10.9297872,15.98375 C10.4338298,16.836875 9.75021277,17.50625 8.86553191,17.991875 C7.98085106,18.4775 6.98893617,18.71375 5.86297872,18.71375 C4.73702128,18.71375 3.73170213,18.4775 2.86042553,17.991875 C1.98914894,17.50625 1.30553191,16.836875 0.809574468,15.98375 C0.313617021,15.130625 0.0723404255,14.14625 0.0723404255,13.04375 C0.0723404255,12.67625 0.192978723,12.3875 0.434255319,12.164375 C0.675531915,11.94125 0.970425532,11.823125 1.33234043,11.823125 C1.70765957,11.823125 2.00255319,11.94125 2.23042553,12.164375 C2.45829787,12.3875 2.57893617,12.689375 2.57893617,13.04375 C2.57893617,14.054375 2.88723404,14.88125 3.49042553,15.524375 C4.09361702,16.1675 4.88446809,16.495625 5.84957447,16.495625 C6.81468085,16.495625 7.60553191,16.1675 8.22212766,15.524375 C8.8387234,14.88125 9.14702128,14.054375 9.14702128,13.04375 L9.14702128,1.2575 C9.14702128,0.89 9.26765957,0.60125 9.49553191,0.378125 C9.72340426,0.155 10.0182979,0.036875 10.3802128,0.036875 C10.7555319,0.036875 11.0504255,0.155 11.2917021,0.378125 C11.5329787,0.60125 11.653617,0.903125 11.653617,1.2575 L11.653617,13.04375 C11.6670213,14.14625 11.4257447,15.130625 10.9297872,15.98375 Z" id="Path"></path>
                    <path d="M26.143617,6.2975 C27.1489362,6.861875 27.9397872,7.63625 28.502766,8.620625 C29.0791489,9.618125 29.3606383,10.746875 29.3606383,12.02 C29.3606383,13.28 29.0791489,14.40875 28.5161702,15.393125 C27.9531915,16.390625 27.1623404,17.165 26.1704255,17.71625 C25.1651064,18.280625 24.0123404,18.55625 22.7255319,18.55625 C21.4387234,18.55625 20.2859574,18.280625 19.2806383,17.71625 C18.2753191,17.151875 17.4844681,16.3775 16.9214894,15.393125 C16.3585106,14.395625 16.0770213,13.28 16.0770213,12.02 C16.0770213,10.746875 16.3585106,9.605 16.9214894,8.620625 C17.4844681,7.623125 18.2753191,6.84875 19.2806383,6.2975 C20.2859574,5.74625 21.4387234,5.4575 22.7255319,5.4575 C23.9989362,5.4575 25.1382979,5.733125 26.143617,6.2975 Z M20.5138298,8.148125 C19.8570213,8.52875 19.3476596,9.05375 18.9857447,9.73625 C18.6238298,10.41875 18.4361702,11.18 18.4361702,12.033125 C18.4361702,12.88625 18.6238298,13.6475 18.9857447,14.316875 C19.3610638,14.98625 19.8704255,15.51125 20.5138298,15.891875 C21.1706383,16.2725 21.9078723,16.45625 22.7255319,16.45625 C23.5431915,16.45625 24.2804255,16.2725 24.937234,15.891875 C25.5940426,15.51125 26.09,14.98625 26.4519149,14.316875 C26.8138298,13.6475 26.9880851,12.88625 26.9880851,12.033125 C26.9880851,11.18 26.8138298,10.41875 26.4519149,9.73625 C26.09,9.05375 25.5806383,8.52875 24.937234,8.148125 C24.2804255,7.7675 23.5431915,7.58375 22.7255319,7.58375 C21.9078723,7.58375 21.1706383,7.780625 20.5138298,8.148125 Z" id="Shape" fill-rule="nonzero"></path>
                    <path d="M34.7357447,0.02375 C35.0842553,0.02375 35.3791489,0.12875 35.6204255,0.351875 C35.8482979,0.575 35.9689362,0.86375 35.9689362,1.23125 L35.9689362,7.61 C36.5319149,6.9275 37.2155319,6.4025 38.0197872,6.021875 C38.8240426,5.64125 39.6953191,5.4575 40.6202128,5.4575 C41.7729787,5.4575 42.8319149,5.74625 43.7702128,6.310625 C44.7085106,6.875 45.4457447,7.6625 45.9953191,8.66 C46.5314894,9.6575 46.7995745,10.773125 46.7995745,12.006875 C46.7995745,13.240625 46.5046809,14.35625 45.9282979,15.35375 C45.3519149,16.35125 44.5476596,17.13875 43.5289362,17.71625 C42.5102128,18.29375 41.3842553,18.5825 40.1376596,18.5825 C38.9044681,18.5825 37.7785106,18.29375 36.7731915,17.71625 C35.7678723,17.13875 34.9770213,16.35125 34.387234,15.35375 C33.7974468,14.35625 33.5025532,13.240625 33.5025532,12.006875 L33.5025532,1.23125 C33.5025532,0.86375 33.6097872,0.575 33.8376596,0.351875 C34.0655319,0.141875 34.3738298,0.02375 34.7357447,0.02375 Z M40.1376596,16.443125 C40.9419149,16.443125 41.6657447,16.24625 42.3225532,15.865625 C42.9793617,15.485 43.4887234,14.946875 43.8640426,14.2775 C44.2393617,13.595 44.4270213,12.846875 44.4270213,12.006875 C44.4270213,11.166875 44.2393617,10.41875 43.8640426,9.749375 C43.4887234,9.08 42.9659574,8.555 42.3225532,8.16125 C41.6657447,7.780625 40.9419149,7.58375 40.1376596,7.58375 C39.3334043,7.58375 38.6095745,7.780625 37.952766,8.16125 C37.2959574,8.541875 36.7865957,9.08 36.4246809,9.749375 C36.0493617,10.41875 35.8751064,11.166875 35.8751064,12.006875 C35.8751064,12.846875 36.062766,13.595 36.4246809,14.2775 C36.7865957,14.96 37.3093617,15.485 37.952766,15.865625 C38.6095745,16.24625 39.3334043,16.443125 40.1376596,16.443125 Z" id="Shape" fill-rule="nonzero"></path>
                    <path d="M58.8768085,5.95625 C59.7078723,6.284375 60.3646809,6.74375 60.847234,7.32125 C61.0617021,7.570625 61.1555319,7.82 61.1555319,8.0825 C61.1555319,8.345 61.0214894,8.594375 60.74,8.8175 C60.5657447,8.94875 60.3378723,9.00125 60.0697872,9.00125 C59.6542553,9.00125 59.2789362,8.856875 58.9304255,8.555 C58.5282979,8.1875 58.0993617,7.938125 57.6570213,7.79375 C57.2012766,7.649375 56.6651064,7.570625 56.0217021,7.570625 C55.2844681,7.570625 54.6812766,7.68875 54.1987234,7.938125 C53.7295745,8.1875 53.4882979,8.52875 53.4882979,8.961875 C53.4882979,9.276875 53.5687234,9.539375 53.7295745,9.749375 C53.8904255,9.959375 54.1987234,10.15625 54.6410638,10.34 C55.0834043,10.52375 55.7402128,10.694375 56.5980851,10.878125 C58.3540426,11.219375 59.6006383,11.705 60.3244681,12.321875 C61.0482979,12.93875 61.423617,13.72625 61.423617,14.710625 C61.423617,15.4325 61.2225532,16.08875 60.8204255,16.679375 C60.4182979,17.27 59.8285106,17.729375 59.0510638,18.070625 C58.273617,18.411875 57.3353191,18.5825 56.2361702,18.5825 C55.1370213,18.5825 54.1182979,18.411875 53.1531915,18.08375 C52.1880851,17.755625 51.4374468,17.3225 50.8878723,16.784375 C50.6734043,16.574375 50.5795745,16.338125 50.5795745,16.049375 C50.5795745,15.66875 50.7404255,15.366875 51.0621277,15.130625 C51.3704255,14.9075 51.6519149,14.8025 51.9065957,14.8025 C52.2282979,14.8025 52.5365957,14.946875 52.8180851,15.2225 C53.126383,15.550625 53.5821277,15.839375 54.1987234,16.08875 C54.8153191,16.338125 55.4587234,16.45625 56.1557447,16.45625 C57.067234,16.45625 57.7776596,16.311875 58.2870213,16.01 C58.796383,15.708125 59.0510638,15.314375 59.0510638,14.8025 C59.0510638,14.316875 58.796383,13.91 58.3004255,13.581875 C57.8044681,13.25375 56.96,12.99125 55.7670213,12.768125 C52.6840426,12.190625 51.1291489,10.94375 51.1291489,9.040625 C51.1291489,8.26625 51.3570213,7.61 51.8261702,7.085 C52.2953191,6.546875 52.8985106,6.153125 53.6625532,5.8775 C54.4131915,5.615 55.2174468,5.470625 56.0753191,5.470625 C57.1074468,5.4575 58.0457447,5.628125 58.8768085,5.95625 Z" id="Path"></path>
                </g>
                <g id="Group" transform="translate(71.000000, 0.000000)">
                    <polygon id="Path" points="26.5657895 27.4435484 26.5657895 20.8703226 21.5921053 27.4435484"></polygon>
                    <path d="M43.5131579,10.2235484 L6.60526316,10.2235484 C3.27631579,10.2235484 0.578947368,12.9348387 0.578947368,16.2809677 L0.578947368,34.9293548 C0.578947368,38.2754839 3.27631579,40.9867742 6.60526316,40.9867742 L43.5131579,40.9867742 C46.8421053,40.9867742 49.5394737,38.2754839 49.5394737,34.9293548 L49.5394737,16.2809677 C49.5263158,12.9348387 46.8289474,10.2235484 43.5131579,10.2235484 Z M31.6973684,29.8903226 C31.3947368,30.1548387 31.0394737,30.3003226 30.6315789,30.3003226 L29.5394737,30.3003226 L29.5394737,32.9719355 C29.5394737,33.3951613 29.3947368,33.7522581 29.1052632,34.0564516 C28.8157895,34.3606452 28.4473684,34.5193548 28.0263158,34.5193548 C27.6184211,34.5193548 27.2631579,34.3606452 26.9868421,34.0564516 C26.7105263,33.7654839 26.5657895,33.3951613 26.5657895,32.9719355 L26.5657895,30.2870968 L19.0131579,30.2870968 C18.5526316,30.2870968 18.1842105,30.1283871 17.8947368,29.8241935 C17.6184211,29.52 17.4736842,29.1629032 17.4736842,28.766129 C17.4736842,28.4222581 17.5789474,28.1180645 17.7763158,27.8535484 L26.8421053,15.8974194 C27.1710526,15.4609677 27.6052632,15.236129 28.1052632,15.236129 C28.5394737,15.236129 28.8815789,15.3948387 29.1578947,15.7122581 C29.4210526,16.0164516 29.5526316,16.3735484 29.5526316,16.81 L29.5526316,27.4303226 L30.6447368,27.4303226 C31.0789474,27.4303226 31.4473684,27.536129 31.7236842,27.7609677 C32.0263158,27.9990323 32.1842105,28.3693548 32.1842105,28.8587097 C32.1710526,29.2687097 32.0131579,29.6125806 31.6973684,29.8903226 Z" id="Shape" fill-rule="nonzero"></path>
                    <path d="M16.3815789,8.06774194 L17.4078947,8.06774194 C18.25,8.06774194 18.9342105,7.75032258 18.9342105,6.90387097 C18.9342105,5.48870968 20.0789474,4.33806452 21.4868421,4.33806452 L28.6184211,4.33806452 C30.0263158,4.33806452 31.1710526,5.48870968 31.1710526,6.90387097 C31.1710526,7.75032258 31.8552632,8.06774194 32.6973684,8.06774194 L33.7105263,8.06774194 C34.5526316,8.06774194 35.2368421,7.75032258 35.2368421,6.90387097 L35.2368421,5.87225806 C35.2368421,2.76419355 32.7236842,0.238064516 29.6315789,0.238064516 L20.4473684,0.238064516 C17.3552632,0.238064516 14.8421053,2.76419355 14.8421053,5.87225806 L14.8421053,6.90387097 C14.8552632,7.75032258 15.5394737,8.06774194 16.3815789,8.06774194 Z" id="Path"></path>
                </g>
                <g id="Group" transform="translate(0.000000, 51.000000)" stroke="#FFFFFF" stroke-width="0.5">
                    <path d="M11.2933333,1.640625 C12.2478889,2.191875 13.0545556,2.979375 13.7133333,4.003125 C13.9015556,4.305 14.0091111,4.580625 14.0091111,4.85625 C14.0091111,5.1975 13.8477778,5.48625 13.5251111,5.709375 C13.3503333,5.814375 13.1352222,5.88 12.8932222,5.88 C12.6512222,5.88 12.4226667,5.8275 12.221,5.709375 C12.0058889,5.59125 11.8445556,5.43375 11.737,5.22375 C11.3067778,4.515 10.7555556,3.976875 10.1102222,3.609375 C9.45144444,3.241875 8.63133333,3.058125 7.63644444,3.058125 C6.413,3.058125 5.41811111,3.294375 4.66522222,3.75375 C3.91233333,4.213125 3.52244444,4.895625 3.52244444,5.775 C3.52244444,6.58875 3.85855556,7.284375 4.54422222,7.835625 C5.21644444,8.386875 6.42644444,8.754375 8.17422222,8.925 C10.1102222,9.10875 11.616,9.68625 12.6781111,10.644375 C13.7402222,11.6025 14.278,12.849375 14.278,14.41125 C14.278,15.54 13.9687778,16.524375 13.3368889,17.325 C12.705,18.125625 11.8714444,18.7425 10.8362222,19.149375 C9.801,19.55625 8.68511111,19.753125 7.48855556,19.753125 C5.929,19.753125 4.50388889,19.411875 3.21322222,18.71625 C1.92255556,18.020625 1.04866667,17.115 0.564666667,15.999375 C0.484,15.815625 0.443666667,15.658125 0.443666667,15.526875 C0.443666667,15.290625 0.537777778,15.080625 0.712555556,14.896875 C0.887333333,14.713125 1.12933333,14.595 1.43855556,14.529375 C1.49233333,14.51625 1.573,14.503125 1.68055556,14.503125 C1.936,14.503125 2.19144444,14.581875 2.42,14.72625 C2.64855556,14.870625 2.82333333,15.080625 2.94433333,15.33 C3.24011111,15.946875 3.80477778,16.45875 4.66522222,16.891875 C5.52566667,17.325 6.46677778,17.535 7.502,17.535 C8.712,17.535 9.73377778,17.259375 10.5807778,16.72125 C11.4143333,16.183125 11.8445556,15.435 11.8445556,14.49 C11.8445556,13.5975 11.495,12.823125 10.7824444,12.193125 C10.0698889,11.55 8.99433333,11.169375 7.54233333,11.025 C5.53911111,10.84125 3.96611111,10.26375 2.82333333,9.31875 C1.68055556,8.360625 1.10244444,7.179375 1.10244444,5.735625 C1.10244444,4.725 1.39822222,3.85875 1.98977778,3.12375 C2.58133333,2.38875 3.388,1.8375 4.40977778,1.44375 C5.43155556,1.05 6.58777778,0.86625 7.865,0.86625 C9.18255556,0.81375 10.3522222,1.089375 11.2933333,1.640625 Z" id="Path"></path>
                    <path d="M26.1628889,17.443125 C26.3645556,17.66625 26.4721111,17.941875 26.4721111,18.29625 C26.4721111,18.6375 26.3376667,18.92625 26.0687778,19.149375 C25.7998889,19.3725 25.4637778,19.4775 25.0335556,19.4775 L24.6033333,19.4775 C23.8101111,19.4775 23.0975556,19.280625 22.4387778,18.87375 C21.78,18.466875 21.2691111,17.92875 20.9061111,17.233125 C20.5296667,16.5375 20.3548889,15.763125 20.3548889,14.896875 L20.3548889,9.05625 L19.239,9.05625 C18.9028889,9.05625 18.6205556,8.964375 18.4188889,8.7675 C18.2037778,8.58375 18.1096667,8.3475 18.1096667,8.05875 C18.1096667,7.74375 18.2172222,7.494375 18.4188889,7.2975 C18.634,7.11375 18.9028889,7.00875 19.239,7.00875 L20.3548889,7.00875 L20.3548889,3.609375 C20.3548889,3.268125 20.4624444,2.979375 20.691,2.75625 C20.9195556,2.533125 21.2018889,2.428125 21.5648889,2.428125 C21.9278889,2.428125 22.2102222,2.533125 22.4387778,2.75625 C22.6673333,2.979375 22.7748889,3.255 22.7748889,3.609375 L22.7748889,7.00875 L24.8318889,7.00875 C25.168,7.00875 25.4503333,7.100625 25.652,7.2975 C25.8671111,7.48125 25.9612222,7.74375 25.9612222,8.05875 C25.9612222,8.3475 25.8536667,8.58375 25.652,8.7675 C25.4368889,8.95125 25.168,9.05625 24.8318889,9.05625 L22.7748889,9.05625 L22.7748889,14.896875 C22.7748889,15.526875 22.9496667,16.051875 23.3126667,16.485 C23.6756667,16.918125 24.1058889,17.128125 24.6167778,17.128125 L25.4368889,17.128125 C25.7192222,17.115 25.9612222,17.22 26.1628889,17.443125 Z" id="Path"></path>
                    <path d="M42.2693333,6.864375 C42.4978889,7.0875 42.6054444,7.37625 42.6054444,7.74375 L42.6054444,18.283125 C42.6054444,18.624375 42.4978889,18.913125 42.2693333,19.149375 C42.0407778,19.3725 41.745,19.490625 41.3685556,19.490625 C41.019,19.490625 40.7232222,19.3725 40.4812222,19.149375 C40.2526667,18.92625 40.1316667,18.6375 40.1316667,18.283125 L40.1316667,18.020625 C39.6207778,18.519375 39.0023333,18.913125 38.2897778,19.18875 C37.5772222,19.464375 36.8243333,19.60875 36.0176667,19.60875 C34.9017778,19.60875 33.9068889,19.3725 33.0195556,18.9 C32.1322222,18.4275 31.4331111,17.745 30.9356667,16.82625 C30.4382222,15.920625 30.1827778,14.83125 30.1827778,13.558125 L30.1827778,7.74375 C30.1827778,7.4025 30.3037778,7.11375 30.5323333,6.8775 C30.7608889,6.654375 31.0566667,6.53625 31.4196667,6.53625 C31.7692222,6.53625 32.065,6.654375 32.307,6.8775 C32.5355556,7.100625 32.6565556,7.389375 32.6565556,7.74375 L32.6565556,13.558125 C32.6565556,14.83125 33.0061111,15.8025 33.7052222,16.45875 C34.4043333,17.115 35.332,17.443125 36.5016667,17.443125 C37.1738889,17.443125 37.7923333,17.311875 38.357,17.03625 C38.9216667,16.760625 39.3518889,16.40625 39.6611111,15.946875 C39.9703333,15.4875 40.1316667,14.975625 40.1316667,14.41125 L40.1316667,7.74375 C40.1316667,7.37625 40.2526667,7.0875 40.4812222,6.864375 C40.7097778,6.64125 41.0055556,6.53625 41.3685556,6.53625 C41.745,6.53625 42.0542222,6.64125 42.2693333,6.864375 Z" id="Path"></path>
                    <path d="M59.774,1.351875 C60.0025556,1.575 60.1101111,1.86375 60.1101111,2.23125 L60.1101111,13.006875 C60.1101111,14.240625 59.8143333,15.35625 59.2227778,16.35375 C58.6312222,17.35125 57.838,18.13875 56.8296667,18.71625 C55.8213333,19.29375 54.692,19.5825 53.4551111,19.5825 C52.2182222,19.5825 51.0754444,19.29375 50.0536667,18.71625 C49.0318889,18.13875 48.2252222,17.35125 47.6471111,16.35375 C47.069,15.35625 46.7732222,14.240625 46.7732222,13.006875 C46.7732222,11.773125 47.0421111,10.670625 47.5798889,9.66 C48.1176667,8.6625 48.8571111,7.875 49.8116667,7.310625 C50.7527778,6.74625 51.8148889,6.4575 52.9711111,6.4575 C53.9122222,6.4575 54.7726667,6.64125 55.5793333,7.021875 C56.386,7.4025 57.0716667,7.9275 57.6363333,8.61 L57.6363333,2.23125 C57.6363333,1.86375 57.7573333,1.575 57.9858889,1.351875 C58.2144444,1.12875 58.5102222,1.02375 58.8732222,1.02375 C59.2496667,1.02375 59.5454444,1.141875 59.774,1.351875 Z M55.6465556,16.865625 C56.3053333,16.485 56.8162222,15.946875 57.1792222,15.2775 C57.5556667,14.595 57.7304444,13.846875 57.7304444,13.006875 C57.7304444,12.166875 57.5422222,11.41875 57.1792222,10.749375 C56.8027778,10.08 56.2918889,9.555 55.6465556,9.16125 C54.9877778,8.780625 54.2617778,8.58375 53.4551111,8.58375 C52.6484444,8.58375 51.9224444,8.780625 51.2636667,9.16125 C50.6048889,9.541875 50.094,10.08 49.7175556,10.749375 C49.3411111,11.41875 49.1528889,12.166875 49.1528889,13.006875 C49.1528889,13.846875 49.3411111,14.595 49.7175556,15.2775 C50.094,15.96 50.6183333,16.485 51.2636667,16.865625 C51.9224444,17.24625 52.6484444,17.443125 53.4551111,17.443125 C54.2617778,17.443125 54.9877778,17.24625 55.6465556,16.865625 Z" id="Shape" fill-rule="nonzero"></path>
                    <path d="M76.9963333,13.558125 C76.7812222,13.755 76.5257778,13.846875 76.2031111,13.846875 L67.0071111,13.846875 C67.1818889,14.949375 67.6927778,15.841875 68.5397778,16.51125 C69.3867778,17.180625 70.422,17.521875 71.6454444,17.521875 C72.1294444,17.521875 72.6268889,17.43 73.1512222,17.259375 C73.6755556,17.08875 74.1057778,16.87875 74.4418889,16.61625 C74.6704444,16.445625 74.9393333,16.35375 75.2351111,16.35375 C75.5443333,16.35375 75.7863333,16.4325 75.9611111,16.59 C76.2568889,16.82625 76.3913333,17.08875 76.3913333,17.390625 C76.3913333,17.679375 76.2568889,17.915625 76.0014444,18.099375 C75.4502222,18.519375 74.7645556,18.87375 73.9578889,19.13625 C73.1377778,19.39875 72.3714444,19.543125 71.6185556,19.543125 C70.301,19.543125 69.1044444,19.2675 68.0557778,18.703125 C67.0071111,18.13875 66.187,17.364375 65.5954444,16.38 C65.0038889,15.3825 64.7081111,14.266875 64.7081111,13.006875 C64.7081111,11.746875 64.9904444,10.618125 65.5416667,9.620625 C66.0928889,8.623125 66.8726667,7.835625 67.8675556,7.284375 C68.8624444,6.733125 69.9917778,6.444375 71.2421111,6.444375 C72.479,6.444375 73.5545556,6.706875 74.4553333,7.245 C75.3561111,7.783125 76.0552222,8.53125 76.5392222,9.489375 C77.0232222,10.4475 77.2652222,11.55 77.2652222,12.796875 C77.319,13.111875 77.2114444,13.36125 76.9963333,13.558125 Z M68.4187778,9.436875 C67.6793333,10.066875 67.2222222,10.906875 67.0205556,11.97 L75.0737778,11.97 C74.9258889,10.92 74.5225556,10.066875 73.8637778,9.436875 C73.205,8.806875 72.3445556,8.491875 71.269,8.491875 C70.1127778,8.491875 69.1582222,8.806875 68.4187778,9.436875 Z" id="Shape" fill-rule="nonzero"></path>
                    <path d="M91.0054444,7.14 C91.8927778,7.6125 92.5918889,8.308125 93.0893333,9.21375 C93.5867778,10.119375 93.8422222,11.20875 93.8422222,12.481875 L93.8422222,18.29625 C93.8422222,18.6375 93.7212222,18.92625 93.4926667,19.1625 C93.2641111,19.39875 92.9683333,19.50375 92.6053333,19.50375 C92.2557778,19.50375 91.96,19.385625 91.718,19.1625 C91.476,18.939375 91.3684444,18.650625 91.3684444,18.29625 L91.3684444,12.481875 C91.3684444,11.20875 91.0188889,10.2375 90.3197778,9.58125 C89.6206667,8.925 88.693,8.596875 87.5233333,8.596875 C86.8511111,8.596875 86.2326667,8.728125 85.668,9.00375 C85.1167778,9.26625 84.6731111,9.63375 84.3638889,10.093125 C84.0546667,10.5525 83.8933333,11.064375 83.8933333,11.62875 L83.8933333,18.29625 C83.8933333,18.6375 83.7857778,18.92625 83.5572222,19.1625 C83.3286667,19.39875 83.0328889,19.50375 82.6564444,19.50375 C82.3068889,19.50375 82.0111111,19.385625 81.7691111,19.1625 C81.5271111,18.939375 81.4195556,18.650625 81.4195556,18.29625 L81.4195556,7.756875 C81.4195556,7.389375 81.5405556,7.100625 81.7691111,6.8775 C81.9976667,6.654375 82.2934444,6.549375 82.6564444,6.549375 C83.0328889,6.549375 83.3286667,6.654375 83.5572222,6.8775 C83.7857778,7.100625 83.8933333,7.389375 83.8933333,7.756875 L83.8933333,8.019375 C84.4042222,7.520625 85.0226667,7.126875 85.7352222,6.85125 C86.4477778,6.575625 87.2006667,6.43125 88.0073333,6.43125 C89.1232222,6.43125 90.1181111,6.6675 91.0054444,7.14 Z" id="Path"></path>
                    <path d="M105.27,17.443125 C105.471667,17.66625 105.579222,17.941875 105.579222,18.29625 C105.579222,18.6375 105.444778,18.92625 105.175889,19.149375 C104.907,19.3725 104.570889,19.4775 104.140667,19.4775 L103.710444,19.4775 C102.917222,19.4775 102.204667,19.280625 101.545889,18.87375 C100.887111,18.466875 100.376222,17.92875 100.013222,17.233125 C99.6367778,16.5375 99.462,15.763125 99.462,14.896875 L99.462,9.05625 L98.3461111,9.05625 C98.01,9.05625 97.7276667,8.964375 97.526,8.7675 C97.3108889,8.58375 97.2167778,8.3475 97.2167778,8.05875 C97.2167778,7.74375 97.3243333,7.494375 97.526,7.2975 C97.7411111,7.11375 98.01,7.00875 98.3461111,7.00875 L99.462,7.00875 L99.462,3.609375 C99.462,3.268125 99.5695556,2.979375 99.7981111,2.75625 C100.026667,2.533125 100.309,2.428125 100.672,2.428125 C101.035,2.428125 101.317333,2.533125 101.545889,2.75625 C101.774444,2.979375 101.882,3.255 101.882,3.609375 L101.882,7.00875 L103.939,7.00875 C104.275111,7.00875 104.557444,7.100625 104.759111,7.2975 C104.974222,7.48125 105.068333,7.74375 105.068333,8.05875 C105.068333,8.3475 104.960778,8.58375 104.759111,8.7675 C104.544,8.95125 104.275111,9.05625 103.939,9.05625 L101.882,9.05625 L101.882,14.896875 C101.882,15.526875 102.056778,16.051875 102.419778,16.485 C102.782778,16.918125 103.213,17.128125 103.723889,17.128125 L104.544,17.128125 C104.826333,17.115 105.081778,17.22 105.27,17.443125 Z" id="Path"></path>
                    <path d="M117.517889,6.95625 C118.351444,7.284375 119.010222,7.74375 119.494222,8.32125 C119.709333,8.570625 119.803444,8.82 119.803444,9.0825 C119.803444,9.345 119.669,9.594375 119.386667,9.8175 C119.211889,9.94875 118.983333,10.00125 118.714444,10.00125 C118.297667,10.00125 117.921222,9.856875 117.571667,9.555 C117.168333,9.1875 116.738111,8.938125 116.294444,8.79375 C115.837333,8.649375 115.299556,8.570625 114.654222,8.570625 C113.914778,8.570625 113.296333,8.68875 112.825778,8.938125 C112.355222,9.1875 112.113222,9.52875 112.113222,9.961875 C112.113222,10.276875 112.193889,10.539375 112.355222,10.749375 C112.516556,10.959375 112.825778,11.15625 113.269444,11.34 C113.713111,11.52375 114.371889,11.694375 115.232333,11.878125 C116.993556,12.219375 118.243889,12.705 118.969889,13.321875 C119.695889,13.93875 120.072333,14.72625 120.072333,15.710625 C120.072333,16.4325 119.870667,17.08875 119.467333,17.679375 C119.064,18.27 118.472444,18.729375 117.692667,19.070625 C116.912889,19.411875 115.971778,19.5825 114.869333,19.5825 C113.766889,19.5825 112.745111,19.411875 111.777111,19.08375 C110.809111,18.755625 110.056222,18.3225 109.505,17.784375 C109.289889,17.574375 109.195778,17.338125 109.195778,17.049375 C109.195778,16.66875 109.357111,16.366875 109.679778,16.130625 C109.989,15.9075 110.271333,15.8025 110.526778,15.8025 C110.849444,15.8025 111.158667,15.946875 111.441,16.2225 C111.750222,16.550625 112.207333,16.839375 112.825778,17.08875 C113.444222,17.338125 114.089556,17.45625 114.788667,17.45625 C115.702889,17.45625 116.415444,17.311875 116.926333,17.01 C117.437222,16.708125 117.692667,16.314375 117.692667,15.8025 C117.692667,15.316875 117.437222,14.91 116.939778,14.581875 C116.442333,14.25375 115.595333,13.99125 114.398778,13.768125 C111.306556,13.190625 109.747,11.94375 109.747,10.040625 C109.747,9.26625 109.975556,8.61 110.446111,8.085 C110.916667,7.546875 111.521667,7.153125 112.288,6.8775 C113.040889,6.615 113.847556,6.470625 114.708,6.470625 C115.756667,6.4575 116.684333,6.628125 117.517889,6.95625 Z" id="Path"></path>
                </g>
            </g>
        </g>
    </g>
</svg>