<?xml version="1.0" encoding="UTF-8"?>
<!-- Generator: Adobe Illustrator 27.0.0, SVG Export Plug-In . SVG Version: 6.00 Build 0)  -->
<svg xmlns="http://www.w3.org/2000/svg" xmlns:xlink="http://www.w3.org/1999/xlink" version="1.1" id="Ebene_1" x="0px" y="0px" viewBox="0 0 1078.4 655.8" style="enable-background:new 0 0 1078.4 655.8;" xml:space="preserve">
<style type="text/css">
	.st0{fill:url(#SVGID_1_);}
	.st1{fill:#FFFFFF;}
</style>
<g>
	<linearGradient id="SVGID_1_" gradientUnits="userSpaceOnUse" x1="415.5468" y1="85.8318" x2="685.4995" y2="407.5489">
		<stop offset="2.422030e-07" style="stop-color:#E71F64"></stop>
		<stop offset="1" style="stop-color:#E62154"></stop>
	</linearGradient>
	<path class="st0" d="M664.4,440.1H414c-45.2,0-81.8-36.6-81.8-81.8V108c0-45.2,36.6-81.8,81.8-81.8h250.4   c45.2,0,81.8,36.6,81.8,81.8v250.4C746.1,403.5,709.5,440.1,664.4,440.1z"></path>
	<g>
		<path class="st1" d="M595.5,159.8H477.8v55.7h62.1V267h0.1c0.1,25.8-14.6,50.6-39.6,62.1c-7.4,3.4-15,5.3-22.7,5.9v55.5    c15.4-0.7,30.9-4.3,45.7-11.1c45.4-20.8,72.1-65.6,71.9-112.5h0.1v-90.8h-0.1V159.8z"></path>
		
			<ellipse transform="matrix(0.9871 -0.1602 0.1602 0.9871 -8.3603 92.1246)" class="st1" cx="567.2" cy="97.9" rx="33.4" ry="33.4"></ellipse>
	</g>
</g>
<g>
	<g>
		<path class="st1" d="M45.8,629.4c-1.1-0.1-2-0.3-2.7-0.4v-11.4c1.5,0.2,3,0.3,4.4,0.3c3.2,0,5.8-0.8,7.8-2.5    c1.9-1.7,2.9-4.2,2.9-7.5v-66.7h13.1V608c0,7-2.1,12.3-6.3,16c-4.2,3.7-9.7,5.6-16.4,5.6C47.8,629.6,46.9,629.5,45.8,629.4z"></path>
		<path class="st1" d="M100.3,601.1c-5-2.9-8.9-6.8-11.9-11.7c-2.9-4.9-4.4-10.5-4.4-16.8c0-6.3,1.4-12,4.3-16.9    c2.9-4.9,6.8-8.8,11.8-11.6c5-2.8,10.5-4.2,16.6-4.2c6.1,0,11.6,1.4,16.6,4.2c4.9,2.8,8.9,6.7,11.8,11.6    c2.9,4.9,4.3,10.5,4.3,16.9c0,6.3-1.5,12-4.4,16.9c-2.9,4.9-6.9,8.8-11.8,11.6c-4.9,2.8-10.4,4.2-16.5,4.2    C110.8,605.4,105.3,603.9,100.3,601.1z M126.6,590.5c2.9-1.8,5.2-4.2,6.8-7.4c1.7-3.1,2.5-6.7,2.5-10.6s-0.8-7.5-2.5-10.5    c-1.7-3.1-3.9-5.5-6.8-7.3c-2.9-1.8-6.2-2.7-9.8-2.7c-3.6,0-6.9,0.9-9.8,2.7c-2.9,1.8-5.2,4.2-6.8,7.3c-1.7,3.1-2.5,6.6-2.5,10.5    s0.8,7.5,2.5,10.6c1.7,3.1,3.9,5.6,6.8,7.4c2.9,1.8,6.2,2.7,9.8,2.7C120.4,593.2,123.7,592.3,126.6,590.5z"></path>
		<path class="st1" d="M183.7,602.9c-3.7-1.6-6.7-3.9-9-7v8h-12.5v-87.7h13.1v32.2c2.3-2.7,5.2-4.8,8.7-6.3    c3.5-1.5,7.4-2.3,11.7-2.3c5.9,0,11.3,1.4,16,4.3c4.8,2.9,8.5,6.8,11.2,11.7c2.7,4.9,4.1,10.5,4.1,16.7c0,6.2-1.4,11.7-4.1,16.7    c-2.7,4.9-6.5,8.9-11.2,11.8c-4.7,2.9-10.1,4.3-16.1,4.3C191.4,605.4,187.4,604.5,183.7,602.9z M204.3,590.5    c2.9-1.8,5.1-4.2,6.8-7.4c1.7-3.1,2.5-6.7,2.5-10.6s-0.8-7.5-2.5-10.5c-1.7-3.1-3.9-5.5-6.8-7.3c-2.9-1.8-6.1-2.7-9.8-2.7    c-3.6,0-6.9,0.9-9.8,2.7c-2.9,1.8-5.2,4.2-6.8,7.3c-1.7,3.1-2.5,6.6-2.5,10.5s0.8,7.5,2.5,10.6c1.7,3.1,3.9,5.6,6.8,7.4    c2.9,1.8,6.2,2.7,9.8,2.7C198.2,593.2,201.4,592.3,204.3,590.5z"></path>
		<path class="st1" d="M246.2,600.6c-4.8-3.2-8.2-7.4-10.1-12.7l10.1-4.8c1.7,3.6,4,6.4,7,8.5c3,2.1,6.3,3.1,9.9,3.1    c3.1,0,5.6-0.7,7.5-2.1c1.9-1.4,2.9-3.3,2.9-5.7c0-2.2-0.9-3.9-2.7-5c-1.8-1.1-3.7-1.9-5.7-2.5l-9.8-2.8c-5.4-1.5-9.4-3.9-12.1-7    c-2.7-3.1-4-6.8-4-11c0-3.8,1-7.1,2.9-9.8c1.9-2.8,4.6-5,8-6.5c3.4-1.6,7.2-2.4,11.5-2.4c5.7,0,10.8,1.4,15.3,4.2    c4.5,2.8,7.6,6.7,9.5,11.8l-10.1,4.8c-1.2-3-3.2-5.4-5.9-7.2c-2.7-1.8-5.7-2.7-9-2.7c-2.9,0-5.1,0.7-6.8,2    c-1.7,1.3-2.5,3.1-2.5,5.3c0,2.2,0.8,3.8,2.5,4.9c1.7,1.1,3.5,1.9,5.4,2.5l10.2,3c5.2,1.5,9.2,3.8,11.9,6.9    c2.8,3.1,4.2,6.9,4.2,11.2c0,3.7-1,7-2.9,9.8c-1.9,2.8-4.7,5-8.2,6.6c-3.5,1.6-7.6,2.4-12.2,2.4    C256.6,605.4,251,603.8,246.2,600.6z"></path>
		<path class="st1" d="M337.2,584.5h-41.1v-11.4l40.6-55.5h13.6v55.5h11.9v11.4h-11.9V604h-13V584.5z M337.2,534.9l-27.5,38.2h27.5    V534.9z"></path>
		<path class="st1" d="M380.3,600.6c-4.8-3.2-8.2-7.4-10.1-12.7l10.1-4.8c1.7,3.6,4,6.4,7,8.5c3,2.1,6.3,3.1,9.9,3.1    c3.1,0,5.6-0.7,7.5-2.1s2.9-3.3,2.9-5.7c0-2.2-0.9-3.9-2.7-5c-1.8-1.1-3.7-1.9-5.7-2.5l-9.8-2.8c-5.4-1.5-9.4-3.9-12.1-7    c-2.7-3.1-4-6.8-4-11c0-3.8,1-7.1,2.9-9.8c1.9-2.8,4.6-5,8-6.5c3.4-1.6,7.2-2.4,11.5-2.4c5.7,0,10.8,1.4,15.3,4.2    c4.5,2.8,7.6,6.7,9.5,11.8l-10.1,4.8c-1.2-3-3.2-5.4-5.9-7.2c-2.7-1.8-5.7-2.7-9-2.7c-2.9,0-5.1,0.7-6.8,2    c-1.7,1.3-2.5,3.1-2.5,5.3c0,2.2,0.8,3.8,2.5,4.9c1.7,1.1,3.5,1.9,5.4,2.5l10.2,3c5.2,1.5,9.2,3.8,11.9,6.9s4.2,6.9,4.2,11.2    c0,3.7-1,7-2.9,9.8c-1.9,2.8-4.7,5-8.2,6.6c-3.5,1.6-7.6,2.4-12.2,2.4C390.8,605.4,385.2,603.8,380.3,600.6z"></path>
		<path class="st1" d="M445.2,599.1c-3.6-3.7-5.4-8.9-5.4-15.6v-30.4h-11v-11.8h1.7c2.9,0,5.2-0.8,6.8-2.5c1.6-1.7,2.4-4,2.4-7v-4.9    h13.1v14.4h14.3v11.8h-14.3v29.8c0,3.2,0.8,5.7,2.4,7.5c1.6,1.8,4.3,2.7,8.1,2.7c1.4,0,2.8-0.1,4.3-0.3V604    c-1,0.2-2.2,0.3-3.5,0.5c-1.3,0.2-2.5,0.2-3.6,0.2C453.9,604.7,448.8,602.8,445.2,599.1z"></path>
		<path class="st1" d="M490.2,602.2c-3.6-2.1-6.3-5.1-8.3-8.9s-3-8.2-3-13.3v-38.7h13.1v37.5c0,4.3,1.3,7.8,3.9,10.4    c2.6,2.6,5.9,3.9,9.9,3.9c4.1,0,7.5-1.4,10.1-4.1c2.6-2.7,3.9-6.3,3.9-10.9v-37h13V604h-12.4v-7.8c-1.8,2.9-4.2,5.2-7.3,6.8    c-3.1,1.6-6.6,2.4-10.5,2.4C497.9,605.4,493.8,604.3,490.2,602.2z"></path>
		<path class="st1" d="M561,601c-4.8-2.9-8.5-6.8-11.2-11.8c-2.7-4.9-4.1-10.5-4.1-16.7c0-6.2,1.4-11.7,4.1-16.7    c2.7-4.9,6.5-8.8,11.2-11.7c4.8-2.9,10.1-4.3,16-4.3c4.3,0,8.2,0.8,11.8,2.3c3.5,1.5,6.4,3.7,8.7,6.4v-32.3h13V604h-12.4v-8.1    c-2.3,3.1-5.3,5.4-9,7.1s-7.7,2.4-12,2.4C571.1,605.4,565.7,603.9,561,601z M588.2,590.5c2.9-1.8,5.2-4.2,6.8-7.4    c1.7-3.1,2.5-6.7,2.5-10.6s-0.8-7.5-2.5-10.5c-1.7-3.1-3.9-5.5-6.8-7.3c-2.9-1.8-6.2-2.7-9.8-2.7c-3.6,0-6.9,0.9-9.8,2.7    c-2.9,1.8-5.2,4.2-6.8,7.3c-1.7,3.1-2.5,6.6-2.5,10.5s0.8,7.5,2.4,10.6s3.9,5.6,6.8,7.4c2.9,1.8,6.2,2.7,9.9,2.7    C582,593.2,585.3,592.3,588.2,590.5z"></path>
		<path class="st1" d="M638.7,601c-4.8-2.9-8.6-6.8-11.3-11.8c-2.7-5-4.1-10.6-4.1-16.7c0-6.3,1.4-11.8,4.1-16.7    c2.7-4.9,6.4-8.8,11.1-11.6c4.7-2.8,9.9-4.2,15.8-4.2c6.3,0,11.7,1.4,16.2,4.2c4.4,2.8,7.8,6.5,10.2,11.1c2.4,4.6,3.5,9.6,3.5,15    c0,1,0,2-0.1,3.1c-0.1,1.1-0.2,2.1-0.5,3h-46.6c0.4,5.3,2.3,9.6,5.8,12.7c3.5,3.1,7.7,4.7,12.6,4.7c3.8,0,7-0.9,9.7-2.6    c2.7-1.7,4.8-3.9,6.3-6.5l10.7,5.2c-1.9,4.5-5.3,8.2-10,11.1c-4.8,2.9-10.3,4.4-16.7,4.4C649,605.4,643.4,603.9,638.7,601z     M643.1,554.8c-3.2,2.6-5.1,6.3-5.9,11.1h33c-0.2-4.5-1.9-8.1-4.9-10.9c-3-2.8-6.7-4.2-11.1-4.2    C649.9,550.9,646.2,552.2,643.1,554.8z"></path>
		<path class="st1" d="M696.8,541.3h12.5v7.6c1.8-2.9,4.2-5.2,7.3-6.7c3.1-1.5,6.6-2.3,10.4-2.3c4.6,0,8.6,1,12.2,3    c3.6,2,6.4,4.8,8.4,8.3c2,3.5,3.1,7.6,3.1,12.2V604h-13v-37c0-4.6-1.3-8.3-3.9-10.9c-2.6-2.7-5.9-4-10-4c-4,0-7.3,1.3-10,4    c-2.6,2.7-3.9,6.3-3.9,10.9v37h-13.1V541.3z"></path>
		<path class="st1" d="M776.5,599.1c-3.6-3.7-5.4-8.9-5.4-15.6v-30.4h-11v-11.8h1.7c2.9,0,5.2-0.8,6.8-2.5c1.6-1.7,2.4-4,2.4-7v-4.9    h13.1v14.4h14.2v11.8h-14.2v29.8c0,3.2,0.8,5.7,2.4,7.5c1.6,1.8,4.3,2.7,8.1,2.7c1.4,0,2.8-0.1,4.3-0.3V604    c-1,0.2-2.2,0.3-3.5,0.5c-1.3,0.2-2.5,0.2-3.6,0.2C785.3,604.7,780.2,602.8,776.5,599.1z"></path>
		<path class="st1" d="M818,600.6c-4.8-3.2-8.2-7.4-10.1-12.7l10.1-4.8c1.7,3.6,4,6.4,7,8.5c3,2.1,6.3,3.1,9.9,3.1    c3.1,0,5.6-0.7,7.5-2.1s2.9-3.3,2.9-5.7c0-2.2-0.9-3.9-2.7-5c-1.8-1.1-3.7-1.9-5.7-2.5l-9.8-2.8c-5.4-1.5-9.4-3.9-12.1-7    c-2.7-3.1-4-6.8-4-11c0-3.8,1-7.1,2.9-9.8c1.9-2.8,4.6-5,8-6.5c3.4-1.6,7.2-2.4,11.5-2.4c5.7,0,10.8,1.4,15.3,4.2    c4.5,2.8,7.6,6.7,9.5,11.8l-10.1,4.8c-1.2-3-3.2-5.4-5.9-7.2c-2.7-1.8-5.7-2.7-9-2.7c-2.9,0-5.1,0.7-6.8,2    c-1.7,1.3-2.5,3.1-2.5,5.3c0,2.2,0.8,3.8,2.5,4.9c1.7,1.1,3.5,1.9,5.4,2.5l10.2,3c5.2,1.5,9.2,3.8,11.9,6.9    c2.8,3.1,4.2,6.9,4.2,11.2c0,3.7-1,7-2.9,9.8c-1.9,2.8-4.7,5-8.2,6.6c-3.5,1.6-7.6,2.4-12.2,2.4    C828.4,605.4,822.8,603.8,818,600.6z"></path>
		<path class="st1" d="M876.8,588.9h13.3V604h-13.3V588.9z"></path>
		<path class="st1" d="M924.3,601c-4.9-2.9-8.7-6.8-11.5-11.8c-2.8-4.9-4.2-10.5-4.2-16.8s1.4-11.8,4.2-16.7    c2.8-4.9,6.6-8.8,11.5-11.6c4.9-2.8,10.4-4.2,16.7-4.2c4.2,0,8.2,0.7,11.9,2.2c3.7,1.5,6.9,3.5,9.7,6.2c2.7,2.7,4.8,5.7,6.1,9.2    l-11.5,5.3c-1.3-3.2-3.4-5.9-6.3-7.8c-2.9-2-6.2-3-10-3c-3.6,0-6.7,0.9-9.6,2.7c-2.8,1.8-5,4.2-6.7,7.2c-1.6,3.1-2.4,6.6-2.4,10.6    c0,3.9,0.8,7.5,2.4,10.6s3.8,5.6,6.7,7.4c2.8,1.8,6,2.7,9.6,2.7c3.8,0,7.1-1,9.9-3c2.8-2,4.9-4.6,6.3-7.9l11.5,5.4    c-1.2,3.3-3.2,6.3-6,9c-2.7,2.7-6,4.8-9.7,6.3c-3.7,1.5-7.7,2.3-12.1,2.3C934.7,605.4,929.1,603.9,924.3,601z"></path>
		<path class="st1" d="M981.4,516.3h13.1V548c1.9-2.6,4.2-4.6,7.2-6c2.9-1.4,6.3-2.1,10-2.1c4.6,0,8.6,1,12.2,3    c3.6,2,6.4,4.8,8.4,8.3c2,3.5,3.1,7.6,3.1,12.2V604h-13v-37c0-4.6-1.3-8.3-3.9-10.9c-2.6-2.7-5.9-4-10-4c-4,0-7.3,1.3-10,4    c-2.6,2.7-3.9,6.3-3.9,10.9v37h-13.1V516.3z"></path>
	</g>
	<circle class="st1" cx="64.7" cy="525" r="7.8"></circle>
</g>
</svg>
