<?xml version="1.0" encoding="utf-8"?>
<!-- Generator: Adobe Illustrator 27.1.1, SVG Export Plug-In . SVG Version: 6.00 Build 0)  -->
<svg version="1.1" id="Ebene_1" xmlns="http://www.w3.org/2000/svg" xmlns:xlink="http://www.w3.org/1999/xlink" x="0px" y="0px"
     viewBox="0 0 78 78" style="enable-background:new 0 0 78 78;" xml:space="preserve">
<style type="text/css">
	.st0{fill:url(#SVGID_1_);}
	.st1{fill:#FFFFFF;}
</style>
  <g>

		<linearGradient id="SVGID_1_" gradientUnits="userSpaceOnUse" x1="22.3324" y1="60.2098" x2="58.8561" y2="16.6826" gradientTransform="matrix(1 0 0 -1 0 79.2756)">
		<stop  offset="2.422030e-07" style="stop-color:#E71F64"/>
      <stop  offset="1" style="stop-color:#E62154"/>
	</linearGradient>
    <path class="st0" d="M56,67H22.1c-6.1,0-11.1-5-11.1-11.1V22.1C11.1,16,16,11,22.1,11H56c6.1,0,11.1,5,11.1,11.1v33.9
		C67.1,62,62.1,67,56,67z"/>
    <g>
		<path class="st1" d="M46.7,29.1H30.8v7.5h8.4v7h0c0,3.5-2,6.8-5.4,8.4c-1,0.5-2,0.7-3.1,0.8v7.5c2.1-0.1,4.2-0.6,6.2-1.5
			c6.1-2.8,9.8-8.9,9.7-15.2h0V31.3h0L46.7,29.1L46.7,29.1z"/>
      <ellipse class="st1" cx="42.8" cy="20.7" rx="4.5" ry="4.5"/>
	</g>
</g>
</svg>
