<?xml version="1.0" encoding="UTF-8" standalone="no"?>
<!DOCTYPE svg PUBLIC "-//W3C//DTD SVG 1.1//EN" "http://www.w3.org/Graphics/SVG/1.1/DTD/svg11.dtd">
<svg width="100%" height="100%" viewBox="0 0 193 40" version="1.1" xmlns="http://www.w3.org/2000/svg" xmlns:xlink="http://www.w3.org/1999/xlink" xml:space="preserve" xmlns:serif="http://www.serif.com/" style="fill-rule:evenodd;clip-rule:evenodd;">
    <g id="Logo---Standard---Green" serif:id="Logo-/-Standard-/-Green" transform="matrix(1,0,0,1,-46,-26.5)">
        <clipPath id="_clip1">
            <rect x="46" y="30" width="194" height="33"/>
        </clipPath>
        <g clip-path="url(#_clip1)">
            <rect id="Rectangle" x="0" y="0" width="285" height="93" style="fill:none;"/>
            <g id="logo-v3" transform="matrix(1,0,0,1,47,31)">
                <g id="Group" transform="matrix(1,0,0,1,0,11)">
                    <path id="Path" d="M8.9,12.94C8.53,13.59 8.02,14.1 7.36,14.47C6.7,14.84 5.96,15.02 5.12,15.02C4.28,15.02 3.53,14.84 2.88,14.47C2.23,14.1 1.72,13.59 1.35,12.94C0.98,12.29 0.8,11.54 0.8,10.7C0.8,10.42 0.89,10.2 1.07,10.03C1.25,9.86 1.47,9.77 1.74,9.77C2.02,9.77 2.24,9.86 2.41,10.03C2.58,10.2 2.67,10.43 2.67,10.7C2.67,11.47 2.9,12.1 3.35,12.59C3.8,13.08 4.39,13.33 5.11,13.33C5.83,13.33 6.42,13.08 6.88,12.59C7.34,12.1 7.57,11.47 7.57,10.7L7.57,1.72C7.57,1.44 7.66,1.22 7.83,1.05C8,0.88 8.22,0.79 8.49,0.79C8.77,0.79 8.99,0.88 9.17,1.05C9.35,1.22 9.44,1.45 9.44,1.72L9.44,10.7C9.45,11.54 9.27,12.29 8.9,12.94Z" style="stroke:black;stroke-width:0.5px;"/>
                    <path id="Shape" d="M20.25,5.56C21,5.99 21.59,6.58 22.01,7.33C22.44,8.09 22.65,8.95 22.65,9.92C22.65,10.88 22.44,11.74 22.02,12.49C21.6,13.25 21.01,13.84 20.27,14.26C19.52,14.69 18.66,14.9 17.7,14.9C16.74,14.9 15.88,14.69 15.13,14.26C14.38,13.83 13.79,13.24 13.37,12.49C12.95,11.73 12.74,10.88 12.74,9.92C12.74,8.95 12.95,8.08 13.37,7.33C13.79,6.57 14.38,5.98 15.13,5.56C15.88,5.14 16.74,4.92 17.7,4.92C18.65,4.92 19.5,5.13 20.25,5.56ZM16.05,6.97C15.56,7.26 15.18,7.66 14.91,8.18C14.64,8.7 14.5,9.28 14.5,9.93C14.5,10.58 14.64,11.16 14.91,11.67C15.19,12.18 15.57,12.58 16.05,12.87C16.54,13.16 17.09,13.3 17.7,13.3C18.31,13.3 18.86,13.16 19.35,12.87C19.84,12.58 20.21,12.18 20.48,11.67C20.75,11.16 20.88,10.58 20.88,9.93C20.88,9.28 20.75,8.7 20.48,8.18C20.21,7.66 19.83,7.26 19.35,6.97C18.86,6.68 18.31,6.54 17.7,6.54C17.09,6.54 16.54,6.69 16.05,6.97Z" style="fill-rule:nonzero;stroke:black;stroke-width:0.5px;"/>
                    <path id="Shape1" serif:id="Shape" d="M26.66,0.78C26.92,0.78 27.14,0.86 27.32,1.03C27.49,1.2 27.58,1.42 27.58,1.7L27.58,6.56C28,6.04 28.51,5.64 29.11,5.35C29.71,5.06 30.36,4.92 31.05,4.92C31.91,4.92 32.7,5.14 33.4,5.57C34.1,6 34.65,6.6 35.06,7.36C35.46,8.12 35.66,8.97 35.66,9.91C35.66,10.85 35.44,11.7 35.01,12.46C34.58,13.22 33.98,13.82 33.22,14.26C32.46,14.7 31.62,14.92 30.69,14.92C29.77,14.92 28.93,14.7 28.18,14.26C27.43,13.82 26.84,13.22 26.4,12.46C25.96,11.7 25.74,10.85 25.74,9.91L25.74,1.7C25.74,1.42 25.82,1.2 25.99,1.03C26.16,0.87 26.39,0.78 26.66,0.78ZM30.69,13.29C31.29,13.29 31.83,13.14 32.32,12.85C32.81,12.56 33.19,12.15 33.47,11.64C33.75,11.12 33.89,10.55 33.89,9.91C33.89,9.27 33.75,8.7 33.47,8.19C33.19,7.68 32.8,7.28 32.32,6.98C31.83,6.69 31.29,6.54 30.69,6.54C30.09,6.54 29.55,6.69 29.06,6.98C28.57,7.27 28.19,7.68 27.92,8.19C27.64,8.7 27.51,9.27 27.51,9.91C27.51,10.55 27.65,11.12 27.92,11.64C28.19,12.16 28.58,12.56 29.06,12.85C29.55,13.14 30.09,13.29 30.69,13.29Z" style="fill-rule:nonzero;stroke:black;stroke-width:0.5px;"/>
                    <path id="Path1" serif:id="Path" d="M44.67,5.3C45.29,5.55 45.78,5.9 46.14,6.34C46.3,6.53 46.37,6.72 46.37,6.92C46.37,7.12 46.27,7.31 46.06,7.48C45.93,7.58 45.76,7.62 45.56,7.62C45.25,7.62 44.97,7.51 44.71,7.28C44.41,7 44.09,6.81 43.76,6.7C43.42,6.59 43.02,6.53 42.54,6.53C41.99,6.53 41.54,6.62 41.18,6.81C40.83,7 40.65,7.26 40.65,7.59C40.65,7.83 40.71,8.03 40.83,8.19C40.95,8.35 41.18,8.5 41.51,8.64C41.84,8.78 42.33,8.91 42.97,9.05C44.28,9.31 45.21,9.68 45.75,10.15C46.29,10.62 46.57,11.22 46.57,11.97C46.57,12.52 46.42,13.02 46.12,13.47C45.82,13.92 45.38,14.27 44.8,14.53C44.22,14.79 43.52,14.92 42.7,14.92C41.88,14.92 41.12,14.79 40.4,14.54C39.68,14.29 39.12,13.96 38.71,13.55C38.55,13.39 38.48,13.21 38.48,12.99C38.48,12.7 38.6,12.47 38.84,12.29C39.07,12.12 39.28,12.04 39.47,12.04C39.71,12.04 39.94,12.15 40.15,12.36C40.38,12.61 40.72,12.83 41.18,13.02C41.64,13.21 42.12,13.3 42.64,13.3C43.32,13.3 43.85,13.19 44.23,12.96C44.61,12.73 44.8,12.43 44.8,12.04C44.8,11.67 44.61,11.36 44.24,11.11C43.87,10.86 43.24,10.66 42.35,10.49C40.05,10.05 38.89,9.1 38.89,7.65C38.89,7.06 39.06,6.56 39.41,6.16C39.76,5.75 40.21,5.45 40.78,5.24C41.34,5.04 41.94,4.93 42.58,4.93C43.35,4.92 44.05,5.05 44.67,5.3Z" style="stroke:black;stroke-width:0.5px;"/>
                </g>
                <g id="Group1" serif:id="Group" transform="matrix(1,0,0,1,56,0)">
                    <path id="Path2" serif:id="Path" d="M20.19,20.75L20.19,15.78L16.41,20.75L20.19,20.75Z" style="fill:rgb(95,155,30);"/>
                    <path id="Shape2" serif:id="Shape" d="M33.07,7.73L5.02,7.73C2.49,7.73 0.44,9.78 0.44,12.31L0.44,26.41C0.44,28.94 2.49,30.99 5.02,30.99L33.07,30.99C35.6,30.99 37.65,28.94 37.65,26.41L37.65,12.31C37.64,9.78 35.59,7.73 33.07,7.73ZM24.09,22.6C23.86,22.8 23.59,22.91 23.28,22.91L22.45,22.91L22.45,24.93C22.45,25.25 22.34,25.52 22.12,25.75C21.9,25.98 21.62,26.1 21.3,26.1C20.99,26.1 20.72,25.98 20.51,25.75C20.3,25.53 20.19,25.25 20.19,24.93L20.19,22.9L14.45,22.9C14.1,22.9 13.82,22.78 13.6,22.55C13.39,22.32 13.28,22.05 13.28,21.75C13.28,21.49 13.36,21.26 13.51,21.06L20.4,12.02C20.65,11.69 20.98,11.52 21.36,11.52C21.69,11.52 21.95,11.64 22.16,11.88C22.36,12.11 22.46,12.38 22.46,12.71L22.46,20.74L23.29,20.74C23.62,20.74 23.9,20.82 24.11,20.99C24.34,21.17 24.46,21.45 24.46,21.82C24.45,22.13 24.33,22.39 24.09,22.6Z" style="fill:rgb(95,155,30);fill-rule:nonzero;"/>
                    <path id="Path3" serif:id="Path" d="M12.45,6.1L13.23,6.1C13.87,6.1 14.39,5.86 14.39,5.22C14.39,4.15 15.26,3.28 16.33,3.28L21.75,3.28C22.82,3.28 23.69,4.15 23.69,5.22C23.69,5.86 24.21,6.1 24.85,6.1L25.62,6.1C26.26,6.1 26.78,5.86 26.78,5.22L26.78,4.44C26.78,2.09 24.87,0.18 22.52,0.18L15.54,0.18C13.19,0.18 11.28,2.09 11.28,4.44L11.28,5.22C11.29,5.86 11.81,6.1 12.45,6.1Z" style="fill:rgb(95,155,30);"/>
                </g>
                <g id="Group2" serif:id="Group" transform="matrix(1,0,0,1,102,11)">
                    <path id="Path4" serif:id="Path" d="M8.4,1.25C9.11,1.67 9.71,2.27 10.2,3.05C10.34,3.28 10.42,3.49 10.42,3.7C10.42,3.96 10.3,4.18 10.06,4.35C9.93,4.43 9.77,4.48 9.59,4.48C9.41,4.48 9.24,4.44 9.09,4.35C8.93,4.26 8.81,4.14 8.73,3.98C8.41,3.44 8,3.03 7.52,2.75C7.03,2.47 6.42,2.33 5.68,2.33C4.77,2.33 4.03,2.51 3.47,2.86C2.91,3.21 2.62,3.73 2.62,4.4C2.62,5.02 2.87,5.55 3.38,5.97C3.88,6.39 4.78,6.67 6.08,6.8C7.52,6.94 8.64,7.38 9.43,8.11C10.22,8.84 10.62,9.79 10.62,10.98C10.62,11.84 10.39,12.59 9.92,13.2C9.45,13.81 8.83,14.28 8.06,14.59C7.29,14.9 6.46,15.05 5.57,15.05C4.41,15.05 3.35,14.79 2.39,14.26C1.43,13.73 0.78,13.04 0.42,12.19C0.36,12.05 0.33,11.93 0.33,11.83C0.33,11.65 0.4,11.49 0.53,11.35C0.66,11.21 0.84,11.12 1.07,11.07C1.11,11.06 1.17,11.05 1.25,11.05C1.44,11.05 1.63,11.11 1.8,11.22C1.97,11.33 2.1,11.49 2.19,11.68C2.41,12.15 2.83,12.54 3.47,12.87C4.11,13.2 4.81,13.36 5.58,13.36C6.48,13.36 7.24,13.15 7.87,12.74C8.49,12.33 8.81,11.76 8.81,11.04C8.81,10.36 8.55,9.77 8.02,9.29C7.49,8.8 6.69,8.51 5.61,8.4C4.12,8.26 2.95,7.82 2.1,7.1C1.25,6.37 0.82,5.47 0.82,4.37C0.82,3.6 1.04,2.94 1.48,2.38C1.92,1.82 2.52,1.4 3.28,1.1C4.04,0.8 4.9,0.66 5.85,0.66C6.83,0.62 7.7,0.83 8.4,1.25Z" style="stroke:black;stroke-width:0.5px;"/>
                    <path id="Path5" serif:id="Path" d="M19.46,13.29C19.61,13.46 19.69,13.67 19.69,13.94C19.69,14.2 19.59,14.42 19.39,14.59C19.19,14.76 18.94,14.84 18.62,14.84L18.3,14.84C17.71,14.84 17.18,14.69 16.69,14.38C16.2,14.07 15.82,13.66 15.55,13.13C15.27,12.6 15.14,12.01 15.14,11.35L15.14,6.9L14.31,6.9C14.06,6.9 13.85,6.83 13.7,6.68C13.54,6.54 13.47,6.36 13.47,6.14C13.47,5.9 13.55,5.71 13.7,5.56C13.86,5.42 14.06,5.34 14.31,5.34L15.14,5.34L15.14,2.75C15.14,2.49 15.22,2.27 15.39,2.1C15.56,1.93 15.77,1.85 16.04,1.85C16.31,1.85 16.52,1.93 16.69,2.1C16.86,2.27 16.94,2.48 16.94,2.75L16.94,5.34L18.47,5.34C18.72,5.34 18.93,5.41 19.08,5.56C19.24,5.7 19.31,5.9 19.31,6.14C19.31,6.36 19.23,6.54 19.08,6.68C18.92,6.82 18.72,6.9 18.47,6.9L16.94,6.9L16.94,11.35C16.94,11.83 17.07,12.23 17.34,12.56C17.61,12.89 17.93,13.05 18.31,13.05L18.92,13.05C19.13,13.04 19.31,13.12 19.46,13.29Z" style="stroke:black;stroke-width:0.5px;"/>
                    <path id="Path6" serif:id="Path" d="M31.44,5.23C31.61,5.4 31.69,5.62 31.69,5.9L31.69,13.93C31.69,14.19 31.61,14.41 31.44,14.59C31.27,14.76 31.05,14.85 30.77,14.85C30.51,14.85 30.29,14.76 30.11,14.59C29.94,14.42 29.85,14.2 29.85,13.93L29.85,13.73C29.47,14.11 29.01,14.41 28.48,14.62C27.95,14.83 27.39,14.94 26.79,14.94C25.96,14.94 25.22,14.76 24.56,14.4C23.9,14.04 23.38,13.52 23.01,12.82C22.64,12.13 22.45,11.3 22.45,10.33L22.45,5.9C22.45,5.64 22.54,5.42 22.71,5.24C22.88,5.07 23.1,4.98 23.37,4.98C23.63,4.98 23.85,5.07 24.03,5.24C24.2,5.41 24.29,5.63 24.29,5.9L24.29,10.33C24.29,11.3 24.55,12.04 25.07,12.54C25.59,13.04 26.28,13.29 27.15,13.29C27.65,13.29 28.11,13.19 28.53,12.98C28.95,12.77 29.27,12.5 29.5,12.15C29.73,11.8 29.85,11.41 29.85,10.98L29.85,5.9C29.85,5.62 29.94,5.4 30.11,5.23C30.28,5.06 30.5,4.98 30.77,4.98C31.05,4.98 31.28,5.06 31.44,5.23Z" style="stroke:black;stroke-width:0.5px;"/>
                    <path id="Shape3" serif:id="Shape" d="M44.46,1.03C44.63,1.2 44.71,1.42 44.71,1.7L44.71,9.91C44.71,10.85 44.49,11.7 44.05,12.46C43.61,13.22 43.02,13.82 42.27,14.26C41.52,14.7 40.68,14.92 39.76,14.92C38.84,14.92 37.99,14.7 37.23,14.26C36.47,13.82 35.87,13.22 35.44,12.46C35.01,11.7 34.79,10.85 34.79,9.91C34.79,8.97 34.99,8.13 35.39,7.36C35.79,6.6 36.34,6 37.05,5.57C37.75,5.14 38.54,4.92 39.4,4.92C40.1,4.92 40.74,5.06 41.34,5.35C41.94,5.64 42.45,6.04 42.87,6.56L42.87,1.7C42.87,1.42 42.96,1.2 43.13,1.03C43.3,0.86 43.52,0.78 43.79,0.78C44.07,0.78 44.29,0.87 44.46,1.03ZM41.39,12.85C41.88,12.56 42.26,12.15 42.53,11.64C42.81,11.12 42.94,10.55 42.94,9.91C42.94,9.27 42.8,8.7 42.53,8.19C42.25,7.68 41.87,7.28 41.39,6.98C40.9,6.69 40.36,6.54 39.76,6.54C39.16,6.54 38.62,6.69 38.13,6.98C37.64,7.27 37.26,7.68 36.98,8.19C36.7,8.7 36.56,9.27 36.56,9.91C36.56,10.55 36.7,11.12 36.98,11.64C37.26,12.16 37.65,12.56 38.13,12.85C38.62,13.14 39.16,13.29 39.76,13.29C40.36,13.29 40.9,13.14 41.39,12.85Z" style="fill-rule:nonzero;stroke:black;stroke-width:0.5px;"/>
                    <path id="Shape4" serif:id="Shape" d="M57.27,10.33C57.11,10.48 56.92,10.55 56.68,10.55L49.84,10.55C49.97,11.39 50.35,12.07 50.98,12.58C51.61,13.09 52.38,13.35 53.29,13.35C53.65,13.35 54.02,13.28 54.41,13.15C54.8,13.02 55.12,12.86 55.37,12.66C55.54,12.53 55.74,12.46 55.96,12.46C56.19,12.46 56.37,12.52 56.5,12.64C56.72,12.82 56.82,13.02 56.82,13.25C56.82,13.47 56.72,13.65 56.53,13.79C56.12,14.11 55.61,14.38 55.01,14.58C54.4,14.78 53.83,14.89 53.27,14.89C52.29,14.89 51.4,14.68 50.62,14.25C49.84,13.82 49.23,13.23 48.79,12.48C48.35,11.72 48.13,10.87 48.13,9.91C48.13,8.95 48.34,8.09 48.75,7.33C49.16,6.57 49.74,5.97 50.48,5.55C51.22,5.13 52.06,4.91 52.99,4.91C53.91,4.91 54.71,5.11 55.38,5.52C56.05,5.93 56.57,6.5 56.93,7.23C57.29,7.96 57.47,8.8 57.47,9.75C57.51,9.99 57.43,10.18 57.27,10.33ZM50.89,7.19C50.34,7.67 50,8.31 49.85,9.12L55.84,9.12C55.73,8.32 55.43,7.67 54.94,7.19C54.45,6.71 53.81,6.47 53.01,6.47C52.15,6.47 51.44,6.71 50.89,7.19Z" style="fill-rule:nonzero;stroke:black;stroke-width:0.5px;"/>
                    <path id="Path7" serif:id="Path" d="M67.69,5.44C68.35,5.8 68.87,6.33 69.24,7.02C69.61,7.71 69.8,8.54 69.8,9.51L69.8,13.94C69.8,14.2 69.71,14.42 69.54,14.6C69.37,14.78 69.15,14.86 68.88,14.86C68.62,14.86 68.4,14.77 68.22,14.6C68.04,14.43 67.96,14.21 67.96,13.94L67.96,9.51C67.96,8.54 67.7,7.8 67.18,7.3C66.66,6.8 65.97,6.55 65.1,6.55C64.6,6.55 64.14,6.65 63.72,6.86C63.31,7.06 62.98,7.34 62.75,7.69C62.52,8.04 62.4,8.43 62.4,8.86L62.4,13.94C62.4,14.2 62.32,14.42 62.15,14.6C61.98,14.78 61.76,14.86 61.48,14.86C61.22,14.86 61,14.77 60.82,14.6C60.64,14.43 60.56,14.21 60.56,13.94L60.56,5.91C60.56,5.63 60.65,5.41 60.82,5.24C60.99,5.07 61.21,4.99 61.48,4.99C61.76,4.99 61.98,5.07 62.15,5.24C62.32,5.41 62.4,5.63 62.4,5.91L62.4,6.11C62.78,5.73 63.24,5.43 63.77,5.22C64.3,5.01 64.86,4.9 65.46,4.9C66.29,4.9 67.03,5.08 67.69,5.44Z" style="stroke:black;stroke-width:0.5px;"/>
                    <path id="Path8" serif:id="Path" d="M78.3,13.29C78.45,13.46 78.53,13.67 78.53,13.94C78.53,14.2 78.43,14.42 78.23,14.59C78.03,14.76 77.78,14.84 77.46,14.84L77.14,14.84C76.55,14.84 76.02,14.69 75.53,14.38C75.04,14.07 74.66,13.66 74.39,13.13C74.11,12.6 73.98,12.01 73.98,11.35L73.98,6.9L73.15,6.9C72.9,6.9 72.69,6.83 72.54,6.68C72.38,6.54 72.31,6.36 72.31,6.14C72.31,5.9 72.39,5.71 72.54,5.56C72.7,5.42 72.9,5.34 73.15,5.34L73.98,5.34L73.98,2.75C73.98,2.49 74.06,2.27 74.23,2.1C74.4,1.93 74.61,1.85 74.88,1.85C75.15,1.85 75.36,1.93 75.53,2.1C75.7,2.27 75.78,2.48 75.78,2.75L75.78,5.34L77.31,5.34C77.56,5.34 77.77,5.41 77.92,5.56C78.08,5.7 78.15,5.9 78.15,6.14C78.15,6.36 78.07,6.54 77.92,6.68C77.76,6.82 77.56,6.9 77.31,6.9L75.78,6.9L75.78,11.35C75.78,11.83 75.91,12.23 76.18,12.56C76.45,12.89 76.77,13.05 77.15,13.05L77.76,13.05C77.97,13.04 78.16,13.12 78.3,13.29Z" style="stroke:black;stroke-width:0.5px;"/>
                    <path id="Path9" serif:id="Path" d="M87.41,5.3C88.03,5.55 88.52,5.9 88.88,6.34C89.04,6.53 89.11,6.72 89.11,6.92C89.11,7.12 89.01,7.31 88.8,7.48C88.67,7.58 88.5,7.62 88.3,7.62C87.99,7.62 87.71,7.51 87.45,7.28C87.15,7 86.83,6.81 86.5,6.7C86.16,6.59 85.76,6.53 85.28,6.53C84.73,6.53 84.27,6.62 83.92,6.81C83.57,7 83.39,7.26 83.39,7.59C83.39,7.83 83.45,8.03 83.57,8.19C83.69,8.35 83.92,8.5 84.25,8.64C84.58,8.78 85.07,8.91 85.71,9.05C87.02,9.31 87.95,9.68 88.49,10.15C89.03,10.62 89.31,11.22 89.31,11.97C89.31,12.52 89.16,13.02 88.86,13.47C88.56,13.92 88.12,14.27 87.54,14.53C86.96,14.79 86.26,14.92 85.44,14.92C84.62,14.92 83.86,14.79 83.14,14.54C82.42,14.29 81.86,13.96 81.45,13.55C81.29,13.39 81.22,13.21 81.22,12.99C81.22,12.7 81.34,12.47 81.58,12.29C81.81,12.12 82.02,12.04 82.21,12.04C82.45,12.04 82.68,12.15 82.89,12.36C83.12,12.61 83.46,12.83 83.92,13.02C84.38,13.21 84.86,13.3 85.38,13.3C86.06,13.3 86.59,13.19 86.97,12.96C87.35,12.73 87.54,12.43 87.54,12.04C87.54,11.67 87.35,11.36 86.98,11.11C86.61,10.86 85.98,10.66 85.09,10.49C82.79,10.05 81.63,9.1 81.63,7.65C81.63,7.06 81.8,6.56 82.15,6.16C82.5,5.75 82.95,5.45 83.52,5.24C84.08,5.04 84.68,4.93 85.32,4.93C86.1,4.92 86.79,5.05 87.41,5.3Z" style="stroke:black;stroke-width:0.5px;"/>
                </g>
            </g>
        </g>
    </g>
</svg>
