<?xml version="1.0" encoding="utf-8"?>
<!-- Generator: Adobe Illustrator 27.1.1, SVG Export Plug-In . SVG Version: 6.00 Build 0)  -->
<svg version="1.1" id="Ebene_1" xmlns:serif="http://www.serif.com/"
	 xmlns="http://www.w3.org/2000/svg" xmlns:xlink="http://www.w3.org/1999/xlink" x="0px" y="0px" viewBox="0 0 841.9 595.3"
	 style="enable-background:new 0 0 841.9 595.3;" xml:space="preserve">
<style type="text/css">
	.st0{fill:url(#SVGID_1_);}
	.st1{fill:#FFFFFF;}
</style>
<g>
	
		<linearGradient id="SVGID_1_" gradientUnits="userSpaceOnUse" x1="359.7165" y1="430.2897" x2="490.4353" y2="274.5051" gradientTransform="matrix(1 0 0 -1 0 595.2756)">
		<stop  offset="2.422030e-07" style="stop-color:#E71F64"/>
		<stop  offset="1" style="stop-color:#E62154"/>
	</linearGradient>
	<path class="st0" d="M480.2,336.5H359c-21.9,0-39.6-17.7-39.6-39.6V175.7c0-21.9,17.7-39.6,39.6-39.6h121.3
		c21.9,0,39.6,17.7,39.6,39.6V297C519.8,318.8,502,336.5,480.2,336.5z"/>
	<g>
		<path class="st1" d="M446.8,200.8h-57v27h30.1v24.9h0c0,12.5-7.1,24.5-19.2,30.1c-3.6,1.6-7.3,2.6-11,2.9v26.9
			c7.5-0.3,15-2.1,22.1-5.4c22-10.1,34.9-31.8,34.8-54.5h0v-44h0L446.8,200.8L446.8,200.8z"/>
		
			<ellipse transform="matrix(0.9871 -0.1602 0.1602 0.9871 -21.7736 71.5949)" class="st1" cx="433.1" cy="170.8" rx="16.2" ry="16.2"/>
	</g>
</g>
<g>
	<g>
		<path class="st1" d="M180.7,428.2c-0.5,0-1-0.1-1.3-0.2v-5.5c0.7,0.1,1.5,0.1,2.1,0.1c1.5,0,2.8-0.4,3.8-1.2
			c0.9-0.8,1.4-2,1.4-3.6v-32.3h6.3v32.3c0,3.4-1,6-3.1,7.7c-2,1.8-4.7,2.7-7.9,2.7C181.6,428.3,181.2,428.3,180.7,428.2z"/>
		<path class="st1" d="M207.1,414.5c-2.4-1.4-4.3-3.3-5.8-5.7c-1.4-2.4-2.1-5.1-2.1-8.1s0.7-5.8,2.1-8.2s3.3-4.3,5.7-5.6s5.1-2,8-2
			s5.6,0.7,8,2c2.4,1.4,4.3,3.2,5.7,5.6c1.4,2.4,2.1,5.1,2.1,8.2c0,3.1-0.7,5.8-2.1,8.2c-1.4,2.4-3.3,4.3-5.7,5.6c-2.4,1.4-5,2-8,2
			C212.1,416.6,209.5,415.9,207.1,414.5z M219.8,409.4c1.4-0.9,2.5-2,3.3-3.6c0.8-1.5,1.2-3.2,1.2-5.1c0-1.9-0.4-3.6-1.2-5.1
			c-0.8-1.5-1.9-2.7-3.3-3.5s-3-1.3-4.7-1.3s-3.3,0.4-4.7,1.3c-1.4,0.9-2.5,2-3.3,3.5c-0.8,1.5-1.2,3.2-1.2,5.1
			c0,1.9,0.4,3.6,1.2,5.1c0.8,1.5,1.9,2.7,3.3,3.6c1.4,0.9,3,1.3,4.7,1.3S218.4,410.2,219.8,409.4z"/>
		<path class="st1" d="M247.4,415.4c-1.8-0.8-3.2-1.9-4.4-3.4v3.9H237v-42.5h6.3V389c1.1-1.3,2.5-2.3,4.2-3.1
			c1.7-0.7,3.6-1.1,5.7-1.1c2.9,0,5.5,0.7,7.7,2.1c2.3,1.4,4.1,3.3,5.4,5.7c1.3,2.4,2,5.1,2,8.1s-0.7,5.7-2,8.1
			c-1.3,2.4-3.1,4.3-5.4,5.7c-2.3,1.4-4.9,2.1-7.8,2.1C251.2,416.6,249.2,416.1,247.4,415.4z M257.4,409.4c1.4-0.9,2.5-2,3.3-3.6
			c0.8-1.5,1.2-3.2,1.2-5.1c0-1.9-0.4-3.6-1.2-5.1c-0.8-1.5-1.9-2.7-3.3-3.5s-3-1.3-4.7-1.3c-1.7,0-3.3,0.4-4.7,1.3s-2.5,2-3.3,3.5
			c-0.8,1.5-1.2,3.2-1.2,5.1c0,1.9,0.4,3.6,1.2,5.1c0.8,1.5,1.9,2.7,3.3,3.6c1.4,0.9,3,1.3,4.7,1.3
			C254.5,410.7,256,410.2,257.4,409.4z"/>
		<path class="st1" d="M277.7,414.3c-2.3-1.5-4-3.6-4.9-6.1l4.9-2.3c0.8,1.7,1.9,3.1,3.4,4.1s3.1,1.5,4.8,1.5c1.5,0,2.7-0.3,3.6-1
			c0.9-0.7,1.4-1.6,1.4-2.8c0-1.1-0.4-1.9-1.3-2.4c-0.9-0.5-1.8-0.9-2.8-1.2l-4.7-1.4c-2.6-0.7-4.6-1.9-5.9-3.4
			c-1.3-1.5-1.9-3.3-1.9-5.3c0-1.8,0.5-3.4,1.4-4.7c0.9-1.4,2.2-2.4,3.9-3.1c1.6-0.8,3.5-1.2,5.6-1.2c2.8,0,5.2,0.7,7.4,2
			s3.7,3.2,4.6,5.7l-4.9,2.3c-0.6-1.5-1.5-2.6-2.9-3.5s-2.8-1.3-4.4-1.3c-1.4,0-2.5,0.3-3.3,1c-0.8,0.6-1.2,1.5-1.2,2.6
			s0.4,1.8,1.2,2.4c0.8,0.5,1.7,0.9,2.6,1.2l4.9,1.5c2.5,0.7,4.5,1.8,5.8,3.3c1.4,1.5,2,3.3,2,5.4c0,1.8-0.5,3.4-1.4,4.7
			c-0.9,1.4-2.3,2.4-4,3.2s-3.7,1.2-5.9,1.2C282.7,416.6,280,415.8,277.7,414.3z"/>
		<path class="st1" d="M321.8,406.5h-19.9v-5.5l19.7-26.9h6.6v26.9h5.8v5.5h-5.8v9.4h-6.3L321.8,406.5L321.8,406.5z M321.8,382.4
			l-13.3,18.5h13.3V382.4z"/>
		<path class="st1" d="M342.6,414.3c-2.3-1.5-4-3.6-4.9-6.1l4.9-2.3c0.8,1.7,1.9,3.1,3.4,4.1s3.1,1.5,4.8,1.5c1.5,0,2.7-0.3,3.6-1
			c0.9-0.7,1.4-1.6,1.4-2.8c0-1.1-0.4-1.9-1.3-2.4c-0.9-0.5-1.8-0.9-2.8-1.2l-4.7-1.4c-2.6-0.7-4.6-1.9-5.9-3.4
			c-1.3-1.5-1.9-3.3-1.9-5.3c0-1.8,0.5-3.4,1.4-4.7c0.9-1.4,2.2-2.4,3.9-3.1c1.6-0.8,3.5-1.2,5.6-1.2c2.8,0,5.2,0.7,7.4,2
			c2.2,1.4,3.7,3.2,4.6,5.7l-4.9,2.3c-0.6-1.5-1.5-2.6-2.9-3.5c-1.3-0.9-2.8-1.3-4.4-1.3c-1.4,0-2.5,0.3-3.3,1
			c-0.8,0.6-1.2,1.5-1.2,2.6s0.4,1.8,1.2,2.4c0.8,0.5,1.7,0.9,2.6,1.2l4.9,1.5c2.5,0.7,4.5,1.8,5.8,3.3c1.3,1.5,2,3.3,2,5.4
			c0,1.8-0.5,3.4-1.4,4.7c-0.9,1.4-2.3,2.4-4,3.2s-3.7,1.2-5.9,1.2C347.7,416.6,345,415.8,342.6,414.3z"/>
		<path class="st1" d="M374.1,413.5c-1.7-1.8-2.6-4.3-2.6-7.6v-14.7h-5.3v-5.7h0.8c1.4,0,2.5-0.4,3.3-1.2c0.8-0.8,1.2-1.9,1.2-3.4
			v-2.4h6.3v7h6.9v5.7h-6.9v14.4c0,1.5,0.4,2.8,1.2,3.6c0.8,0.9,2.1,1.3,3.9,1.3c0.7,0,1.4,0,2.1-0.1v5.4c-0.5,0.1-1.1,0.1-1.7,0.2
			s-1.2,0.1-1.7,0.1C378.3,416.2,375.8,415.3,374.1,413.5z"/>
		<path class="st1" d="M395.9,415c-1.7-1-3.1-2.5-4-4.3c-1-1.8-1.5-4-1.5-6.4v-18.7h6.3v18.2c0,2.1,0.6,3.8,1.9,5
			c1.3,1.3,2.9,1.9,4.8,1.9c2,0,3.6-0.7,4.9-2c1.3-1.3,1.9-3.1,1.9-5.3v-17.9h6.3v30.5h-6v-3.8c-0.9,1.4-2,2.5-3.5,3.3
			s-3.2,1.2-5.1,1.2C399.6,416.6,397.6,416.1,395.9,415z"/>
		<path class="st1" d="M430.1,414.5c-2.3-1.4-4.1-3.3-5.4-5.7c-1.3-2.4-2-5.1-2-8.1s0.7-5.7,2-8.1c1.3-2.4,3.1-4.3,5.4-5.7
			c2.3-1.4,4.9-2.1,7.7-2.1c2.1,0,4,0.4,5.7,1.1c1.7,0.7,3.1,1.8,4.2,3.1v-15.6h6.3v42.5h-6V412c-1.1,1.5-2.6,2.6-4.4,3.4
			c-1.8,0.8-3.7,1.2-5.8,1.2C435,416.6,432.4,415.9,430.1,414.5z M443.3,409.4c1.4-0.9,2.5-2,3.3-3.6c0.8-1.5,1.2-3.2,1.2-5.1
			c0-1.9-0.4-3.6-1.2-5.1c-0.8-1.5-1.9-2.7-3.3-3.5c-1.4-0.9-3-1.3-4.7-1.3c-1.7,0-3.3,0.4-4.7,1.3c-1.4,0.9-2.5,2-3.3,3.5
			c-0.8,1.5-1.2,3.2-1.2,5.1c0,1.9,0.4,3.6,1.2,5.1s1.9,2.7,3.3,3.6s3,1.3,4.8,1.3C440.3,410.7,441.9,410.2,443.3,409.4z"/>
		<path class="st1" d="M467.8,414.5c-2.3-1.4-4.2-3.3-5.5-5.7s-2-5.1-2-8.1c0-3.1,0.7-5.7,2-8.1c1.3-2.4,3.1-4.3,5.4-5.6
			c2.3-1.4,4.8-2,7.7-2c3.1,0,5.7,0.7,7.8,2c2.1,1.4,3.8,3.1,4.9,5.4c1.2,2.2,1.7,4.6,1.7,7.3c0,0.5,0,1,0,1.5c0,0.5-0.1,1-0.2,1.5
			h-22.6c0.2,2.6,1.1,4.6,2.8,6.1c1.7,1.5,3.7,2.3,6.1,2.3c1.8,0,3.4-0.4,4.7-1.3c1.3-0.8,2.3-1.9,3.1-3.1l5.2,2.5
			c-0.9,2.2-2.6,4-4.8,5.4c-2.3,1.4-5,2.1-8.1,2.1C472.8,416.6,470,415.9,467.8,414.5z M469.9,392.1c-1.5,1.3-2.5,3.1-2.9,5.4h16
			c-0.1-2.2-0.9-3.9-2.4-5.3c-1.5-1.4-3.2-2-5.4-2C473.2,390.2,471.4,390.8,469.9,392.1z"/>
		<path class="st1" d="M495.9,385.5h6.1v3.7c0.9-1.4,2-2.5,3.5-3.2s3.2-1.1,5-1.1c2.2,0,4.2,0.5,5.9,1.5s3.1,2.3,4.1,4
			c1,1.7,1.5,3.7,1.5,5.9v19.7h-6.3V398c0-2.2-0.6-4-1.9-5.3c-1.3-1.3-2.9-1.9-4.8-1.9c-1.9,0-3.5,0.6-4.8,1.9
			c-1.3,1.3-1.9,3.1-1.9,5.3v17.9h-6.3V385.5z"/>
		<path class="st1" d="M534.5,413.5c-1.7-1.8-2.6-4.3-2.6-7.6v-14.7h-5.3v-5.7h0.8c1.4,0,2.5-0.4,3.3-1.2c0.8-0.8,1.2-1.9,1.2-3.4
			v-2.4h6.3v7h6.9v5.7h-6.9v14.4c0,1.5,0.4,2.8,1.2,3.6s2.1,1.3,3.9,1.3c0.7,0,1.4,0,2.1-0.1v5.4c-0.5,0.1-1.1,0.1-1.7,0.2
			c-0.6,0.1-1.2,0.1-1.7,0.1C538.8,416.2,536.3,415.3,534.5,413.5z"/>
		<path class="st1" d="M554.6,414.3c-2.3-1.5-4-3.6-4.9-6.1l4.9-2.3c0.8,1.7,1.9,3.1,3.4,4.1s3.1,1.5,4.8,1.5c1.5,0,2.7-0.3,3.6-1
			c0.9-0.7,1.4-1.6,1.4-2.8c0-1.1-0.4-1.9-1.3-2.4c-0.9-0.5-1.8-0.9-2.8-1.2l-4.7-1.4c-2.6-0.7-4.6-1.9-5.9-3.4
			c-1.3-1.5-1.9-3.3-1.9-5.3c0-1.8,0.5-3.4,1.4-4.7c0.9-1.4,2.2-2.4,3.9-3.1c1.6-0.8,3.5-1.2,5.6-1.2c2.8,0,5.2,0.7,7.4,2
			s3.7,3.2,4.6,5.7l-4.9,2.3c-0.6-1.5-1.5-2.6-2.9-3.5c-1.3-0.9-2.8-1.3-4.4-1.3c-1.4,0-2.5,0.3-3.3,1c-0.8,0.6-1.2,1.5-1.2,2.6
			s0.4,1.8,1.2,2.4c0.8,0.5,1.7,0.9,2.6,1.2l4.9,1.5c2.5,0.7,4.5,1.8,5.8,3.3c1.4,1.5,2,3.3,2,5.4c0,1.8-0.5,3.4-1.4,4.7
			s-2.3,2.4-4,3.2s-3.7,1.2-5.9,1.2C559.6,416.6,556.9,415.8,554.6,414.3z"/>
		<path class="st1" d="M583.1,408.6h6.4v7.3h-6.4V408.6z"/>
		<path class="st1" d="M606.1,414.5c-2.4-1.4-4.2-3.3-5.6-5.7c-1.4-2.4-2-5.1-2-8.1c0-3.1,0.7-5.7,2-8.1s3.2-4.3,5.6-5.6s5-2,8.1-2
			c2,0,4,0.3,5.8,1.1c1.8,0.7,3.3,1.7,4.7,3c1.3,1.3,2.3,2.8,3,4.5L622,396c-0.6-1.5-1.6-2.9-3.1-3.8c-1.4-1-3-1.5-4.8-1.5
			c-1.7,0-3.2,0.4-4.6,1.3c-1.4,0.9-2.4,2-3.2,3.5c-0.8,1.5-1.2,3.2-1.2,5.1c0,1.9,0.4,3.6,1.2,5.1s1.8,2.7,3.2,3.6
			c1.4,0.9,2.9,1.3,4.6,1.3c1.8,0,3.4-0.5,4.8-1.5c1.4-1,2.4-2.2,3.1-3.8l5.6,2.6c-0.6,1.6-1.5,3.1-2.9,4.4
			c-1.3,1.3-2.9,2.3-4.7,3.1c-1.8,0.7-3.7,1.1-5.9,1.1C611.1,416.6,608.4,415.9,606.1,414.5z"/>
		<path class="st1" d="M633.7,373.4h6.3v15.4c0.9-1.3,2-2.2,3.5-2.9c1.4-0.7,3.1-1,4.8-1c2.2,0,4.2,0.5,5.9,1.5s3.1,2.3,4.1,4
			c1,1.7,1.5,3.7,1.5,5.9v19.7h-6.3V398c0-2.2-0.6-4-1.9-5.3c-1.3-1.3-2.9-1.9-4.8-1.9c-1.9,0-3.5,0.6-4.8,1.9
			c-1.3,1.3-1.9,3.1-1.9,5.3v17.9h-6.3L633.7,373.4L633.7,373.4z"/>
	</g>
	<circle class="st1" cx="189.8" cy="377.7" r="3.8"/>
</g>
</svg>
